<?xml version="1.0" encoding="utf-8"?>
<!-- Generator: Adobe Illustrator 21.0.0, SVG Export Plug-In . SVG Version: 6.00 Build 0)  -->
<!DOCTYPE svg PUBLIC "-//W3C//DTD SVG 1.1//EN" "http://www.w3.org/Graphics/SVG/1.1/DTD/svg11.dtd">
<svg version="1.1" xmlns="http://www.w3.org/2000/svg" xmlns:xlink="http://www.w3.org/1999/xlink" x="0px" y="0px" width="247.7px"
	 height="248px" viewBox="0 0 247.7 248" style="enable-background:new 0 0 247.7 248;" xml:space="preserve">
<style type="text/css">
	.st0{fill:#23C9A9;}
	.st1{opacity:0.12;fill:#FFFFFF;enable-background:new    ;}
	.st2{opacity:0.1;}
	.st3{fill:#FFFFFF;}
	.st4{fill:#B7F9EC;}
	.st5{fill:#495054;}
	.st6{fill:#70797C;}
	.st7{opacity:0.1;enable-background:new    ;}
	.st8{opacity:0.2;}
	.st9{opacity:0.2;fill:none;stroke:#FFFFFF;stroke-width:6;stroke-linecap:round;stroke-linejoin:round;enable-background:new    ;}
</style>
<g id="Layer_1">
	<g id="Layer_2">
		<rect x="-458" y="-981.4" class="st0" width="795.9" height="357.5"/>
		<rect x="-458" y="-587.3" class="st0" width="795.9" height="357.5"/>
		<circle class="st0" cx="-60.1" cy="-92" r="15.8"/>
	</g>
	<g id="Layer_3">
		<path class="st1" d="M-35.2-929l-41.2,61c-1.5,2.3-4.7,2.9-6.9,1.3c-2.3-1.5-2.9-4.7-1.3-6.9c0.1-0.1,0.1-0.2,0.2-0.3l45.3-58
			c0.8-1.1,2.3-1.2,3.4-0.4C-34.7-931.5-34.4-930.1-35.2-929z"/>
		<path class="st1" d="M-72-669.8l-41.2,61c-1.5,2.3-4.7,2.9-6.9,1.3c-2.3-1.5-2.9-4.7-1.3-6.9c0.1-0.1,0.1-0.2,0.2-0.3l45.3-58
			c0.8-1.1,2.3-1.2,3.4-0.4C-71.5-672.3-71.3-670.9-72-669.8z"/>
		<path class="st1" d="M286.3-904.4l-41.2,61c-1.5,2.3-4.7,2.9-6.9,1.3c-2.3-1.5-2.9-4.7-1.3-6.9c0.1-0.1,0.1-0.2,0.2-0.3l45.3-58
			c0.8-1.1,2.3-1.2,3.4-0.4C286.8-906.9,287-905.4,286.3-904.4z"/>
		<path class="st1" d="M76-967.6l-51,74.5c-1.6,2.3-4.7,2.9-7,1.3c-2.3-1.6-2.9-4.7-1.3-7c0.1-0.1,0.1-0.2,0.2-0.2L72-970.5
			c0.8-1.1,2.3-1.3,3.4-0.4C76.5-970.1,76.7-968.7,76-967.6z"/>
		<path class="st1" d="M338.6-895.5l-51,74.5c-1.6,2.3-4.7,2.9-7,1.3c-2.3-1.6-2.9-4.7-1.3-7c0.1-0.1,0.1-0.2,0.2-0.2l55.1-71.5
			c0.8-1.1,2.3-1.3,3.4-0.4C339.1-898,339.3-896.6,338.6-895.5z"/>
		<path class="st1" d="M-301.8-1024.1l-51,74.5c-1.6,2.3-4.7,2.9-7,1.3c-2.3-1.6-2.9-4.7-1.3-7c0.1-0.1,0.1-0.2,0.2-0.2l55.1-71.5
			c0.8-1.1,2.3-1.3,3.4-0.4C-301.3-1026.6-301.1-1025.1-301.8-1024.1z"/>
		<path class="st1" d="M-204.4-917.9l-51,74.5c-1.6,2.3-4.7,2.9-7,1.3c-2.3-1.6-2.9-4.7-1.3-7c0.1-0.1,0.1-0.2,0.2-0.2l55.1-71.5
			c0.8-1.1,2.3-1.3,3.4-0.4C-203.9-920.4-203.7-918.9-204.4-917.9z"/>
		<path class="st1" d="M181-746.6l-51,74.5c-1.6,2.3-4.7,2.9-7,1.3c-2.3-1.6-2.9-4.7-1.3-7c0.1-0.1,0.1-0.2,0.2-0.2l55.1-71.5
			c0.8-1.1,2.3-1.3,3.4-0.4C181.5-749.1,181.7-747.7,181-746.6z"/>
		<path class="st1" d="M-343.7-1014.3l-51,74.5c-1.6,2.3-4.7,2.9-7,1.3c-2.3-1.6-2.9-4.7-1.3-7c0.1-0.1,0.1-0.2,0.2-0.2l55.1-71.5
			c0.8-1.1,2.3-1.3,3.4-0.4C-343.2-1016.8-343-1015.3-343.7-1014.3z"/>
		<path class="st1" d="M-144.5-959.5l-15.3,25.4c-1.4,2.4-4.5,3.1-6.9,1.7c-2.4-1.4-3.1-4.5-1.7-6.9c0.1-0.2,0.3-0.5,0.5-0.7
			l19.5-22.4c0.9-1,2.4-1.1,3.4-0.2C-144.1-961.8-143.9-960.5-144.5-959.5z"/>
		<path class="st1" d="M189.8-943.3l-15.3,25.4c-1.4,2.4-4.5,3.1-6.9,1.7c-2.4-1.4-3.1-4.5-1.7-6.9c0.1-0.2,0.3-0.5,0.5-0.7
			l19.5-22.4c0.9-1,2.4-1.1,3.4-0.2C190.2-945.6,190.4-944.3,189.8-943.3z"/>
		<path class="st1" d="M-385.8-722.3l-15.3,25.4c-1.4,2.4-4.5,3.1-6.9,1.7c-2.4-1.4-3.1-4.5-1.7-6.9c0.1-0.2,0.3-0.5,0.5-0.7
			l19.5-22.4c0.9-1,2.4-1.1,3.4-0.2C-385.3-724.6-385.2-723.3-385.8-722.3z"/>
		<path class="st1" d="M-341.9-886.8l-15.3,25.4c-1.4,2.4-4.5,3.1-6.9,1.7c-2.4-1.4-3.1-4.5-1.7-6.9c0.1-0.2,0.3-0.5,0.5-0.7
			l19.5-22.4c0.9-1,2.4-1.1,3.4-0.2C-341.5-889.1-341.3-887.8-341.9-886.8z"/>
		<path class="st1" d="M282-683.1l-26.4,40.7c-1.5,2.3-4.6,3-6.9,1.5s-3-4.6-1.5-6.9c0.1-0.1,0.2-0.3,0.3-0.4l30.6-37.7
			c0.8-1,2.4-1.2,3.4-0.4C282.4-685.5,282.6-684.2,282-683.1z"/>
		<path class="st1" d="M-195.8-737.4l-26.4,40.7c-1.5,2.3-4.6,3-6.9,1.5c-2.3-1.5-3-4.6-1.5-6.9c0.1-0.1,0.2-0.3,0.3-0.4l30.6-37.7
			c0.8-1,2.4-1.2,3.4-0.4C-195.4-739.8-195.2-738.4-195.8-737.4z"/>
	</g>
	<g>
		<g class="st2">
			<path d="M-187.2-816.8c-1.5-1.5-3.3-2.6-5.4-3.5c-2.1-0.9-4.3-1.3-6.6-1.3c-7.3,0-14.1,2.8-20.4,8.3c-2.6-5.2-6.7-7.7-12.1-7.7
				c-4.9,0-8.7,2.3-11.3,6.9c-0.4,0.7-0.7,1.3-1,2s-0.4,1.4-0.5,2.3c-0.1,0.9-0.1,1.9-0.2,3.2c-0.1,1.3-0.1,2.9-0.1,4.9v59.7v3
				c0,4.4,1.2,7.9,3.7,10.6c2.4,2.7,5.7,4.1,9.6,4.1c4,0,7.1-1.3,9.4-4c2.3-2.6,3.5-6.2,3.7-10.7v-3v-40.7c0-4.4,0.4-7.5,1.3-9.3
				c0.9-1.8,2.3-2.8,4.5-2.8c1.5,0,3.2,0.6,5.2,1.8c2.5,1.5,4.3,2.4,5.3,2.8c1,0.4,2.4,0.6,4.3,0.6c4.4,0,8.1-1.5,11.2-4.6
				c3.1-3,4.7-6.7,4.7-11.1c0-2.2-0.5-4.4-1.4-6.3C-184.4-813.7-185.6-815.4-187.2-816.8z"/>
			<path d="M-158.7-821c-3.8,0-6.9,1.3-9.3,4c-2.4,2.6-3.6,6.2-3.8,10.7v3v61.3v3c0,4.4,1.2,7.9,3.7,10.6c2.4,2.7,5.7,4.1,9.6,4.1
				c3.8,0,6.9-1.3,9.3-4c2.4-2.6,3.6-6.2,3.8-10.7v-3v-61.3v-3c0-4.4-1.2-7.9-3.7-10.6C-151.5-819.6-154.7-821-158.7-821z"/>
			<path d="M-281.9-864.1c-3.8,0-6.9,1.3-9.3,4c-2.4,2.6-3.6,6.2-3.8,10.7v3v33.9c-4.1-3.1-8.2-5.4-12.4-6.9
				c-4.2-1.4-8.8-2.2-14-2.2c-6.5,0-12.5,1.3-17.9,3.8c-5.5,2.5-10.2,5.9-14.3,10.3c-4,4.4-7.2,9.5-9.5,15.5
				c-2.3,5.9-3.5,12.4-3.5,19.2c0,7,1.2,13.5,3.5,19.5s5.5,11.2,9.5,15.6c4,4.4,8.9,7.8,14.5,10.2s11.7,3.7,18.3,3.7
				c5.6,0,10.4-0.8,14.5-2.3s8.3-4.1,12.5-7.8c2.2,6.3,6.4,9.4,12.5,9.4c2.4,0,4.5-0.5,6.3-1.5c1.8-1,3.3-2.4,4.4-4.3
				c0.8-1.3,1.3-2.8,1.6-4.4c0.3-1.6,0.4-4,0.4-7.1v-104.7v-3c0-4.4-1.2-7.9-3.7-10.6C-274.7-862.7-277.9-864.1-281.9-864.1z
				 M-296.1-764.1c-1.2,2.7-2.8,5.1-4.8,7.2c-2,2.1-4.3,3.7-7,4.9c-2.7,1.2-5.6,1.8-8.6,1.8c-3.2,0-6.1-0.6-8.8-1.8
				c-2.7-1.2-5.1-2.8-7-4.9c-2-2.1-3.6-4.5-4.8-7.2c-1.2-2.7-1.8-5.7-1.8-8.9c0-3.1,0.6-5.9,1.8-8.6c1.2-2.7,2.8-5,4.9-7
				c2-2,4.4-3.6,7.1-4.8c2.7-1.2,5.6-1.8,8.6-1.8s5.9,0.6,8.6,1.8c2.7,1.2,5.1,2.8,7,4.8c2,2,3.6,4.4,4.8,7.1
				c1.2,2.7,1.8,5.6,1.8,8.7S-294.9-766.8-296.1-764.1z"/>
			<path d="M14.7-750h-25.1l67.2-103.4c2-3,1.4-7.2-1.5-9.5c-3.1-2.5-7.6-2-10.1,1.1l-34.3,42.2h-46c-4,0-7.2,1.1-9.7,3.3
				s-3.8,5.1-3.8,8.8c0,3.6,1.2,6.4,3.7,8.6c2.4,2.2,5.7,3.3,9.8,3.5h26.4L-46.3-749c-0.3,0.4-0.6,0.8-0.9,1.3
				c-4.5,6.9-2.5,16,4.4,20.5c4.1,2.6,8.9,3,13.1,1.5h44.4c4,0,7.2-1.1,9.6-3.4c2.4-2.2,3.7-5.2,3.7-8.7s-1.2-6.4-3.6-8.6
				C22-748.7,18.8-749.9,14.7-750z"/>
			<path d="M251.9-767.8c-1.7-3.3-4.2-5.5-7.5-6.7c-3.4-1.1-6.8-0.8-10.2,0.9c-1.3,0.7-2.4,1.5-3.3,2.4c-0.9,1-1.8,2.4-2.7,4.1
				c-1.5,3-3.1,5.4-4.9,7.2c-1.8,1.9-3.9,3.4-6.3,4.6c-4.9,2.4-9.9,3-15.2,1.6l30.7-37.1c2.7-3.4,4.4-6.4,5-8.8c0.6-2.5,0.3-5-1-7.6
				c-2-3.9-4.9-7.1-8.7-9.6c-3.8-2.5-8.2-4.3-12.9-5.3c-4.8-1-9.8-1.2-15.1-0.5c-5.3,0.7-10.3,2.2-15,4.5c-5.9,3-10.9,6.9-14.9,11.8
				c-4.1,4.9-7.1,10.3-9,16.3c-2,5.9-2.8,12.1-2.5,18.5s2,12.6,4.9,18.5c3,5.9,6.9,10.9,12,15.1c5,4.1,10.6,7.2,16.6,9.2
				s12.3,2.9,18.8,2.6c6.5-0.3,12.7-1.9,18.6-4.9c4.3-2.1,8.2-4.9,11.8-8.2c3.6-3.4,6.5-7.1,8.6-11.1c2-3.7,3.2-6.9,3.6-9.7
				C253.6-762.7,253.2-765.3,251.9-767.8z M186.2-767.5c-2.1-5.3-2.1-10.6-0.1-15.9c2-5.3,5.6-9.2,10.8-11.8
				c4.8-2.4,9.2-2.5,12.9-0.3L186.2-767.5z"/>
			<path d="M136.1-864c-4,0-7.1,1.3-9.5,4c-2.4,2.6-3.6,6.2-3.8,10.7v3V-742v3c0,4.4,1.2,7.9,3.7,10.6c2.4,2.7,5.7,4.1,9.6,4.1
				c4.2,0,7.5-1.4,9.8-4.2s3.4-6.7,3.3-11.7v-1.8v-105.5v-1.8c0-4.4-1.2-7.9-3.6-10.6C143.2-862.6,140.1-864,136.1-864z"/>
			<path d="M-72.2-750h-25.5l67.2-103.4c2-3,1.4-7.2-1.5-9.5c-3.1-2.5-7.6-2-10.1,1.1l-34.2,42.2H-122c-4,0-7.2,1.1-9.7,3.3
				s-3.8,5.1-3.8,8.8c0,3.6,1.2,6.4,3.7,8.6c2.4,2.2,5.7,3.3,9.8,3.5h26.1l-37.6,46.4c-0.3,0.4-0.6,0.8-0.9,1.3
				c-4.5,6.9-2.5,16,4.4,20.5c4.1,2.6,8.9,3,13.1,1.5h44.7c4,0,7.2-1.1,9.6-3.4c2.4-2.2,3.7-5.2,3.7-8.7s-1.2-6.4-3.6-8.6
				C-64.8-748.7-68.1-749.9-72.2-750z"/>
			<path d="M101.5-750H74.3l11.9-15.5l24.4-31.9c2.2-3,3.4-5.8,3.4-8.3c0-4.2-1.5-7.6-4.5-10.1c-2.6-2.3-6.1-3.5-10.3-3.7l0,0h-1.6
				h-3.4H51.6c-4,0-7.2,1.1-9.7,3.3s-3.8,5.1-3.8,8.8c0,3.6,1.2,6.4,3.7,8.6c2.4,2.2,5.7,3.3,9.8,3.5h24L66.1-783l0,0l-24.4,32
				c-1.2,1.6-2.2,3-3,4.1s-1.4,2.1-1.8,2.9c-0.4,0.8-0.7,1.6-0.8,2.3c-0.1,0.7-0.2,1.6-0.2,2.5c0,2.2,0.7,4.5,2.1,6.8s3.1,4,5.2,5
				c1.3,0.7,2.6,1.1,3.8,1.3c1,0.2,2.4,0.3,3.9,0.3l0,0h0.7h4.3h45.7c4,0,7.2-1.1,9.6-3.4c2.4-2.2,3.7-5.2,3.7-8.7s-1.2-6.4-3.6-8.6
				C108.9-748.7,105.6-749.9,101.5-750z"/>
			<path d="M-132.7-873.1c-2.1-2.1-5.4-2.1-7.5,0l-24.6,24.4c-0.8,0.8-1.5,1.8-2.1,2.9c-2.7,5.4-0.5,12,4.9,14.8
				c5.4,2.7,12,0.5,14.8-4.9l15.6-30.9C-130.7-868.9-131-871.4-132.7-873.1z"/>
			<path d="M78.6-841.2c3.4,1.8,7.7,0.5,9.5-2.9l9.5-17.8c0.6-1.2,0.5-2.8-0.5-3.9c-1.2-1.4-3.4-1.5-4.8-0.3l-15.1,13.4
				c-0.6,0.5-1.1,1.2-1.5,1.9C73.8-847.3,75.1-843,78.6-841.2z"/>
		</g>
		<g>
			<g>
				<path class="st3" d="M-194.2-823.6c-1.5-1.5-3.3-2.6-5.4-3.5c-2.1-0.9-4.3-1.3-6.6-1.3c-7.3,0-14.1,2.8-20.4,8.3
					c-2.6-5.2-6.7-7.7-12.1-7.7c-4.9,0-8.7,2.3-11.3,6.9c-0.4,0.7-0.7,1.3-1,2s-0.4,1.4-0.5,2.3c-0.1,0.9-0.1,1.9-0.2,3.2
					c-0.1,1.3-0.1,2.9-0.1,4.9v59.7v3c0,4.4,1.2,7.9,3.7,10.6c2.4,2.7,5.7,4.1,9.6,4.1c4,0,7.1-1.3,9.4-4c2.3-2.6,3.5-6.2,3.7-10.7
					v-3v-40.7c0-4.4,0.4-7.5,1.3-9.3c0.9-1.8,2.3-2.8,4.5-2.8c1.5,0,3.2,0.6,5.2,1.8c2.5,1.5,4.3,2.4,5.3,2.8c1,0.4,2.4,0.6,4.3,0.6
					c4.4,0,8.1-1.5,11.2-4.6c3.1-3,4.7-6.7,4.7-11.1c0-2.2-0.5-4.4-1.4-6.3C-191.4-820.4-192.7-822.1-194.2-823.6z"/>
				<path class="st3" d="M-165.7-827.8c-3.8,0-6.9,1.3-9.3,4c-2.4,2.6-3.6,6.2-3.8,10.7v3v61.3v3c0,4.4,1.2,7.9,3.7,10.6
					c2.4,2.7,5.7,4.1,9.6,4.1c3.8,0,6.9-1.3,9.3-4c2.4-2.6,3.6-6.2,3.8-10.7v-3v-61.3v-3c0-4.4-1.2-7.9-3.7-10.6
					C-158.5-826.4-161.7-827.8-165.7-827.8z"/>
				<path class="st3" d="M-81.5-826.4H-129c-4,0-7.2,1.1-9.7,3.3s-3.8,5.1-3.8,8.8c0,3.6,1.2,6.4,3.7,8.6c2.4,2.2,5.7,3.3,9.8,3.5
					h29L-81.5-826.4z"/>
				<path class="st3" d="M-288.9-870.8c-3.8,0-6.9,1.3-9.3,4c-2.4,2.6-3.6,6.2-3.8,10.7v3v33.9c-4.1-3.1-8.2-5.4-12.4-6.9
					c-4.2-1.4-8.8-2.2-14-2.2c-6.5,0-12.5,1.3-17.9,3.8c-5.5,2.5-10.2,5.9-14.3,10.3c-4,4.4-7.2,9.5-9.5,15.5
					c-2.3,5.9-3.5,12.4-3.5,19.2c0,7,1.2,13.5,3.5,19.5s5.5,11.2,9.5,15.6c4,4.4,8.9,7.8,14.5,10.2s11.7,3.7,18.3,3.7
					c5.6,0,10.4-0.8,14.5-2.3s8.3-4.1,12.5-7.8c2.2,6.3,6.4,9.4,12.5,9.4c2.4,0,4.5-0.5,6.3-1.5c1.8-1,3.3-2.4,4.4-4.3
					c0.8-1.3,1.3-2.8,1.6-4.4c0.3-1.6,0.4-4,0.4-7.1v-104.7v-3c0-4.4-1.2-7.9-3.7-10.6C-281.7-869.5-284.9-870.8-288.9-870.8z
					 M-303.2-770.9c-1.2,2.7-2.8,5.1-4.8,7.2c-2,2.1-4.3,3.7-7,4.9c-2.7,1.2-5.6,1.8-8.6,1.8c-3.2,0-6.1-0.6-8.8-1.8
					c-2.7-1.2-5.1-2.8-7-4.9c-2-2.1-3.6-4.5-4.8-7.2c-1.2-2.7-1.8-5.7-1.8-8.9c0-3.1,0.6-5.9,1.8-8.6c1.2-2.7,2.8-5,4.9-7
					c2-2,4.4-3.6,7.1-4.8c2.7-1.2,5.6-1.8,8.6-1.8s5.9,0.6,8.6,1.8c2.7,1.2,5.1,2.8,7,4.8c2,2,3.6,4.4,4.8,7.1
					c1.2,2.7,1.8,5.6,1.8,8.7S-302-773.6-303.2-770.9z"/>
				<path class="st3" d="M94.5-756.8H67.3l11.9-15.5l24.4-31.9c2.2-3,3.4-5.8,3.4-8.3c0-4.2-1.5-7.6-4.5-10.1
					c-2.6-2.3-6.1-3.5-10.3-3.7l0,0h-1.6h-3.4H44.6c-4,0-7.2,1.1-9.7,3.3s-3.8,5.1-3.8,8.8c0,3.6,1.2,6.4,3.7,8.6
					c2.4,2.2,5.7,3.3,9.8,3.5h24l-9.5,12.3l0,0l-24.7,32.1c-1.2,1.6-2.2,3-3,4.1c-0.8,1.1-1.4,2.1-1.8,2.9c-0.4,0.8-0.7,1.6-0.8,2.3
					c-0.1,0.7-0.2,1.6-0.2,2.5c0,2.2,0.7,4.5,2.1,6.8c1.4,2.3,3.1,4,5.2,5c1.3,0.7,2.6,1.1,3.8,1.3c1,0.2,2.4,0.3,3.9,0.3l0,0h0.7
					h4.3h45.7c4,0,7.2-1.1,9.6-3.4c2.4-2.2,3.7-5.2,3.7-8.7s-1.2-6.4-3.6-8.6C101.9-755.5,98.6-756.6,94.5-756.8z"/>
				<path class="st3" d="M244.9-774.5c-1.7-3.3-4.2-5.5-7.5-6.7c-3.4-1.1-6.8-0.8-10.2,0.9c-1.3,0.7-2.4,1.5-3.3,2.4
					c-0.9,1-1.8,2.4-2.7,4.1c-1.5,3-3.1,5.4-4.9,7.2c-1.8,1.9-3.9,3.4-6.3,4.6c-4.9,2.4-9.9,3-15.2,1.6l30.7-37.1
					c2.7-3.4,4.4-6.4,5-8.8c0.6-2.5,0.3-5-1-7.6c-2-3.9-4.9-7.1-8.7-9.6c-3.8-2.5-8.2-4.3-12.9-5.3c-4.8-1-9.8-1.2-15.1-0.5
					c-5.3,0.7-10.3,2.2-15,4.5c-5.9,3-10.9,6.9-14.9,11.8c-4.1,4.9-7.1,10.3-9,16.3c-2,5.9-2.8,12.1-2.5,18.5s2,12.6,4.9,18.5
					c3,5.9,6.9,10.9,12,15.1c5,4.1,10.6,7.2,16.6,9.2s12.3,2.9,18.8,2.6c6.5-0.3,12.7-1.9,18.6-4.9c4.3-2.1,8.2-4.9,11.8-8.2
					c3.6-3.4,6.5-7.1,8.6-11.1c2-3.7,3.2-6.9,3.6-9.7C246.6-769.4,246.2-772.1,244.9-774.5z M179.2-774.3
					c-2.1-5.3-2.1-10.6-0.1-15.9c2-5.3,5.6-9.2,10.8-11.8c4.8-2.4,9.2-2.5,12.9-0.3L179.2-774.3z"/>
				<path class="st3" d="M-79.2-756.8h-30.2l-18.5,24.2h48.7c4,0,7.2-1.1,9.6-3.4c2.4-2.2,3.7-5.2,3.7-8.7s-1.2-6.4-3.6-8.6
					C-71.9-755.5-75.1-756.6-79.2-756.8z"/>
				<path class="st3" d="M129.1-870.8c-4,0-7.1,1.3-9.5,4c-2.4,2.6-3.6,6.2-3.8,10.7v3v104.3v3c0,4.4,1.2,7.9,3.7,10.6
					c2.4,2.7,5.7,4.1,9.6,4.1c4.2,0,7.5-1.4,9.8-4.2s3.4-6.7,3.3-11.7v-1.8v-105.5v-1.8c0-4.4-1.2-7.9-3.6-10.6
					C136.2-869.4,133-870.8,129.1-870.8z"/>
				<path class="st3" d="M7.7-756.8h-30.2l-18.6,24.2H7.6c4,0,7.2-1.1,9.6-3.4c2.4-2.2,3.7-5.2,3.7-8.7s-1.2-6.4-3.6-8.6
					C15-755.5,11.8-756.6,7.7-756.8z"/>
				<path class="st3" d="M5.4-826.4h-47.5c-4,0-7.2,1.1-9.7,3.3s-3.8,5.1-3.8,8.8c0,3.6,1.2,6.4,3.7,8.6c2.4,2.2,5.7,3.3,9.8,3.5h29
					L5.4-826.4z"/>
			</g>
		</g>
		<g>
			<g>
				<path class="st4" d="M-37.5-860.2l-79.1,121.8c-4.5,6.9-13.6,8.8-20.5,4.4c-6.9-4.5-8.8-13.6-4.4-20.5c0.3-0.4,0.6-0.9,0.9-1.3
					l91.5-112.8c2.5-3.1,7-3.6,10.1-1.1C-36.1-867.3-35.5-863.2-37.5-860.2z"/>
				<path class="st4" d="M49.8-860.2l-79.2,121.8c-4.5,6.9-13.6,8.8-20.5,4.4c-6.9-4.5-8.8-13.6-4.4-20.5c0.3-0.4,0.6-0.9,0.9-1.3
					L38-868.6c2.5-3.1,7-3.6,10.1-1.1C51.1-867.3,51.7-863.2,49.8-860.2z"/>
				<path class="st4" d="M-138.8-873.7l-15.6,30.9c-2.7,5.4-9.3,7.6-14.8,4.9c-5.4-2.7-7.6-9.3-4.9-14.8c0.5-1.1,1.3-2.1,2.1-2.9
					l24.6-24.4c2.1-2.1,5.5-2.1,7.5,0C-138.1-878.2-137.8-875.7-138.8-873.7z"/>
				<path class="st4" d="M92.5-866.7L83-848.9c-1.8,3.4-6.1,4.7-9.5,2.9s-4.7-6.1-2.9-9.5c0.4-0.7,0.9-1.4,1.5-1.9l15.1-13.4
					c1.4-1.2,3.6-1.1,4.8,0.3C93-869.5,93.1-867.9,92.5-866.7z"/>
			</g>
		</g>
	</g>
	<g>
		<g class="st2">
			<path d="M-187.2-422.8c-1.5-1.5-3.3-2.6-5.4-3.5c-2.1-0.9-4.3-1.3-6.6-1.3c-7.3,0-14.1,2.8-20.4,8.3c-2.6-5.2-6.7-7.7-12.1-7.7
				c-4.9,0-8.7,2.3-11.3,6.9c-0.4,0.7-0.7,1.3-1,2s-0.4,1.4-0.5,2.3s-0.1,1.9-0.2,3.2c-0.1,1.3-0.1,2.9-0.1,4.9v59.7v3
				c0,4.4,1.2,7.9,3.7,10.6c2.4,2.7,5.7,4.1,9.6,4.1c4,0,7.1-1.3,9.4-4c2.3-2.6,3.5-6.2,3.7-10.7v-3v-40.7c0-4.4,0.4-7.5,1.3-9.3
				c0.9-1.8,2.3-2.8,4.5-2.8c1.5,0,3.2,0.6,5.2,1.8c2.5,1.5,4.3,2.4,5.3,2.8s2.4,0.6,4.3,0.6c4.4,0,8.1-1.5,11.2-4.6
				c3.1-3,4.7-6.7,4.7-11.1c0-2.2-0.5-4.4-1.4-6.3C-184.4-419.6-185.6-421.3-187.2-422.8z"/>
			<path d="M-158.7-426.9c-3.8,0-6.9,1.3-9.3,4c-2.4,2.6-3.6,6.2-3.8,10.7v3v61.3v3c0,4.4,1.2,7.9,3.7,10.6c2.4,2.7,5.7,4.1,9.6,4.1
				c3.8,0,6.9-1.3,9.3-4c2.4-2.6,3.6-6.2,3.8-10.7v-3v-61.3v-3c0-4.4-1.2-7.9-3.7-10.6C-151.5-425.6-154.7-426.9-158.7-426.9z"/>
			<path d="M-281.9-470c-3.8,0-6.9,1.3-9.3,4c-2.4,2.6-3.6,6.2-3.8,10.7v3v33.9c-4.1-3.1-8.2-5.4-12.4-6.9c-4.2-1.4-8.8-2.2-14-2.2
				c-6.5,0-12.5,1.3-17.9,3.8c-5.5,2.5-10.2,5.9-14.3,10.3c-4,4.4-7.2,9.5-9.5,15.5c-2.3,5.9-3.5,12.4-3.5,19.2
				c0,7,1.2,13.5,3.5,19.5s5.5,11.2,9.5,15.6c4,4.4,8.9,7.8,14.5,10.2s11.7,3.7,18.3,3.7c5.6,0,10.4-0.8,14.5-2.3s8.3-4.1,12.5-7.8
				c2.2,6.3,6.4,9.4,12.5,9.4c2.4,0,4.5-0.5,6.3-1.5c1.8-1,3.3-2.4,4.4-4.3c0.8-1.3,1.3-2.8,1.6-4.4c0.3-1.6,0.4-4,0.4-7.1v-104.7
				v-3c0-4.4-1.2-7.9-3.7-10.6C-274.7-468.7-277.9-470-281.9-470z M-296.1-370c-1.2,2.7-2.8,5.1-4.8,7.2c-2,2.1-4.3,3.7-7,4.9
				c-2.7,1.2-5.6,1.8-8.6,1.8c-3.2,0-6.1-0.6-8.8-1.8c-2.7-1.2-5.1-2.8-7-4.9c-2-2.1-3.6-4.5-4.8-7.2c-1.2-2.7-1.8-5.7-1.8-8.9
				c0-3.1,0.6-5.9,1.8-8.6c1.2-2.7,2.8-5,4.9-7c2-2,4.4-3.6,7.1-4.8c2.7-1.2,5.6-1.8,8.6-1.8s5.9,0.6,8.6,1.8c2.7,1.2,5.1,2.8,7,4.8
				c2,2,3.6,4.4,4.8,7.1c1.2,2.7,1.8,5.6,1.8,8.7S-294.9-372.8-296.1-370z"/>
			<path d="M14.7-355.9h-25.1l67.2-103.4c2-3,1.4-7.2-1.5-9.5c-3.1-2.5-7.6-2-10.1,1.1l-34.3,42.2h-46c-4,0-7.2,1.1-9.7,3.3
				c-2.5,2.2-3.8,5.1-3.8,8.8c0,3.6,1.2,6.4,3.7,8.6c2.4,2.2,5.7,3.3,9.8,3.5h26.4L-46.3-355c-0.3,0.4-0.6,0.8-0.9,1.3
				c-4.5,6.9-2.5,16,4.4,20.5c4.1,2.6,8.9,3,13.1,1.5h44.4c4,0,7.2-1.1,9.6-3.4c2.4-2.2,3.7-5.2,3.7-8.7s-1.2-6.4-3.6-8.6
				C22-354.7,18.8-355.8,14.7-355.9z"/>
			<path d="M251.9-373.7c-1.7-3.3-4.2-5.5-7.5-6.7c-3.4-1.1-6.8-0.8-10.2,0.9c-1.3,0.7-2.4,1.5-3.3,2.4c-0.9,1-1.8,2.4-2.7,4.1
				c-1.5,3-3.1,5.4-4.9,7.2c-1.8,1.9-3.9,3.4-6.3,4.6c-4.9,2.4-9.9,3-15.2,1.6l30.7-37.1c2.7-3.4,4.4-6.4,5-8.8c0.6-2.5,0.3-5-1-7.6
				c-2-3.9-4.9-7.1-8.7-9.6c-3.8-2.5-8.2-4.3-12.9-5.3c-4.8-1-9.8-1.2-15.1-0.5c-5.3,0.7-10.3,2.2-15,4.5c-5.9,3-10.9,6.9-14.9,11.8
				c-4.1,4.9-7.1,10.3-9,16.3c-2,5.9-2.8,12.1-2.5,18.5s2,12.6,4.9,18.5c3,5.9,6.9,10.9,12,15.1c5,4.1,10.6,7.2,16.6,9.2
				s12.3,2.9,18.8,2.6s12.7-1.9,18.6-4.9c4.3-2.1,8.2-4.9,11.8-8.2c3.6-3.4,6.5-7.1,8.6-11.1c2-3.7,3.2-6.9,3.6-9.7
				C253.6-368.6,253.2-371.2,251.9-373.7z M186.2-373.5c-2.1-5.3-2.1-10.6-0.1-15.9s5.6-9.2,10.8-11.8c4.8-2.4,9.2-2.5,12.9-0.3
				L186.2-373.5z"/>
			<path d="M136.1-469.9c-4,0-7.1,1.3-9.5,4c-2.4,2.6-3.6,6.2-3.8,10.7v3V-348v3c0,4.4,1.2,7.9,3.7,10.6c2.4,2.7,5.7,4.1,9.6,4.1
				c4.2,0,7.5-1.4,9.8-4.2c2.3-2.8,3.4-6.7,3.3-11.7v-1.8v-105.5v-1.8c0-4.4-1.2-7.9-3.6-10.6C143.2-468.6,140.1-469.9,136.1-469.9z
				"/>
			<path d="M-72.2-355.9h-25.5l67.2-103.4c2-3,1.4-7.2-1.5-9.5c-3.1-2.5-7.6-2-10.1,1.1l-34.2,42.2H-122c-4,0-7.2,1.1-9.7,3.3
				c-2.5,2.2-3.8,5.1-3.8,8.8c0,3.6,1.2,6.4,3.7,8.6c2.4,2.2,5.7,3.3,9.8,3.5h26.1l-37.6,46.3c-0.3,0.4-0.6,0.8-0.9,1.3
				c-4.5,6.9-2.5,16,4.4,20.5c4.1,2.6,8.9,3,13.1,1.5h44.7c4,0,7.2-1.1,9.6-3.4c2.4-2.2,3.7-5.2,3.7-8.7s-1.2-6.4-3.6-8.6
				C-64.8-354.7-68.1-355.8-72.2-355.9z"/>
			<path d="M101.5-355.9H74.3l11.9-15.5l24.4-31.9c2.2-3,3.4-5.8,3.4-8.3c0-4.2-1.5-7.6-4.5-10.1c-2.6-2.3-6.1-3.5-10.3-3.7l0,0
				h-1.6h-3.4H51.6c-4,0-7.2,1.1-9.7,3.3c-2.5,2.2-3.8,5.1-3.8,8.8c0,3.6,1.2,6.4,3.7,8.6c2.4,2.2,5.7,3.3,9.8,3.5h24l-9.5,12.3l0,0
				l-24.7,32.1c-1.2,1.6-2.2,3-3,4.1s-1.4,2.1-1.8,2.9s-0.7,1.6-0.8,2.3c-0.1,0.7-0.2,1.6-0.2,2.5c0,2.2,0.7,4.5,2.1,6.8
				c1.4,2.3,3.1,4,5.2,5c1.3,0.7,2.6,1.1,3.8,1.3c1,0.2,2.4,0.3,3.9,0.3l0,0h0.7h4.3h45.7c4,0,7.2-1.1,9.6-3.4
				c2.4-2.2,3.7-5.2,3.7-8.7s-1.2-6.4-3.6-8.6C108.9-354.7,105.6-355.8,101.5-355.9z"/>
			<path d="M-132.7-479c-2.1-2.1-5.4-2.1-7.5,0l-24.6,24.4c-0.8,0.8-1.5,1.8-2.1,2.9c-2.7,5.4-0.5,12,4.9,14.8
				c5.4,2.7,12,0.5,14.8-4.9l15.6-30.9C-130.7-474.9-131-477.4-132.7-479z"/>
			<path d="M78.6-447.2c3.4,1.8,7.7,0.5,9.5-2.9l9.5-17.8c0.6-1.2,0.5-2.8-0.5-3.9c-1.2-1.4-3.4-1.5-4.8-0.3l-15.1,13.4
				c-0.6,0.5-1.1,1.2-1.5,1.9C73.8-453.2,75.1-449,78.6-447.2z"/>
		</g>
		<g>
			<g>
				<path class="st3" d="M-194.2-429.5c-1.5-1.5-3.3-2.6-5.4-3.5c-2.1-0.9-4.3-1.3-6.6-1.3c-7.3,0-14.1,2.8-20.4,8.3
					c-2.6-5.2-6.7-7.7-12.1-7.7c-4.9,0-8.7,2.3-11.3,6.9c-0.4,0.7-0.7,1.3-1,2s-0.4,1.4-0.5,2.3s-0.1,1.9-0.2,3.2
					c-0.1,1.3-0.1,2.9-0.1,4.9v59.7v3c0,4.4,1.2,7.9,3.7,10.6c2.4,2.7,5.7,4.1,9.6,4.1c4,0,7.1-1.3,9.4-4c2.3-2.6,3.5-6.2,3.7-10.7
					v-3v-40.7c0-4.4,0.4-7.5,1.3-9.3c0.9-1.8,2.3-2.8,4.5-2.8c1.5,0,3.2,0.6,5.2,1.8c2.5,1.5,4.3,2.4,5.3,2.8s2.4,0.6,4.3,0.6
					c4.4,0,8.1-1.5,11.2-4.6c3.1-3,4.7-6.7,4.7-11.1c0-2.2-0.5-4.4-1.4-6.3C-191.4-426.4-192.7-428.1-194.2-429.5z"/>
				<path class="st3" d="M-165.7-433.7c-3.8,0-6.9,1.3-9.3,4c-2.4,2.6-3.6,6.2-3.8,10.7v3v61.3v3c0,4.4,1.2,7.9,3.7,10.6
					c2.4,2.7,5.7,4.1,9.6,4.1c3.8,0,6.9-1.3,9.3-4c2.4-2.6,3.6-6.2,3.8-10.7v-3V-416v-3c0-4.4-1.2-7.9-3.7-10.6
					C-158.5-432.3-161.7-433.7-165.7-433.7z"/>
				<path class="st3" d="M-81.5-432.3H-129c-4,0-7.2,1.1-9.7,3.3c-2.5,2.2-3.8,5.1-3.8,8.8c0,3.6,1.2,6.4,3.7,8.6
					c2.4,2.2,5.7,3.3,9.8,3.5h29L-81.5-432.3z"/>
				<path class="st3" d="M-288.9-476.8c-3.8,0-6.9,1.3-9.3,4c-2.4,2.6-3.6,6.2-3.8,10.7v3v33.9c-4.1-3.1-8.2-5.4-12.4-6.9
					c-4.2-1.4-8.8-2.2-14-2.2c-6.5,0-12.5,1.3-17.9,3.8c-5.5,2.5-10.2,5.9-14.3,10.3c-4,4.4-7.2,9.5-9.5,15.5
					c-2.3,5.9-3.5,12.4-3.5,19.2c0,7,1.2,13.5,3.5,19.5s5.5,11.2,9.5,15.6c4,4.4,8.9,7.8,14.5,10.2s11.7,3.7,18.3,3.7
					c5.6,0,10.4-0.8,14.5-2.3s8.3-4.1,12.5-7.8c2.2,6.3,6.4,9.4,12.5,9.4c2.4,0,4.5-0.5,6.3-1.5c1.8-1,3.3-2.4,4.4-4.3
					c0.8-1.3,1.3-2.8,1.6-4.4c0.3-1.6,0.4-4,0.4-7.1v-104.7v-3c0-4.4-1.2-7.9-3.7-10.6C-281.7-475.4-284.9-476.8-288.9-476.8z
					 M-303.2-376.8c-1.2,2.7-2.8,5.1-4.8,7.2s-4.3,3.7-7,4.9c-2.7,1.2-5.6,1.8-8.6,1.8c-3.2,0-6.1-0.6-8.8-1.8
					c-2.7-1.2-5.1-2.8-7-4.9c-2-2.1-3.6-4.5-4.8-7.2c-1.2-2.7-1.8-5.7-1.8-8.9c0-3.1,0.6-5.9,1.8-8.6c1.2-2.7,2.8-5,4.9-7
					c2-2,4.4-3.6,7.1-4.8c2.7-1.2,5.6-1.8,8.6-1.8s5.9,0.6,8.6,1.8c2.7,1.2,5.1,2.8,7,4.8c2,2,3.6,4.4,4.8,7.1
					c1.2,2.7,1.8,5.6,1.8,8.7S-302-379.5-303.2-376.8z"/>
				<path class="st3" d="M94.5-362.7H67.3l11.9-15.5l24.4-31.9c2.2-3,3.4-5.8,3.4-8.3c0-4.2-1.5-7.6-4.5-10.1
					c-2.6-2.3-6.1-3.5-10.3-3.7l0,0h-1.6h-3.4H44.6c-4,0-7.2,1.1-9.7,3.3c-2.5,2.2-3.8,5.1-3.8,8.8c0,3.6,1.2,6.4,3.7,8.6
					c2.4,2.2,5.7,3.3,9.8,3.5h24l-9.5,12.3l0,0l-24.7,32.1c-1.2,1.6-2.2,3-3,4.1c-0.8,1.1-1.4,2.1-1.8,2.9s-0.7,1.6-0.8,2.3
					c-0.1,0.7-0.2,1.6-0.2,2.5c0,2.2,0.7,4.5,2.1,6.8c1.4,2.3,3.1,4,5.2,5c1.3,0.7,2.6,1.1,3.8,1.3c1,0.2,2.4,0.3,3.9,0.3l0,0h0.7
					h4.3h45.7c4,0,7.2-1.1,9.6-3.4c2.4-2.2,3.7-5.2,3.7-8.7s-1.2-6.4-3.6-8.6C101.9-361.4,98.6-362.6,94.5-362.7z"/>
				<path class="st3" d="M244.9-380.5c-1.7-3.3-4.2-5.5-7.5-6.7c-3.4-1.1-6.8-0.8-10.2,0.9c-1.3,0.7-2.4,1.5-3.3,2.4
					c-0.9,1-1.8,2.4-2.7,4.1c-1.5,3-3.1,5.4-4.9,7.2c-1.8,1.9-3.9,3.4-6.3,4.6c-4.9,2.4-9.9,3-15.2,1.6l30.7-37.1
					c2.7-3.4,4.4-6.4,5-8.8c0.6-2.5,0.3-5-1-7.6c-2-3.9-4.9-7.1-8.7-9.6c-3.8-2.5-8.2-4.3-12.9-5.3c-4.8-1-9.8-1.2-15.1-0.5
					c-5.3,0.7-10.3,2.2-15,4.5c-5.9,3-10.9,6.9-14.9,11.8c-4.1,4.9-7.1,10.3-9,16.3c-2,5.9-2.8,12.1-2.5,18.5s2,12.6,4.9,18.5
					c3,5.9,6.9,10.9,12,15.1c5,4.1,10.6,7.2,16.6,9.2s12.3,2.9,18.8,2.6s12.7-1.9,18.6-4.9c4.3-2.1,8.2-4.9,11.8-8.2
					c3.6-3.4,6.5-7.1,8.6-11.1c2-3.7,3.2-6.9,3.6-9.7C246.6-375.4,246.2-378,244.9-380.5z M179.2-380.2c-2.1-5.3-2.1-10.6-0.1-15.9
					c2-5.3,5.6-9.2,10.8-11.8c4.8-2.4,9.2-2.5,12.9-0.3L179.2-380.2z"/>
				<path class="st3" d="M-79.2-362.7h-30.2l-18.5,24.2h48.7c4,0,7.2-1.1,9.6-3.4c2.4-2.2,3.7-5.2,3.7-8.7s-1.2-6.4-3.6-8.6
					C-71.9-361.4-75.1-362.6-79.2-362.7z"/>
				<path class="st3" d="M129.1-476.7c-4,0-7.1,1.3-9.5,4c-2.4,2.6-3.6,6.2-3.8,10.7v3v104.3v3c0,4.4,1.2,7.9,3.7,10.6
					c2.4,2.7,5.7,4.1,9.6,4.1c4.2,0,7.5-1.4,9.8-4.2c2.3-2.8,3.4-6.7,3.3-11.7v-1.8v-105.5v-1.8c0-4.4-1.2-7.9-3.6-10.6
					C136.2-475.3,133-476.7,129.1-476.7z"/>
				<path class="st3" d="M7.7-362.7h-30.2l-18.6,24.2H7.6c4,0,7.2-1.1,9.6-3.4c2.4-2.2,3.7-5.2,3.7-8.7s-1.2-6.4-3.6-8.6
					C15-361.4,11.8-362.6,7.7-362.7z"/>
				<path class="st3" d="M5.4-432.3h-47.5c-4,0-7.2,1.1-9.7,3.3c-2.5,2.2-3.8,5.1-3.8,8.8c0,3.6,1.2,6.4,3.7,8.6
					c2.4,2.2,5.7,3.3,9.8,3.5h29L5.4-432.3z"/>
			</g>
		</g>
		<g>
			<g>
				<path class="st4" d="M-37.5-466.1l-79.1,121.8c-4.5,6.9-13.6,8.8-20.5,4.4c-6.9-4.4-8.8-13.6-4.4-20.5c0.3-0.4,0.6-0.9,0.9-1.3
					l91.5-112.9c2.5-3.1,7-3.6,10.1-1.1C-36.1-473.3-35.5-469.2-37.5-466.1z"/>
				<path class="st4" d="M49.8-466.1l-79.2,121.8c-4.5,6.9-13.6,8.8-20.5,4.4c-6.9-4.5-8.8-13.6-4.4-20.5c0.3-0.4,0.6-0.9,0.9-1.3
					L38-474.5c2.5-3.1,7-3.6,10.1-1.1C51.1-473.3,51.7-469.2,49.8-466.1z"/>
				<path class="st4" d="M-138.8-479.7l-15.6,30.9c-2.7,5.4-9.3,7.6-14.8,4.9c-5.4-2.7-7.6-9.3-4.9-14.8c0.5-1.1,1.3-2.1,2.1-2.9
					l24.6-24.4c2.1-2.1,5.5-2.1,7.5,0C-138.1-484.1-137.8-481.6-138.8-479.7z"/>
				<path class="st4" d="M92.5-472.7L83-454.9c-1.8,3.4-6.1,4.7-9.5,2.9c-3.4-1.8-4.7-6.1-2.9-9.5c0.4-0.7,0.9-1.4,1.5-1.9
					l15.1-13.4c1.4-1.2,3.6-1.1,4.8,0.3C93-475.4,93.1-473.9,92.5-472.7z"/>
			</g>
		</g>
	</g>
	<g>
		<path class="st5" d="M650.2-823.6c-1.5-1.5-3.3-2.6-5.4-3.5c-2.1-0.9-4.3-1.3-6.6-1.3c-7.3,0-14.1,2.8-20.4,8.3
			c-2.6-5.2-6.7-7.7-12.1-7.7c-4.9,0-8.7,2.3-11.3,6.9c-0.4,0.7-0.7,1.3-1,2s-0.4,1.4-0.5,2.3c-0.1,0.9-0.1,1.9-0.2,3.2
			c-0.1,1.3-0.1,2.9-0.1,4.9v59.7v3c0,4.4,1.2,7.9,3.7,10.6c2.4,2.7,5.7,4.1,9.6,4.1c4,0,7.1-1.3,9.4-4c2.3-2.6,3.5-6.2,3.7-10.7v-3
			v-40.7c0-4.4,0.4-7.5,1.3-9.3c0.9-1.8,2.3-2.8,4.5-2.8c1.5,0,3.2,0.6,5.2,1.8c2.5,1.5,4.3,2.4,5.3,2.8c1,0.4,2.4,0.6,4.3,0.6
			c4.4,0,8.1-1.5,11.2-4.6c3.1-3,4.7-6.7,4.7-11.1c0-2.2-0.5-4.4-1.4-6.3C653-820.4,651.7-822.1,650.2-823.6z"/>
		<path class="st5" d="M678.7-827.8c-3.8,0-6.9,1.3-9.3,4c-2.4,2.6-3.6,6.2-3.8,10.7v3v61.3v3c0,4.4,1.2,7.9,3.7,10.6
			c2.4,2.7,5.7,4.1,9.6,4.1c3.8,0,6.9-1.3,9.3-4c2.4-2.6,3.6-6.2,3.8-10.7v-3v-61.3v-3c0-4.4-1.2-7.9-3.7-10.6
			C685.9-826.4,682.7-827.8,678.7-827.8z"/>
		<g>
			<path class="st5" d="M762.9-826.4h-47.5c-4,0-7.2,1.1-9.7,3.3s-3.8,5.1-3.8,8.8c0,3.6,1.2,6.4,3.7,8.6c2.4,2.2,5.7,3.3,9.8,3.5
				h29L762.9-826.4z"/>
			<path class="st5" d="M555.5-870.8c-3.8,0-6.9,1.3-9.3,4c-2.4,2.6-3.6,6.2-3.8,10.7v3v33.9c-4.1-3.1-8.2-5.4-12.4-6.9
				c-4.2-1.4-8.8-2.2-14-2.2c-6.5,0-12.5,1.3-17.9,3.8c-5.5,2.5-10.2,5.9-14.3,10.3c-4,4.4-7.2,9.5-9.5,15.5
				c-2.3,5.9-3.5,12.4-3.5,19.2c0,7,1.2,13.5,3.5,19.5s5.5,11.2,9.5,15.6c4,4.4,8.9,7.8,14.5,10.2s11.7,3.7,18.3,3.7
				c5.6,0,10.4-0.8,14.5-2.3s8.3-4.1,12.5-7.8c2.2,6.3,6.4,9.4,12.5,9.4c2.4,0,4.5-0.5,6.3-1.5s3.3-2.4,4.4-4.3
				c0.8-1.3,1.3-2.8,1.6-4.4c0.3-1.6,0.4-4,0.4-7.1v-104.7v-3c0-4.4-1.2-7.9-3.7-10.6C562.7-869.5,559.5-870.8,555.5-870.8z
				 M541.2-770.9c-1.2,2.7-2.8,5.1-4.8,7.2c-2,2.1-4.3,3.7-7,4.9s-5.6,1.8-8.6,1.8c-3.2,0-6.1-0.6-8.8-1.8s-5.1-2.8-7-4.9
				c-2-2.1-3.6-4.5-4.8-7.2s-1.8-5.7-1.8-8.9c0-3.1,0.6-5.9,1.8-8.6c1.2-2.7,2.8-5,4.9-7c2-2,4.4-3.6,7.1-4.8
				c2.7-1.2,5.6-1.8,8.6-1.8s5.9,0.6,8.6,1.8c2.7,1.2,5.1,2.8,7,4.8c2,2,3.6,4.4,4.8,7.1c1.2,2.7,1.8,5.6,1.8,8.7
				S542.4-773.6,541.2-770.9z"/>
			<path class="st5" d="M938.9-756.8h-27.2l11.9-15.5l24.4-31.9c2.2-3,3.4-5.8,3.4-8.3c0-4.2-1.5-7.6-4.5-10.1
				c-2.6-2.3-6.1-3.5-10.3-3.7l0,0H935h-3.4H889c-4,0-7.2,1.1-9.7,3.3s-3.8,5.1-3.8,8.8c0,3.6,1.2,6.4,3.7,8.6
				c2.4,2.2,5.7,3.3,9.8,3.5h24l-9.5,12.3l0,0l-24.7,32.1c-1.2,1.6-2.2,3-3,4.1s-1.4,2.1-1.8,2.9c-0.4,0.8-0.7,1.6-0.8,2.3
				s-0.2,1.6-0.2,2.5c0,2.2,0.7,4.5,2.1,6.8c1.4,2.3,3.1,4,5.2,5c1.3,0.7,2.6,1.1,3.8,1.3c1,0.2,2.4,0.3,3.9,0.3l0,0h0.7h4.3h45.7
				c4,0,7.2-1.1,9.6-3.4c2.4-2.2,3.7-5.2,3.7-8.7s-1.2-6.4-3.6-8.6C946.3-755.5,943-756.6,938.9-756.8z"/>
			<path class="st5" d="M1089.3-774.5c-1.7-3.3-4.2-5.5-7.5-6.7c-3.4-1.1-6.8-0.8-10.2,0.9c-1.3,0.7-2.4,1.5-3.3,2.4
				c-0.9,1-1.8,2.4-2.7,4.1c-1.5,3-3.1,5.4-4.9,7.2c-1.8,1.9-3.9,3.4-6.3,4.6c-4.9,2.4-9.9,3-15.2,1.6l30.7-37.1
				c2.7-3.4,4.4-6.4,5-8.8c0.6-2.5,0.3-5-1-7.6c-2-3.9-4.9-7.1-8.7-9.6c-3.8-2.5-8.2-4.3-12.9-5.3c-4.8-1-9.8-1.2-15.1-0.5
				c-5.3,0.7-10.3,2.2-15,4.5c-5.9,3-10.9,6.9-14.9,11.8c-4.1,4.9-7.1,10.3-9,16.3c-2,5.9-2.8,12.1-2.5,18.5s2,12.6,4.9,18.5
				c3,5.9,6.9,10.9,12,15.1c5,4.1,10.6,7.2,16.6,9.2c6,2,12.3,2.9,18.8,2.6c6.5-0.3,12.7-1.9,18.6-4.9c4.3-2.1,8.2-4.9,11.8-8.2
				c3.6-3.4,6.5-7.1,8.6-11.1c2-3.7,3.2-6.9,3.6-9.7C1091-769.4,1090.6-772.1,1089.3-774.5z M1023.6-774.3
				c-2.1-5.3-2.1-10.6-0.1-15.9c2-5.3,5.6-9.2,10.8-11.8c4.8-2.4,9.2-2.5,12.9-0.3L1023.6-774.3z"/>
			<path class="st5" d="M765.2-756.8H735l-18.5,24.2h48.7c4,0,7.2-1.1,9.6-3.4c2.4-2.2,3.7-5.2,3.7-8.7s-1.2-6.4-3.6-8.6
				C772.5-755.5,769.3-756.6,765.2-756.8z"/>
			<path class="st5" d="M973.5-870.8c-4,0-7.1,1.3-9.5,4c-2.4,2.6-3.6,6.2-3.8,10.7v3v104.3v3c0,4.4,1.2,7.9,3.7,10.6
				c2.4,2.7,5.7,4.1,9.6,4.1c4.2,0,7.5-1.4,9.8-4.2s3.4-6.7,3.3-11.7v-1.8v-105.5v-1.8c0-4.4-1.2-7.9-3.6-10.6
				C980.6-869.4,977.4-870.8,973.5-870.8z"/>
			<path class="st5" d="M852.1-756.8h-30.2l-18.5,24.2h48.7c4,0,7.2-1.1,9.6-3.4c2.4-2.2,3.7-5.2,3.7-8.7s-1.2-6.4-3.6-8.6
				C859.4-755.5,856.2-756.6,852.1-756.8z"/>
			<path class="st5" d="M849.8-826.4h-47.5c-4,0-7.2,1.1-9.7,3.3s-3.8,5.1-3.8,8.8c0,3.6,1.2,6.4,3.7,8.6c2.4,2.2,5.7,3.3,9.8,3.5
				h29L849.8-826.4z"/>
		</g>
	</g>
	<g>
		<g>
			<path class="st6" d="M806.9-860.2l-79.1,121.8c-4.5,6.9-13.6,8.8-20.5,4.4c-6.9-4.5-8.8-13.6-4.4-20.5c0.3-0.4,0.6-0.9,0.9-1.3
				l91.4-112.8c2.5-3.1,7-3.6,10.1-1.1C808.3-867.3,808.9-863.2,806.9-860.2z"/>
			<path class="st6" d="M894.2-860.2l-79.1,121.8c-4.5,6.9-13.6,8.8-20.5,4.4c-6.9-4.5-8.8-13.6-4.4-20.5c0.3-0.4,0.6-0.9,0.9-1.3
				l91.4-112.8c2.5-3.1,7-3.6,10.1-1.1C895.5-867.3,896.1-863.2,894.2-860.2z"/>
			<path class="st6" d="M705.7-873.7l-15.6,30.9c-2.7,5.4-9.3,7.6-14.8,4.9c-5.4-2.7-7.6-9.3-4.9-14.8c0.5-1.1,1.3-2.1,2.1-2.9
				l24.6-24.4c2.1-2.1,5.5-2.1,7.5,0C706.3-878.2,706.7-875.7,705.7-873.7z"/>
			<path class="st6" d="M936.9-866.7l-9.5,17.8c-1.8,3.4-6.1,4.7-9.5,2.9s-4.7-6.1-2.9-9.5c0.4-0.7,0.9-1.4,1.5-1.9l15.1-13.4
				c1.4-1.2,3.6-1.1,4.8,0.3C937.4-869.5,937.5-867.9,936.9-866.7z"/>
		</g>
	</g>
	<g>
		<path class="st7" d="M-54.5-100.7l-1.1,2c-0.2,0.4-0.7,0.5-1.1,0.3c-0.4-0.2-0.5-0.7-0.3-1.1c0-0.1,0.1-0.2,0.2-0.2l1.7-1.5
			c0.2-0.1,0.4-0.1,0.5,0C-54.4-101-54.4-100.8-54.5-100.7z"/>
		<path class="st7" d="M-60.9-100.1c-0.4,0-0.8,0.1-1,0.4c-0.3,0.3-0.4,0.7-0.4,1.2v0.3v3.8c-0.5-0.4-0.9-0.6-1.4-0.8
			c-0.5-0.2-1-0.2-1.6-0.2c-0.7,0-1.4,0.1-2,0.4c-0.6,0.3-1.2,0.7-1.6,1.2c-0.5,0.5-0.8,1.1-1.1,1.7c-0.3,0.7-0.4,1.4-0.4,2.2
			c0,0.8,0.1,1.5,0.4,2.2c0.3,0.7,0.6,1.3,1.1,1.7c0.5,0.5,1,0.9,1.6,1.1c0.6,0.3,1.3,0.4,2.1,0.4c0.6,0,1.2-0.1,1.6-0.3
			c0.5-0.2,0.9-0.5,1.4-0.9c0.3,0.7,0.7,1.1,1.4,1.1c0.3,0,0.5-0.1,0.7-0.2c0.2-0.1,0.4-0.3,0.5-0.5c0.1-0.1,0.1-0.3,0.2-0.5
			c0-0.2,0-0.4,0-0.8v-11.5v-0.3c0-0.5-0.1-0.9-0.4-1.2S-60.5-100.1-60.9-100.1z M-62.5-88.9c-0.1,0.3-0.3,0.6-0.5,0.8
			s-0.5,0.4-0.8,0.6c-0.3,0.1-0.6,0.2-1,0.2s-0.7-0.1-1-0.2s-0.6-0.3-0.8-0.6c-0.2-0.2-0.4-0.5-0.5-0.8c-0.1-0.3-0.2-0.6-0.2-1
			c0-0.3,0.1-0.7,0.2-1c0.1-0.3,0.3-0.6,0.5-0.8c0.2-0.2,0.5-0.4,0.8-0.5s0.6-0.2,1-0.2c0.3,0,0.7,0.1,1,0.2
			c0.3,0.1,0.6,0.3,0.8,0.5c0.2,0.2,0.4,0.5,0.5,0.8c0.1,0.3,0.2,0.6,0.2,1C-62.3-89.5-62.4-89.2-62.5-88.9z"/>
		<path class="st3" d="M-61.7-100.9c-0.4,0-0.8,0.1-1,0.4c-0.3,0.3-0.4,0.7-0.4,1.2v0.3v3.8c-0.5-0.4-0.9-0.6-1.4-0.8
			c-0.5-0.2-1-0.2-1.6-0.2c-0.7,0-1.4,0.1-2,0.4c-0.6,0.3-1.2,0.7-1.6,1.2c-0.5,0.6-0.9,1.2-1.1,1.8c-0.3,0.7-0.4,1.4-0.4,2.2
			c0,0.8,0.1,1.5,0.4,2.2c0.3,0.7,0.6,1.3,1.1,1.7c0.5,0.5,1,0.9,1.6,1.1c0.6,0.3,1.3,0.4,2.1,0.4c0.6,0,1.2-0.1,1.6-0.3
			c0.5-0.2,0.9-0.5,1.4-0.9c0.3,0.7,0.7,1.1,1.4,1.1c0.3,0,0.5-0.1,0.7-0.2c0.2-0.1,0.4-0.3,0.5-0.5c0.1-0.1,0.1-0.3,0.2-0.5
			c0-0.2,0-0.4,0-0.8v-11.6v-0.3c0-0.5-0.1-0.9-0.4-1.2C-60.9-100.7-61.3-100.9-61.7-100.9z M-63.3-89.6c-0.1,0.3-0.3,0.6-0.5,0.8
			c-0.2,0.2-0.5,0.4-0.8,0.6c-0.3,0.1-0.6,0.2-1,0.2c-0.4,0-0.7-0.1-1-0.2c-0.3-0.1-0.6-0.3-0.8-0.6c-0.2-0.2-0.4-0.5-0.5-0.8
			c-0.1-0.3-0.2-0.6-0.2-1c0-0.3,0.1-0.7,0.2-1c0.1-0.3,0.3-0.6,0.5-0.8c0.2-0.2,0.5-0.4,0.8-0.5c0.3-0.1,0.6-0.2,1-0.2
			c0.3,0,0.7,0.1,1,0.2c0.3,0.1,0.6,0.3,0.8,0.5c0.2,0.2,0.4,0.5,0.5,0.8c0.1,0.3,0.2,0.6,0.2,1C-63.1-90.3-63.2-89.9-63.3-89.6z"/>
		<path class="st7" d="M-50.8-87.3h-2.9l4.5-8.6c0.2-0.3,0.2-0.8-0.2-1.1c-0.3-0.3-0.9-0.2-1.1,0.1l-0.8,1.7h-5.1
			c-0.4,0-0.8,0.1-1.1,0.4c-0.3,0.2-0.4,0.6-0.4,1c0,0.4,0.1,0.7,0.4,1c0.3,0.2,0.6,0.4,1.1,0.4h2.9l-4.2,5.2l-0.1,0.1
			c-0.5,0.8-0.3,1.8,0.5,2.3c0.5,0.3,1,0.3,1.5,0.2h5c0.4,0,0.8-0.1,1.1-0.4c0.3-0.3,0.4-0.6,0.4-1s-0.1-0.7-0.4-1
			C-50-87.2-50.3-87.3-50.8-87.3z"/>
		<path class="st3" d="M-51.9-95.9h-5.3c-0.4,0-0.8,0.1-1.1,0.4c-0.3,0.2-0.4,0.6-0.4,1s0.1,0.7,0.4,1c0.3,0.2,0.6,0.4,1.1,0.4h3.3
			L-51.9-95.9z"/>
		<path class="st3" d="M-51.6-88.1H-55l-2.1,2.7h5.5c0.4,0,0.8-0.1,1.1-0.4c0.3-0.3,0.4-0.6,0.4-1c0-0.4-0.1-0.7-0.4-1
			C-50.8-87.9-51.1-88-51.6-88.1z"/>
		<g>
			<g>
				<path class="st4" d="M-49.9-96.7L-55.8-86c-0.5,0.8-1.5,1-2.3,0.5s-1-1.5-0.5-2.3l0.1-0.1l7.3-9.7c0.3-0.4,0.8-0.4,1.1-0.1
					C-49.8-97.5-49.7-97-49.9-96.7z"/>
			</g>
		</g>
		<path class="st4" d="M-55-101.1l-1.1,2c-0.2,0.4-0.7,0.5-1.1,0.3c-0.4-0.2-0.5-0.7-0.3-1.1c0-0.1,0.1-0.2,0.2-0.2l1.7-1.4
			c0.2-0.1,0.4-0.1,0.5,0C-55-101.4-54.9-101.2-55-101.1z"/>
	</g>
	<g id="_x35_DyI3k.tif">
		
			<image style="overflow:visible;enable-background:new    ;" width="801" height="601" id="Layer_0_1_" xlink:href="D4D93411EE8ADE5D.png"  transform="matrix(0.9986 0 0 0.9986 119.8455 -1849.9058)">
		</image>
	</g>
	<g id="xhHMYq.tif">
		
			<image style="overflow:visible;enable-background:new    ;" width="801" height="601" id="Layer_0_2_" xlink:href="D4D93411EE8ADE63.png"  transform="matrix(0.9986 0 0 0.9986 1291.3142 -1731.4868)">
		</image>
	</g>
	<g id="Layer_4">
		<g class="st8">
			<path class="st3" d="M560.1-479l-1.5,83.7c0,1.4-1.2,2.5-2.5,2.5s-2.4-1.1-2.5-2.5l-1.5-83.7c0-2.2,1.7-4,3.9-4.1
				c2.2,0,4,1.7,4.1,3.9C560.1-479.1,560.1-479.1,560.1-479z"/>
		</g>
		<g class="st8">
			<path class="st3" d="M601.8-370.6l1.7-54.5c0-1.3,1.1-2.3,2.4-2.3c1.2,0,2.2,1,2.3,2.3l1.7,54.5c0.1,2.2-1.7,4.1-3.9,4.1
				c-2.2,0.1-4.1-1.7-4.1-3.9C601.8-370.5,601.8-370.5,601.8-370.6z"/>
		</g>
		<line class="st9" x1="977.7" y1="-474.9" x2="977.7" y2="-375.8"/>
	</g>
	<rect x="262.4" class="st0" width="247.7" height="248"/>
	<circle class="st0" cx="123.2" cy="122.9" r="122.6"/>
</g>
<g id="Layer_2_1_">
	<g>
		<path class="st7" d="M172.5,49.8L163,67.1c-1.7,3.5-6,4.3-9.5,2.6s-4.3-6-2.6-9.5c0-0.9,0.9-1.7,1.7-1.7l14.7-13
			c1.7-0.9,3.5-0.9,4.3,0C173.4,47.2,173.4,49,172.5,49.8z"/>
		<path class="st7" d="M117.2,55c-3.5,0-6.9,0.9-8.6,3.5c-2.6,2.6-3.5,6-3.5,10.4v2.6v32.8c-4.3-3.5-7.8-5.2-12.1-6.9
			s-8.6-1.7-13.8-1.7c-6,0-12.1,0.9-17.3,3.5c-5.2,2.6-10.4,6-13.8,10.4c-4.3,4.3-6.9,9.5-9.5,14.7c-2.6,6-3.5,12.1-3.5,19
			c0,6.9,0.9,13,3.5,19c2.6,6,5.2,11.2,9.5,14.7c4.3,4.3,8.6,7.8,13.8,9.5c5.2,2.6,11.2,3.5,18.1,3.5c5.2,0,10.4-0.9,13.8-2.6
			c4.3-1.7,7.8-4.3,12.1-7.8c2.6,6,6,9.5,12.1,9.5c2.6,0,4.3-0.9,6-1.7s3.5-2.6,4.3-4.3c0.9-0.9,0.9-2.6,1.7-4.3c0-1.7,0-3.5,0-6.9
			V72.3v-2.6c0-4.3-0.9-7.8-3.5-10.4C124.2,56.7,120.7,55,117.2,55z M103.4,151.7c-0.9,2.6-2.6,5.2-4.3,6.9
			c-1.7,1.7-4.3,3.5-6.9,5.2c-2.6,0.9-5.2,1.7-8.6,1.7c-3.5,0-6-0.9-8.6-1.7c-2.6-0.9-5.2-2.6-6.9-5.2c-1.7-1.7-3.5-4.3-4.3-6.9
			c-0.9-2.6-1.7-5.2-1.7-8.6c0-2.6,0.9-6,1.7-8.6c0.9-2.6,2.6-5.2,4.3-6.9c1.7-1.7,4.3-3.5,6.9-4.3c2.6-0.9,5.2-1.7,8.6-1.7
			c2.6,0,6,0.9,8.6,1.7c2.6,0.9,5.2,2.6,6.9,4.3c1.7,1.7,3.5,4.3,4.3,6.9c0.9,2.6,1.7,5.2,1.7,8.6S104.3,149.1,103.4,151.7z"/>
		<path class="st3" d="M110.3,48.1c-3.5,0-6.9,0.9-8.6,3.5c-2.6,2.6-3.5,6-3.5,10.4v2.6v32.8c-4.3-3.5-7.8-5.2-12.1-6.9
			s-8.6-1.7-13.8-1.7c-6,0-12.1,0.9-17.3,3.5s-10.4,6-13.8,10.4c-4.3,5.2-7.8,10.4-9.5,15.5c-2.6,6-3.5,12.1-3.5,19
			c0,6.9,0.9,13,3.5,19s5.2,11.2,9.5,14.7c4.3,4.3,8.6,7.8,13.8,9.5c5.2,2.6,11.2,3.5,18.1,3.5c5.2,0,10.4-0.9,13.8-2.6
			c4.3-1.7,7.8-4.3,12.1-7.8c2.6,6,6,9.5,12.1,9.5c2.6,0,4.3-0.9,6-1.7s3.5-2.6,4.3-4.3c0.9-0.9,0.9-2.6,1.7-4.3c0-1.7,0-3.5,0-6.9
			V65.4v-2.6c0-4.3-0.9-7.8-3.5-10.4C117.2,49.8,113.8,48.1,110.3,48.1z M96.5,145.7c-0.9,2.6-2.6,5.2-4.3,6.9
			c-1.7,1.7-4.3,3.5-6.9,5.2c-2.6,0.9-5.2,1.7-8.6,1.7c-3.5,0-6-0.9-8.6-1.7s-5.2-2.6-6.9-5.2c-1.7-1.7-3.5-4.3-4.3-6.9
			s-1.7-5.2-1.7-8.6c0-2.6,0.9-6,1.7-8.6c0.9-2.6,2.6-5.2,4.3-6.9c1.7-1.7,4.3-3.5,6.9-4.3c2.6-0.9,5.2-1.7,8.6-1.7
			c2.6,0,6,0.9,8.6,1.7s5.2,2.6,6.9,4.3c1.7,1.7,3.5,4.3,4.3,6.9c0.9,2.6,1.7,5.2,1.7,8.6C98.2,139.6,97.4,143.1,96.5,145.7z"/>
		<path class="st7" d="M204.5,165.5h-25l38.9-74.3c1.7-2.6,1.7-6.9-1.7-9.5c-2.6-2.6-7.8-1.7-9.5,0.9l-6.9,14.7h-44
			c-3.5,0-6.9,0.9-9.5,3.5c-2.6,1.7-3.5,5.2-3.5,8.6c0,3.5,0.9,6,3.5,8.6c2.6,1.7,5.2,3.5,9.5,3.5h25l-36.3,44.9l-0.9,0.9
			c-4.3,6.9-2.6,15.5,4.3,19.9c4.3,2.6,8.6,2.6,13,1.7h43.2c3.5,0,6.9-0.9,9.5-3.5c2.6-2.6,3.5-5.2,3.5-8.6c0-3.5-0.9-6-3.5-8.6
			C211.4,166.4,208.8,165.5,204.5,165.5z"/>
		<path class="st3" d="M195,91.3h-45.8c-3.5,0-6.9,0.9-9.5,3.5c-2.6,1.7-3.5,5.2-3.5,8.6c0,3.5,0.9,6,3.5,8.6
			c2.6,1.7,5.2,3.5,9.5,3.5h28.5L195,91.3z"/>
		<path class="st3" d="M197.6,158.6h-29.4l-18.1,23.3h47.5c3.5,0,6.9-0.9,9.5-3.5c2.6-2.6,3.5-5.2,3.5-8.6s-0.9-6-3.5-8.6
			C204.5,160.4,201.9,159.5,197.6,158.6z"/>
		<g>
			<g>
				<path class="st4" d="M212.2,84.4l-50.9,92.4c-4.3,6.9-13,8.6-19.9,4.3c-6.9-4.3-8.6-13-4.3-19.9l0.9-0.9l63-83.8
					c2.6-3.5,6.9-3.5,9.5-0.9C213.1,77.5,214,81.8,212.2,84.4z"/>
			</g>
		</g>
		<path class="st4" d="M168.2,46.4l-9.5,17.3c-1.7,3.5-6,4.3-9.5,2.6c-3.5-1.7-4.3-6-2.6-9.5c0-0.9,0.9-1.7,1.7-1.7L163,42.9
			c1.7-0.9,3.5-0.9,4.3,0S169.1,45.5,168.2,46.4z"/>
	</g>
</g>
</svg>
