<?xml version="1.0" encoding="utf-8"?>
<!-- Generator: Adobe Illustrator 20.1.0, SVG Export Plug-In . SVG Version: 6.00 Build 0)  -->
<!DOCTYPE svg PUBLIC "-//W3C//DTD SVG 1.1//EN" "http://www.w3.org/Graphics/SVG/1.1/DTD/svg11.dtd">
<svg version="1.1" xmlns="http://www.w3.org/2000/svg" xmlns:xlink="http://www.w3.org/1999/xlink" x="0px" y="0px" width="795.9px"
	 height="357.5px" viewBox="0 0 795.9 357.5" style="enable-background:new 0 0 795.9 357.5;" xml:space="preserve">
<style type="text/css">
	.st0{display:none;}
	.st1{display:inline;fill:#23C9A9;}
	.st2{opacity:0.12;fill:#FFFFFF;}
	.st3{opacity:0.1;}
	.st4{fill:#FFFFFF;}
	.st5{fill:#B7F9EC;}
	.st6{fill:#495054;}
	.st7{fill:#70797C;}
	.st8{opacity:0.2;}
	.st9{opacity:0.2;fill:none;stroke:#FFFFFF;stroke-width:6;stroke-linecap:round;stroke-linejoin:round;}
</style>
<g id="Layer_2" class="st0">
	<rect y="-394.1" class="st1" width="795.9" height="357.5"/>
	<rect class="st1" width="795.9" height="357.5"/>
	<rect x="331.9" y="429.3" class="st1" width="132" height="132"/>
</g>
<g id="Layer_3">
	<path class="st2" d="M422.9-341.7l-41.2,61c-1.5,2.3-4.7,2.9-6.9,1.3c-2.3-1.5-2.9-4.7-1.3-6.9c0.1-0.1,0.1-0.2,0.2-0.3l45.3-58
		c0.8-1.1,2.3-1.2,3.4-0.4C423.4-344.2,423.6-342.7,422.9-341.7z"/>
	<path class="st2" d="M386.1-82.5l-41.2,61c-1.5,2.3-4.7,2.9-6.9,1.3c-2.3-1.5-2.9-4.7-1.3-6.9c0.1-0.1,0.1-0.2,0.2-0.3l45.3-58
		c0.8-1.1,2.3-1.2,3.4-0.4C386.6-85,386.8-83.5,386.1-82.5z"/>
	<path class="st2" d="M744.3-317l-41.2,61c-1.5,2.3-4.7,2.9-6.9,1.3c-2.3-1.5-2.9-4.7-1.3-6.9c0.1-0.1,0.1-0.2,0.2-0.3l45.3-58
		c0.8-1.1,2.3-1.2,3.4-0.4C744.8-319.5,745-318.1,744.3-317z"/>
	<path class="st2" d="M534-380.3l-51,74.5c-1.6,2.3-4.7,2.9-7,1.3c-2.3-1.6-2.9-4.7-1.3-7c0.1-0.1,0.1-0.2,0.2-0.2l55.1-71.5
		c0.8-1.1,2.3-1.3,3.4-0.4C534.5-382.8,534.8-381.4,534-380.3z"/>
	<path class="st2" d="M796.6-308.2l-51,74.5c-1.6,2.3-4.7,2.9-7,1.3c-2.3-1.6-2.9-4.7-1.3-7c0.1-0.1,0.1-0.2,0.2-0.2l55.1-71.5
		c0.8-1.1,2.3-1.3,3.4-0.4C797.1-310.7,797.4-309.2,796.6-308.2z"/>
	<path class="st2" d="M156.2-436.7l-51,74.5c-1.6,2.3-4.7,2.9-7,1.3c-2.3-1.6-2.9-4.7-1.3-7c0.1-0.1,0.1-0.2,0.2-0.2l55.1-71.5
		c0.8-1.1,2.3-1.3,3.4-0.4C156.7-439.2,156.9-437.8,156.2-436.7z"/>
	<path class="st2" d="M253.6-330.5l-51,74.5c-1.6,2.3-4.7,2.9-7,1.3c-2.3-1.6-2.9-4.7-1.3-7c0.1-0.1,0.1-0.2,0.2-0.2l55.1-71.5
		c0.8-1.1,2.3-1.3,3.4-0.4C254.1-333,254.3-331.6,253.6-330.5z"/>
	<path class="st2" d="M639-159.3l-51,74.5c-1.6,2.3-4.7,2.9-7,1.3c-2.3-1.6-2.9-4.7-1.3-7c0.1-0.1,0.1-0.2,0.2-0.2l55.1-71.5
		c0.8-1.1,2.3-1.3,3.4-0.4C639.5-161.8,639.7-160.3,639-159.3z"/>
	<path class="st2" d="M114.3-426.9l-51,74.5c-1.6,2.3-4.7,2.9-7,1.3c-2.3-1.6-2.9-4.7-1.3-7c0.1-0.1,0.1-0.2,0.2-0.2l55.1-71.5
		c0.8-1.1,2.3-1.3,3.4-0.4C114.8-429.4,115-428,114.3-426.9z"/>
	<path class="st2" d="M313.5-372.2l-15.3,25.4c-1.4,2.4-4.5,3.1-6.9,1.7s-3.1-4.5-1.7-6.9c0.1-0.2,0.3-0.5,0.5-0.7l19.5-22.4
		c0.9-1,2.4-1.1,3.4-0.2C313.9-374.5,314.1-373.2,313.5-372.2z"/>
	<path class="st2" d="M647.8-356l-15.3,25.4c-1.4,2.4-4.5,3.1-6.9,1.7c-2.4-1.4-3.1-4.5-1.7-6.9c0.1-0.2,0.3-0.5,0.5-0.7l19.5-22.4
		c0.9-1,2.4-1.1,3.4-0.2C648.2-358.3,648.4-357,647.8-356z"/>
	<path class="st2" d="M72.3-134.9L57-109.5c-1.4,2.4-4.5,3.1-6.9,1.7c-2.4-1.4-3.1-4.5-1.7-6.9c0.1-0.2,0.3-0.5,0.5-0.7l19.5-22.4
		c0.9-1,2.4-1.1,3.4-0.2C72.7-137.2,72.9-135.9,72.3-134.9z"/>
	<path class="st2" d="M116.1-299.4L100.8-274c-1.4,2.4-4.5,3.1-6.9,1.7c-2.4-1.4-3.1-4.5-1.7-6.9c0.1-0.2,0.3-0.5,0.5-0.7l19.5-22.4
		c0.9-1,2.4-1.1,3.4-0.2C116.5-301.7,116.7-300.4,116.1-299.4z"/>
	<path class="st2" d="M740-95.8l-26.4,40.7c-1.5,2.3-4.6,3-6.9,1.5c-2.3-1.5-3-4.6-1.5-6.9c0.1-0.1,0.2-0.3,0.3-0.4l30.6-37.7
		c0.8-1,2.4-1.2,3.4-0.4C740.4-98.2,740.6-96.8,740-95.8z"/>
	<path class="st2" d="M262.2-150.1l-26.4,40.7c-1.5,2.3-4.6,3-6.9,1.5c-2.3-1.5-3-4.6-1.5-6.9c0.1-0.1,0.2-0.3,0.3-0.4l30.6-37.7
		c0.8-1,2.4-1.2,3.4-0.4C262.7-152.5,262.9-151.1,262.2-150.1z"/>
</g>
<g id="Layer_1">
	<g>
		<g class="st3">
			<path d="M270.9-229.5c-1.5-1.5-3.3-2.6-5.4-3.5c-2.1-0.9-4.3-1.3-6.6-1.3c-7.3,0-14.1,2.8-20.4,8.3c-2.6-5.2-6.7-7.7-12.1-7.7
				c-4.9,0-8.7,2.3-11.3,6.9c-0.4,0.7-0.7,1.3-1,2c-0.3,0.7-0.4,1.4-0.5,2.3c-0.1,0.9-0.1,1.9-0.2,3.2c-0.1,1.3-0.1,2.9-0.1,4.9
				v59.7v3c0,4.4,1.2,7.9,3.7,10.6c2.4,2.7,5.7,4.1,9.6,4.1c4,0,7.1-1.3,9.4-4c2.3-2.6,3.5-6.2,3.7-10.7v-3v-40.7
				c0-4.4,0.4-7.5,1.3-9.3c0.9-1.8,2.3-2.8,4.5-2.8c1.5,0,3.2,0.6,5.2,1.8c2.5,1.5,4.3,2.4,5.3,2.8c1,0.4,2.4,0.6,4.3,0.6
				c4.4,0,8.1-1.5,11.2-4.6c3.1-3,4.7-6.7,4.7-11.1c0-2.2-0.5-4.4-1.4-6.3C273.6-226.3,272.4-228,270.9-229.5z"/>
			<path d="M299.3-233.7c-3.8,0-6.9,1.3-9.3,4c-2.4,2.6-3.6,6.2-3.8,10.7v3v61.3v3c0,4.4,1.2,7.9,3.7,10.6c2.4,2.7,5.7,4.1,9.6,4.1
				c3.8,0,6.9-1.3,9.3-4c2.4-2.6,3.6-6.2,3.8-10.7v-3V-216v-3c0-4.4-1.2-7.9-3.7-10.6C306.5-232.3,303.3-233.7,299.3-233.7z"/>
			<path d="M176.2-276.7c-3.8,0-6.9,1.3-9.3,4c-2.4,2.6-3.6,6.2-3.8,10.7v3v33.9c-4.1-3.1-8.2-5.4-12.4-6.9c-4.2-1.4-8.8-2.2-14-2.2
				c-6.5,0-12.5,1.3-17.9,3.8c-5.5,2.5-10.2,5.9-14.3,10.3c-4,4.4-7.2,9.5-9.5,15.5c-2.3,5.9-3.5,12.4-3.5,19.2
				c0,7,1.2,13.5,3.5,19.5c2.3,6,5.5,11.2,9.5,15.6c4,4.4,8.9,7.8,14.5,10.2c5.6,2.4,11.7,3.7,18.3,3.7c5.6,0,10.4-0.8,14.5-2.3
				c4.1-1.5,8.3-4.1,12.5-7.8c2.2,6.3,6.4,9.4,12.5,9.4c2.4,0,4.5-0.5,6.3-1.5c1.8-1,3.3-2.4,4.4-4.3c0.8-1.3,1.3-2.8,1.6-4.4
				c0.3-1.6,0.4-4,0.4-7.1v-104.7v-3c0-4.4-1.2-7.9-3.7-10.6C183.3-275.4,180.1-276.7,176.2-276.7z M161.9-176.8
				c-1.2,2.7-2.8,5.1-4.8,7.2c-2,2.1-4.3,3.7-7,4.9c-2.7,1.2-5.6,1.8-8.6,1.8c-3.2,0-6.1-0.6-8.8-1.8c-2.7-1.2-5.1-2.8-7-4.9
				c-2-2.1-3.6-4.5-4.8-7.2c-1.2-2.7-1.8-5.7-1.8-8.9c0-3.1,0.6-5.9,1.8-8.6c1.2-2.7,2.8-5,4.9-7c2-2,4.4-3.6,7.1-4.8
				c2.7-1.2,5.6-1.8,8.6-1.8c3,0,5.9,0.6,8.6,1.8c2.7,1.2,5.1,2.8,7,4.8c2,2,3.6,4.4,4.8,7.1c1.2,2.7,1.8,5.6,1.8,8.7
				S163.1-179.5,161.9-176.8z"/>
			<path d="M472.7-162.7h-25.1l67.2-103.4c2-3,1.4-7.2-1.5-9.5c-3.1-2.5-7.6-2-10.1,1.1L469-232.3h-46c-4,0-7.2,1.1-9.7,3.3
				c-2.5,2.2-3.8,5.1-3.8,8.8c0,3.6,1.2,6.4,3.7,8.6c2.4,2.2,5.7,3.3,9.8,3.5h26.4l-37.6,46.4c-0.3,0.4-0.6,0.8-0.9,1.3
				c-4.5,6.9-2.5,16,4.4,20.5c4.1,2.6,8.9,3,13.1,1.5h44.4c4,0,7.2-1.1,9.6-3.4c2.4-2.2,3.7-5.2,3.7-8.7s-1.2-6.4-3.6-8.6
				C480-161.4,476.8-162.5,472.7-162.7z"/>
			<path d="M710-180.4c-1.7-3.3-4.2-5.5-7.5-6.7c-3.4-1.1-6.8-0.8-10.2,0.9c-1.3,0.7-2.4,1.5-3.3,2.4c-0.9,1-1.8,2.4-2.7,4.1
				c-1.5,3-3.1,5.4-4.9,7.2c-1.8,1.9-3.9,3.4-6.3,4.6c-4.9,2.4-9.9,3-15.2,1.6l30.7-37.1c2.7-3.4,4.4-6.4,5-8.8c0.6-2.5,0.3-5-1-7.6
				c-2-3.9-4.9-7.1-8.7-9.6c-3.8-2.5-8.2-4.3-12.9-5.3c-4.8-1-9.8-1.2-15.1-0.5c-5.3,0.7-10.3,2.2-15,4.5c-5.9,3-10.9,6.9-14.9,11.8
				c-4.1,4.9-7.1,10.3-9,16.3c-2,5.9-2.8,12.1-2.5,18.5c0.3,6.4,2,12.6,4.9,18.5c3,5.9,6.9,10.9,12,15.1c5,4.1,10.6,7.2,16.6,9.2
				c6,2,12.3,2.9,18.8,2.6c6.5-0.3,12.7-1.9,18.6-4.9c4.3-2.1,8.2-4.9,11.8-8.2c3.6-3.4,6.5-7.1,8.6-11.1c2-3.7,3.2-6.9,3.6-9.7
				C711.6-175.3,711.2-178,710-180.4z M644.2-180.2c-2.1-5.3-2.1-10.6-0.1-15.9c2-5.3,5.6-9.2,10.8-11.8c4.8-2.4,9.2-2.5,12.9-0.3
				L644.2-180.2z"/>
			<path d="M594.1-276.7c-4,0-7.1,1.3-9.5,4c-2.4,2.6-3.6,6.2-3.8,10.7v3v104.3v3c0,4.4,1.2,7.9,3.7,10.6c2.4,2.7,5.7,4.1,9.6,4.1
				c4.2,0,7.5-1.4,9.8-4.2c2.3-2.8,3.4-6.7,3.3-11.7v-1.8v-105.5v-1.8c0-4.4-1.2-7.9-3.6-10.6C601.3-275.3,598.1-276.7,594.1-276.7z
				"/>
			<path d="M385.9-162.7h-25.5l67.2-103.4c2-3,1.4-7.2-1.5-9.5c-3.1-2.5-7.6-2-10.1,1.1l-34.2,42.2h-45.7c-4,0-7.2,1.1-9.7,3.3
				c-2.5,2.2-3.8,5.1-3.8,8.8c0,3.6,1.2,6.4,3.7,8.6c2.4,2.2,5.7,3.3,9.8,3.5h26.1l-37.6,46.4c-0.3,0.4-0.6,0.8-0.9,1.3
				c-4.5,6.9-2.5,16,4.4,20.5c4.1,2.6,8.9,3,13.1,1.5h44.8c4,0,7.2-1.1,9.6-3.4c2.4-2.2,3.7-5.2,3.7-8.7s-1.2-6.4-3.6-8.6
				C393.2-161.4,389.9-162.5,385.9-162.7z"/>
			<path d="M559.6-162.7h-27.2l11.9-15.5l24.4-31.9c2.2-3,3.4-5.8,3.4-8.3c0-4.2-1.5-7.6-4.5-10.1c-2.6-2.3-6.1-3.5-10.3-3.7l0,0
				h-1.6h-3.4h-42.6c-4,0-7.2,1.1-9.7,3.3c-2.5,2.2-3.8,5.1-3.8,8.8c0,3.6,1.2,6.4,3.7,8.6c2.4,2.2,5.7,3.3,9.8,3.5h24l-9.5,12.3
				l0,0l-24.7,32.1c-1.2,1.6-2.2,3-3,4.1c-0.8,1.1-1.4,2.1-1.8,2.9c-0.4,0.8-0.7,1.6-0.8,2.3c-0.1,0.7-0.2,1.6-0.2,2.5
				c0,2.2,0.7,4.5,2.1,6.8c1.4,2.3,3.1,4,5.2,5c1.3,0.7,2.6,1.1,3.8,1.3c1,0.2,2.4,0.3,3.9,0.3l0,0h0.7h4.3h45.7
				c4,0,7.2-1.1,9.6-3.4c2.4-2.2,3.7-5.2,3.7-8.7s-1.2-6.4-3.6-8.6C566.9-161.4,563.7-162.5,559.6-162.7z"/>
			<path d="M325.3-285.8c-2.1-2.1-5.4-2.1-7.5,0l-24.6,24.4c-0.8,0.8-1.5,1.8-2.1,2.9c-2.7,5.4-0.5,12,4.9,14.8
				c5.4,2.7,12,0.5,14.8-4.9l15.6-30.9C327.3-281.6,327-284.1,325.3-285.8z"/>
			<path d="M536.6-253.9c3.4,1.8,7.7,0.5,9.5-2.9l9.5-17.8c0.6-1.2,0.5-2.8-0.5-3.9c-1.2-1.4-3.4-1.5-4.8-0.3l-15.1,13.4
				c-0.6,0.5-1.1,1.2-1.5,1.9C531.9-259.9,533.2-255.7,536.6-253.9z"/>
		</g>
		<g>
			<g>
				<path class="st4" d="M263.8-236.3c-1.5-1.5-3.3-2.6-5.4-3.5c-2.1-0.9-4.3-1.3-6.6-1.3c-7.3,0-14.1,2.8-20.4,8.3
					c-2.6-5.2-6.7-7.7-12.1-7.7c-4.9,0-8.7,2.3-11.3,6.9c-0.4,0.7-0.7,1.3-1,2c-0.3,0.7-0.4,1.4-0.5,2.3c-0.1,0.9-0.1,1.9-0.2,3.2
					c-0.1,1.3-0.1,2.9-0.1,4.9v59.7v3c0,4.4,1.2,7.9,3.7,10.6c2.4,2.7,5.7,4.1,9.6,4.1c4,0,7.1-1.3,9.4-4c2.3-2.6,3.5-6.2,3.7-10.7
					v-3v-40.7c0-4.4,0.4-7.5,1.3-9.3c0.9-1.8,2.3-2.8,4.5-2.8c1.5,0,3.2,0.6,5.2,1.8c2.5,1.5,4.3,2.4,5.3,2.8c1,0.4,2.4,0.6,4.3,0.6
					c4.4,0,8.1-1.5,11.2-4.6c3.1-3,4.7-6.7,4.7-11.1c0-2.2-0.5-4.4-1.4-6.3C266.6-233.1,265.4-234.8,263.8-236.3z"/>
				<path class="st4" d="M292.3-240.4c-3.8,0-6.9,1.3-9.3,4c-2.4,2.6-3.6,6.2-3.8,10.7v3v61.3v3c0,4.4,1.2,7.9,3.7,10.6
					c2.4,2.7,5.7,4.1,9.6,4.1c3.8,0,6.9-1.3,9.3-4c2.4-2.6,3.6-6.2,3.8-10.7v-3v-61.3v-3c0-4.4-1.2-7.9-3.7-10.6
					C299.5-239.1,296.3-240.4,292.3-240.4z"/>
				<path class="st4" d="M376.5-239H329c-4,0-7.2,1.1-9.7,3.3c-2.5,2.2-3.8,5.1-3.8,8.8c0,3.6,1.2,6.4,3.7,8.6
					c2.4,2.2,5.7,3.3,9.8,3.5h29L376.5-239z"/>
				<path class="st4" d="M169.1-283.5c-3.8,0-6.9,1.3-9.3,4c-2.4,2.6-3.6,6.2-3.8,10.7v3v33.9c-4.1-3.1-8.2-5.4-12.4-6.9
					c-4.2-1.4-8.8-2.2-14-2.2c-6.5,0-12.5,1.3-17.9,3.8c-5.5,2.5-10.2,5.9-14.3,10.3c-4,4.4-7.2,9.5-9.5,15.5
					c-2.3,5.9-3.5,12.4-3.5,19.2c0,7,1.2,13.5,3.5,19.5c2.3,6,5.5,11.2,9.5,15.6c4,4.4,8.9,7.8,14.5,10.2c5.6,2.4,11.7,3.7,18.3,3.7
					c5.6,0,10.4-0.8,14.5-2.3c4.1-1.5,8.3-4.1,12.5-7.8c2.2,6.3,6.4,9.4,12.5,9.4c2.4,0,4.5-0.5,6.3-1.5c1.8-1,3.3-2.4,4.4-4.3
					c0.8-1.3,1.3-2.8,1.6-4.4c0.3-1.6,0.4-4,0.4-7.1v-104.7v-3c0-4.4-1.2-7.9-3.7-10.6C176.3-282.1,173.1-283.5,169.1-283.5z
					 M154.9-183.5c-1.2,2.7-2.8,5.1-4.8,7.2c-2,2.1-4.3,3.7-7,4.9c-2.7,1.2-5.6,1.8-8.6,1.8c-3.2,0-6.1-0.6-8.8-1.8
					c-2.7-1.2-5.1-2.8-7-4.9c-2-2.1-3.6-4.5-4.8-7.2c-1.2-2.7-1.8-5.7-1.8-8.9c0-3.1,0.6-5.9,1.8-8.6c1.2-2.7,2.8-5,4.9-7
					c2-2,4.4-3.6,7.1-4.8c2.7-1.2,5.6-1.8,8.6-1.8c3,0,5.9,0.6,8.6,1.8c2.7,1.2,5.1,2.8,7,4.8c2,2,3.6,4.4,4.8,7.1
					c1.2,2.7,1.8,5.6,1.8,8.7S156.1-186.3,154.9-183.5z"/>
				<path class="st4" d="M552.5-169.4h-27.2l11.9-15.5l24.4-31.9c2.2-3,3.4-5.8,3.4-8.3c0-4.2-1.5-7.6-4.5-10.1
					c-2.6-2.3-6.1-3.5-10.3-3.7l0,0h-1.6h-3.4h-42.6c-4,0-7.2,1.1-9.7,3.3c-2.5,2.2-3.8,5.1-3.8,8.8c0,3.6,1.2,6.4,3.7,8.6
					c2.4,2.2,5.7,3.3,9.8,3.5h24l-9.5,12.3l0,0l-24.7,32.1c-1.2,1.6-2.2,3-3,4.1c-0.8,1.1-1.4,2.1-1.8,2.9c-0.4,0.8-0.7,1.6-0.8,2.3
					c-0.1,0.7-0.2,1.6-0.2,2.5c0,2.2,0.7,4.5,2.1,6.8c1.4,2.3,3.1,4,5.2,5c1.3,0.7,2.6,1.1,3.8,1.3c1,0.2,2.4,0.3,3.9,0.3l0,0h0.7
					h4.3h45.7c4,0,7.2-1.1,9.6-3.4c2.4-2.2,3.7-5.2,3.7-8.7s-1.2-6.4-3.6-8.6C559.9-168.1,556.6-169.3,552.5-169.4z"/>
				<path class="st4" d="M702.9-187.2c-1.7-3.3-4.2-5.5-7.5-6.7c-3.4-1.1-6.8-0.8-10.2,0.9c-1.3,0.7-2.4,1.5-3.3,2.4
					c-0.9,1-1.8,2.4-2.7,4.1c-1.5,3-3.1,5.4-4.9,7.2c-1.8,1.9-3.9,3.4-6.3,4.6c-4.9,2.4-9.9,3-15.2,1.6l30.7-37.1
					c2.7-3.4,4.4-6.4,5-8.8c0.6-2.5,0.3-5-1-7.6c-2-3.9-4.9-7.1-8.7-9.6c-3.8-2.5-8.2-4.3-12.9-5.3c-4.8-1-9.8-1.2-15.1-0.5
					c-5.3,0.7-10.3,2.2-15,4.5c-5.9,3-10.9,6.9-14.9,11.8c-4.1,4.9-7.1,10.3-9,16.3c-2,5.9-2.8,12.1-2.5,18.5
					c0.3,6.4,2,12.6,4.9,18.5c3,5.9,6.9,10.9,12,15.1c5,4.1,10.6,7.2,16.6,9.2c6,2,12.3,2.9,18.8,2.6c6.5-0.3,12.7-1.9,18.6-4.9
					c4.3-2.1,8.2-4.9,11.8-8.2c3.6-3.4,6.5-7.1,8.6-11.1c2-3.7,3.2-6.9,3.6-9.7C704.6-182.1,704.2-184.7,702.9-187.2z M637.2-186.9
					c-2.1-5.3-2.1-10.6-0.1-15.9c2-5.3,5.6-9.2,10.8-11.8c4.8-2.4,9.2-2.5,12.9-0.3L637.2-186.9z"/>
				<path class="st4" d="M378.8-169.4h-30.2l-18.5,24.2h48.7c4,0,7.2-1.1,9.6-3.4c2.4-2.2,3.7-5.2,3.7-8.7s-1.2-6.4-3.6-8.6
					C386.2-168.1,382.9-169.3,378.8-169.4z"/>
				<path class="st4" d="M587.1-283.4c-4,0-7.1,1.3-9.5,4c-2.4,2.6-3.6,6.2-3.8,10.7v3v104.3v3c0,4.4,1.2,7.9,3.7,10.6
					c2.4,2.7,5.7,4.1,9.6,4.1c4.2,0,7.5-1.4,9.8-4.2c2.3-2.8,3.4-6.7,3.3-11.7v-1.8V-267v-1.8c0-4.4-1.2-7.9-3.6-10.6
					C594.2-282.1,591.1-283.4,587.1-283.4z"/>
				<path class="st4" d="M465.7-169.4h-30.2L417-145.2h48.7c4,0,7.2-1.1,9.6-3.4c2.4-2.2,3.7-5.2,3.7-8.7s-1.2-6.4-3.6-8.6
					C473-168.1,469.8-169.3,465.7-169.4z"/>
				<path class="st4" d="M463.4-239h-47.5c-4,0-7.2,1.1-9.7,3.3c-2.5,2.2-3.8,5.1-3.8,8.8c0,3.6,1.2,6.4,3.7,8.6
					c2.4,2.2,5.7,3.3,9.8,3.5h29L463.4-239z"/>
			</g>
		</g>
		<g>
			<g>
				<path class="st5" d="M420.5-272.8l-79.1,121.8c-4.5,6.9-13.6,8.8-20.5,4.4s-8.8-13.6-4.4-20.5c0.3-0.4,0.6-0.9,0.9-1.3
					l91.4-112.8c2.5-3.1,7-3.6,10.1-1.1C421.9-280,422.5-275.9,420.5-272.8z"/>
				<path class="st5" d="M507.8-272.8l-79.1,121.8c-4.5,6.9-13.6,8.8-20.5,4.4c-6.9-4.5-8.8-13.6-4.4-20.5c0.3-0.4,0.6-0.9,0.9-1.3
					l91.4-112.8c2.5-3.1,7-3.6,10.1-1.1C509.2-280,509.7-275.9,507.8-272.8z"/>
				<path class="st5" d="M319.3-286.4l-15.6,30.9c-2.7,5.4-9.3,7.6-14.8,4.9c-5.4-2.7-7.6-9.3-4.9-14.8c0.5-1.1,1.3-2.1,2.1-2.9
					l24.6-24.4c2.1-2.1,5.5-2.1,7.5,0C320-290.8,320.3-288.4,319.3-286.4z"/>
				<path class="st5" d="M550.5-279.4l-9.5,17.8c-1.8,3.4-6.1,4.7-9.5,2.9c-3.4-1.8-4.7-6.1-2.9-9.5c0.4-0.7,0.9-1.4,1.5-1.9
					l15.1-13.4c1.4-1.2,3.6-1.1,4.8,0.3C551-282.1,551.2-280.6,550.5-279.4z"/>
			</g>
		</g>
	</g>
	<g>
		<g class="st3">
			<path d="M270.9,164.6c-1.5-1.5-3.3-2.6-5.4-3.5c-2.1-0.9-4.3-1.3-6.6-1.3c-7.3,0-14.1,2.8-20.4,8.3c-2.6-5.2-6.7-7.7-12.1-7.7
				c-4.9,0-8.7,2.3-11.3,6.9c-0.4,0.7-0.7,1.3-1,2c-0.3,0.7-0.4,1.4-0.5,2.3c-0.1,0.9-0.1,1.9-0.2,3.2c-0.1,1.3-0.1,2.9-0.1,4.9
				v59.7v3c0,4.4,1.2,7.9,3.7,10.6c2.4,2.7,5.7,4.1,9.6,4.1c4,0,7.1-1.3,9.4-4c2.3-2.6,3.5-6.2,3.7-10.7v-3v-40.7
				c0-4.4,0.4-7.5,1.3-9.3c0.9-1.8,2.3-2.8,4.5-2.8c1.5,0,3.2,0.6,5.2,1.8c2.5,1.5,4.3,2.4,5.3,2.8c1,0.4,2.4,0.6,4.3,0.6
				c4.4,0,8.1-1.5,11.2-4.6c3.1-3,4.7-6.7,4.7-11.1c0-2.2-0.5-4.4-1.4-6.3C273.6,167.7,272.4,166,270.9,164.6z"/>
			<path d="M299.3,160.4c-3.8,0-6.9,1.3-9.3,4c-2.4,2.6-3.6,6.2-3.8,10.7v3v61.3v3c0,4.4,1.2,7.9,3.7,10.6c2.4,2.7,5.7,4.1,9.6,4.1
				c3.8,0,6.9-1.3,9.3-4c2.4-2.6,3.6-6.2,3.8-10.7v-3V178v-3c0-4.4-1.2-7.9-3.7-10.6C306.5,161.8,303.3,160.4,299.3,160.4z"/>
			<path d="M176.2,117.3c-3.8,0-6.9,1.3-9.3,4c-2.4,2.6-3.6,6.2-3.8,10.7v3v33.9c-4.1-3.1-8.2-5.4-12.4-6.9c-4.2-1.4-8.8-2.2-14-2.2
				c-6.5,0-12.5,1.3-17.9,3.8c-5.5,2.5-10.2,5.9-14.3,10.3c-4,4.4-7.2,9.5-9.5,15.5c-2.3,5.9-3.5,12.4-3.5,19.2
				c0,7,1.2,13.5,3.5,19.5c2.3,6,5.5,11.2,9.5,15.6c4,4.4,8.9,7.8,14.5,10.2c5.6,2.4,11.7,3.7,18.3,3.7c5.6,0,10.4-0.8,14.5-2.3
				c4.1-1.5,8.3-4.1,12.5-7.8c2.2,6.3,6.4,9.4,12.5,9.4c2.4,0,4.5-0.5,6.3-1.5c1.8-1,3.3-2.4,4.4-4.3c0.8-1.3,1.3-2.8,1.6-4.4
				c0.3-1.6,0.4-4,0.4-7.1V135v-3c0-4.4-1.2-7.9-3.7-10.6C183.3,118.7,180.1,117.3,176.2,117.3z M161.9,217.3
				c-1.2,2.7-2.8,5.1-4.8,7.2c-2,2.1-4.3,3.7-7,4.9c-2.7,1.2-5.6,1.8-8.6,1.8c-3.2,0-6.1-0.6-8.8-1.8c-2.7-1.2-5.1-2.8-7-4.9
				c-2-2.1-3.6-4.5-4.8-7.2c-1.2-2.7-1.8-5.7-1.8-8.9c0-3.1,0.6-5.9,1.8-8.6c1.2-2.7,2.8-5,4.9-7c2-2,4.4-3.6,7.1-4.8
				c2.7-1.2,5.6-1.8,8.6-1.8c3,0,5.9,0.6,8.6,1.8c2.7,1.2,5.1,2.8,7,4.8c2,2,3.6,4.4,4.8,7.1c1.2,2.7,1.8,5.6,1.8,8.7
				S163.1,214.6,161.9,217.3z"/>
			<path d="M472.7,231.4h-25.1L514.8,128c2-3,1.4-7.2-1.5-9.5c-3.1-2.5-7.6-2-10.1,1.1L469,161.8h-46c-4,0-7.2,1.1-9.7,3.3
				c-2.5,2.2-3.8,5.1-3.8,8.8c0,3.6,1.2,6.4,3.7,8.6c2.4,2.2,5.7,3.3,9.8,3.5h26.4l-37.6,46.4c-0.3,0.4-0.6,0.8-0.9,1.3
				c-4.5,6.9-2.5,16,4.4,20.5c4.1,2.6,8.9,3,13.1,1.5h44.4c4,0,7.2-1.1,9.6-3.4c2.4-2.2,3.7-5.2,3.7-8.7s-1.2-6.4-3.6-8.6
				C480,232.7,476.8,231.5,472.7,231.4z"/>
			<path d="M710,213.6c-1.7-3.3-4.2-5.5-7.5-6.7c-3.4-1.1-6.8-0.8-10.2,0.9c-1.3,0.7-2.4,1.5-3.3,2.4c-0.9,1-1.8,2.4-2.7,4.1
				c-1.5,3-3.1,5.4-4.9,7.2c-1.8,1.9-3.9,3.4-6.3,4.6c-4.9,2.4-9.9,3-15.2,1.6l30.7-37.1c2.7-3.4,4.4-6.4,5-8.8c0.6-2.5,0.3-5-1-7.6
				c-2-3.9-4.9-7.1-8.7-9.6c-3.8-2.5-8.2-4.3-12.9-5.3c-4.8-1-9.8-1.2-15.1-0.5c-5.3,0.7-10.3,2.2-15,4.5c-5.9,3-10.9,6.9-14.9,11.8
				c-4.1,4.9-7.1,10.3-9,16.3c-2,5.9-2.8,12.1-2.5,18.5c0.3,6.4,2,12.6,4.9,18.5c3,5.9,6.9,10.9,12,15.1c5,4.1,10.6,7.2,16.6,9.2
				c6,2,12.3,2.9,18.8,2.6c6.5-0.3,12.7-1.9,18.6-4.9c4.3-2.1,8.2-4.9,11.8-8.2c3.6-3.4,6.5-7.1,8.6-11.1c2-3.7,3.2-6.9,3.6-9.7
				C711.6,218.7,711.2,216.1,710,213.6z M644.2,213.9c-2.1-5.3-2.1-10.6-0.1-15.9c2-5.3,5.6-9.2,10.8-11.8c4.8-2.4,9.2-2.5,12.9-0.3
				L644.2,213.9z"/>
			<path d="M594.1,117.4c-4,0-7.1,1.3-9.5,4c-2.4,2.6-3.6,6.2-3.8,10.7v3v104.3v3c0,4.4,1.2,7.9,3.7,10.6c2.4,2.7,5.7,4.1,9.6,4.1
				c4.2,0,7.5-1.4,9.8-4.2c2.3-2.8,3.4-6.7,3.3-11.7v-1.8V133.9v-1.8c0-4.4-1.2-7.9-3.6-10.6C601.3,118.8,598.1,117.4,594.1,117.4z"
				/>
			<path d="M385.9,231.4h-25.5L427.6,128c2-3,1.4-7.2-1.5-9.5c-3.1-2.5-7.6-2-10.1,1.1l-34.2,42.2h-45.7c-4,0-7.2,1.1-9.7,3.3
				c-2.5,2.2-3.8,5.1-3.8,8.8c0,3.6,1.2,6.4,3.7,8.6c2.4,2.2,5.7,3.3,9.8,3.5h26.1l-37.6,46.4c-0.3,0.4-0.6,0.8-0.9,1.3
				c-4.5,6.9-2.5,16,4.4,20.5c4.1,2.6,8.9,3,13.1,1.5h44.8c4,0,7.2-1.1,9.6-3.4c2.4-2.2,3.7-5.2,3.7-8.7s-1.2-6.4-3.6-8.6
				C393.2,232.7,389.9,231.5,385.9,231.4z"/>
			<path d="M559.6,231.4h-27.2l11.9-15.5l24.4-31.9c2.2-3,3.4-5.8,3.4-8.3c0-4.2-1.5-7.6-4.5-10.1c-2.6-2.3-6.1-3.5-10.3-3.7l0,0
				h-1.6h-3.4h-42.6c-4,0-7.2,1.1-9.7,3.3c-2.5,2.2-3.8,5.1-3.8,8.8c0,3.6,1.2,6.4,3.7,8.6c2.4,2.2,5.7,3.3,9.8,3.5h24l-9.5,12.3
				l0,0l-24.7,32.1c-1.2,1.6-2.2,3-3,4.1c-0.8,1.1-1.4,2.1-1.8,2.9c-0.4,0.8-0.7,1.6-0.8,2.3c-0.1,0.7-0.2,1.6-0.2,2.5
				c0,2.2,0.7,4.5,2.1,6.8c1.4,2.3,3.1,4,5.2,5c1.3,0.7,2.6,1.1,3.8,1.3c1,0.2,2.4,0.3,3.9,0.3l0,0h0.7h4.3h45.7
				c4,0,7.2-1.1,9.6-3.4c2.4-2.2,3.7-5.2,3.7-8.7s-1.2-6.4-3.6-8.6C566.9,232.7,563.7,231.5,559.6,231.4z"/>
			<path d="M325.3,108.3c-2.1-2.1-5.4-2.1-7.5,0l-24.6,24.4c-0.8,0.8-1.5,1.8-2.1,2.9c-2.7,5.4-0.5,12,4.9,14.8
				c5.4,2.7,12,0.5,14.8-4.9l15.6-30.9C327.3,112.5,327,110,325.3,108.3z"/>
			<path d="M536.6,140.2c3.4,1.8,7.7,0.5,9.5-2.9l9.5-17.8c0.6-1.2,0.5-2.8-0.5-3.9c-1.2-1.4-3.4-1.5-4.8-0.3l-15.1,13.4
				c-0.6,0.5-1.1,1.2-1.5,1.9C531.9,134.1,533.2,138.4,536.6,140.2z"/>
		</g>
		<g>
			<g>
				<path class="st4" d="M263.8,157.8c-1.5-1.5-3.3-2.6-5.4-3.5c-2.1-0.9-4.3-1.3-6.6-1.3c-7.3,0-14.1,2.8-20.4,8.3
					c-2.6-5.2-6.7-7.7-12.1-7.7c-4.9,0-8.7,2.3-11.3,6.9c-0.4,0.7-0.7,1.3-1,2c-0.3,0.7-0.4,1.4-0.5,2.3c-0.1,0.9-0.1,1.9-0.2,3.2
					c-0.1,1.3-0.1,2.9-0.1,4.9v59.7v3c0,4.4,1.2,7.9,3.7,10.6c2.4,2.7,5.7,4.1,9.6,4.1c4,0,7.1-1.3,9.4-4c2.3-2.6,3.5-6.2,3.7-10.7
					v-3v-40.7c0-4.4,0.4-7.5,1.3-9.3c0.9-1.8,2.3-2.8,4.5-2.8c1.5,0,3.2,0.6,5.2,1.8c2.5,1.5,4.3,2.4,5.3,2.8c1,0.4,2.4,0.6,4.3,0.6
					c4.4,0,8.1-1.5,11.2-4.6c3.1-3,4.7-6.7,4.7-11.1c0-2.2-0.5-4.4-1.4-6.3C266.6,161,265.4,159.3,263.8,157.8z"/>
				<path class="st4" d="M292.3,153.6c-3.8,0-6.9,1.3-9.3,4c-2.4,2.6-3.6,6.2-3.8,10.7v3v61.3v3c0,4.4,1.2,7.9,3.7,10.6
					c2.4,2.7,5.7,4.1,9.6,4.1c3.8,0,6.9-1.3,9.3-4c2.4-2.6,3.6-6.2,3.8-10.7v-3v-61.3v-3c0-4.4-1.2-7.9-3.7-10.6
					C299.5,155,296.3,153.6,292.3,153.6z"/>
				<path class="st4" d="M376.5,155H329c-4,0-7.2,1.1-9.7,3.3c-2.5,2.2-3.8,5.1-3.8,8.8c0,3.6,1.2,6.4,3.7,8.6
					c2.4,2.2,5.7,3.3,9.8,3.5h29L376.5,155z"/>
				<path class="st4" d="M169.1,110.6c-3.8,0-6.9,1.3-9.3,4c-2.4,2.6-3.6,6.2-3.8,10.7v3v33.9c-4.1-3.1-8.2-5.4-12.4-6.9
					c-4.2-1.4-8.8-2.2-14-2.2c-6.5,0-12.5,1.3-17.9,3.8c-5.5,2.5-10.2,5.9-14.3,10.3c-4,4.4-7.2,9.5-9.5,15.5
					c-2.3,5.9-3.5,12.4-3.5,19.2c0,7,1.2,13.5,3.5,19.5c2.3,6,5.5,11.2,9.5,15.6c4,4.4,8.9,7.8,14.5,10.2c5.6,2.4,11.7,3.7,18.3,3.7
					c5.6,0,10.4-0.8,14.5-2.3c4.1-1.5,8.3-4.1,12.5-7.8c2.2,6.3,6.4,9.4,12.5,9.4c2.4,0,4.5-0.5,6.3-1.5c1.8-1,3.3-2.4,4.4-4.3
					c0.8-1.3,1.3-2.8,1.6-4.4c0.3-1.6,0.4-4,0.4-7.1V128.2v-3c0-4.4-1.2-7.9-3.7-10.6C176.3,111.9,173.1,110.6,169.1,110.6z
					 M154.9,210.5c-1.2,2.7-2.8,5.1-4.8,7.2c-2,2.1-4.3,3.7-7,4.9c-2.7,1.2-5.6,1.8-8.6,1.8c-3.2,0-6.1-0.6-8.8-1.8
					c-2.7-1.2-5.1-2.8-7-4.9c-2-2.1-3.6-4.5-4.8-7.2c-1.2-2.7-1.8-5.7-1.8-8.9c0-3.1,0.6-5.9,1.8-8.6c1.2-2.7,2.8-5,4.9-7
					c2-2,4.4-3.6,7.1-4.8c2.7-1.2,5.6-1.8,8.6-1.8c3,0,5.9,0.6,8.6,1.8c2.7,1.2,5.1,2.8,7,4.8c2,2,3.6,4.4,4.8,7.1
					c1.2,2.7,1.8,5.6,1.8,8.7S156.1,207.8,154.9,210.5z"/>
				<path class="st4" d="M552.5,224.6h-27.2l11.9-15.5l24.4-31.9c2.2-3,3.4-5.8,3.4-8.3c0-4.2-1.5-7.6-4.5-10.1
					c-2.6-2.3-6.1-3.5-10.3-3.7l0,0h-1.6h-3.4h-42.6c-4,0-7.2,1.1-9.7,3.3c-2.5,2.2-3.8,5.1-3.8,8.8c0,3.6,1.2,6.4,3.7,8.6
					c2.4,2.2,5.7,3.3,9.8,3.5h24l-9.5,12.3l0,0l-24.7,32.1c-1.2,1.6-2.2,3-3,4.1c-0.8,1.1-1.4,2.1-1.8,2.9c-0.4,0.8-0.7,1.6-0.8,2.3
					c-0.1,0.7-0.2,1.6-0.2,2.5c0,2.2,0.7,4.5,2.1,6.8c1.4,2.3,3.1,4,5.2,5c1.3,0.7,2.6,1.1,3.8,1.3c1,0.2,2.4,0.3,3.9,0.3l0,0h0.7
					h4.3h45.7c4,0,7.2-1.1,9.6-3.4c2.4-2.2,3.7-5.2,3.7-8.7c0-3.6-1.2-6.4-3.6-8.6C559.9,225.9,556.6,224.8,552.5,224.6z"/>
				<path class="st4" d="M702.9,206.8c-1.7-3.3-4.2-5.5-7.5-6.7c-3.4-1.1-6.8-0.8-10.2,0.9c-1.3,0.7-2.4,1.5-3.3,2.4
					c-0.9,1-1.8,2.4-2.7,4.1c-1.5,3-3.1,5.4-4.9,7.2c-1.8,1.9-3.9,3.4-6.3,4.6c-4.9,2.4-9.9,3-15.2,1.6l30.7-37.1
					c2.7-3.4,4.4-6.4,5-8.8c0.6-2.5,0.3-5-1-7.6c-2-3.9-4.9-7.1-8.7-9.6c-3.8-2.5-8.2-4.3-12.9-5.3c-4.8-1-9.8-1.2-15.1-0.5
					c-5.3,0.7-10.3,2.2-15,4.5c-5.9,3-10.9,6.9-14.9,11.8c-4.1,4.9-7.1,10.3-9,16.3c-2,5.9-2.8,12.1-2.5,18.5
					c0.3,6.4,2,12.6,4.9,18.5c3,5.9,6.9,10.9,12,15.1c5,4.1,10.6,7.2,16.6,9.2c6,2,12.3,2.9,18.8,2.6c6.5-0.3,12.7-1.9,18.6-4.9
					c4.3-2.1,8.2-4.9,11.8-8.2c3.6-3.4,6.5-7.1,8.6-11.1c2-3.7,3.2-6.9,3.6-9.7C704.6,212,704.2,209.3,702.9,206.8z M637.2,207.1
					c-2.1-5.3-2.1-10.6-0.1-15.9c2-5.3,5.6-9.2,10.8-11.8c4.8-2.4,9.2-2.5,12.9-0.3L637.2,207.1z"/>
				<path class="st4" d="M378.8,224.6h-30.2l-18.5,24.2h48.7c4,0,7.2-1.1,9.6-3.4c2.4-2.2,3.7-5.2,3.7-8.7c0-3.6-1.2-6.4-3.6-8.6
					C386.2,225.9,382.9,224.8,378.8,224.6z"/>
				<path class="st4" d="M587.1,110.6c-4,0-7.1,1.3-9.5,4c-2.4,2.6-3.6,6.2-3.8,10.7v3v104.3v3c0,4.4,1.2,7.9,3.7,10.6
					c2.4,2.7,5.7,4.1,9.6,4.1c4.2,0,7.5-1.4,9.8-4.2c2.3-2.8,3.4-6.7,3.3-11.7v-1.8V127.1v-1.8c0-4.4-1.2-7.9-3.6-10.6
					C594.2,112,591.1,110.6,587.1,110.6z"/>
				<path class="st4" d="M465.7,224.6h-30.2L417,248.8h48.7c4,0,7.2-1.1,9.6-3.4c2.4-2.2,3.7-5.2,3.7-8.7c0-3.6-1.2-6.4-3.6-8.6
					C473,225.9,469.8,224.8,465.7,224.6z"/>
				<path class="st4" d="M463.4,155h-47.5c-4,0-7.2,1.1-9.7,3.3c-2.5,2.2-3.8,5.1-3.8,8.8c0,3.6,1.2,6.4,3.7,8.6
					c2.4,2.2,5.7,3.3,9.8,3.5h29L463.4,155z"/>
			</g>
		</g>
		<g>
			<g>
				<path class="st5" d="M420.5,121.2L341.4,243c-4.5,6.9-13.6,8.8-20.5,4.4s-8.8-13.6-4.4-20.5c0.3-0.4,0.6-0.9,0.9-1.3l91.4-112.8
					c2.5-3.1,7-3.6,10.1-1.1C421.9,114.1,422.5,118.2,420.5,121.2z"/>
				<path class="st5" d="M507.8,121.2L428.7,243c-4.5,6.9-13.6,8.8-20.5,4.4c-6.9-4.5-8.8-13.6-4.4-20.5c0.3-0.4,0.6-0.9,0.9-1.3
					l91.4-112.8c2.5-3.1,7-3.6,10.1-1.1C509.2,114.1,509.7,118.2,507.8,121.2z"/>
				<path class="st5" d="M319.3,107.7l-15.6,30.9c-2.7,5.4-9.3,7.6-14.8,4.9c-5.4-2.7-7.6-9.3-4.9-14.8c0.5-1.1,1.3-2.1,2.1-2.9
					l24.6-24.4c2.1-2.1,5.5-2.1,7.5,0C320,103.2,320.3,105.7,319.3,107.7z"/>
				<path class="st5" d="M550.5,114.7l-9.5,17.8c-1.8,3.4-6.1,4.7-9.5,2.9c-3.4-1.8-4.7-6.1-2.9-9.5c0.4-0.7,0.9-1.4,1.5-1.9
					l15.1-13.4c1.4-1.2,3.6-1.1,4.8,0.3C551,111.9,551.2,113.5,550.5,114.7z"/>
			</g>
		</g>
	</g>
	<g>
		<path class="st6" d="M1108.2-236.3c-1.5-1.5-3.3-2.6-5.4-3.5c-2.1-0.9-4.3-1.3-6.6-1.3c-7.3,0-14.1,2.8-20.4,8.3
			c-2.6-5.2-6.7-7.7-12.1-7.7c-4.9,0-8.7,2.3-11.3,6.9c-0.4,0.7-0.7,1.3-1,2c-0.3,0.7-0.4,1.4-0.5,2.3c-0.1,0.9-0.1,1.9-0.2,3.2
			c-0.1,1.3-0.1,2.9-0.1,4.9v59.7v3c0,4.4,1.2,7.9,3.7,10.6c2.4,2.7,5.7,4.1,9.6,4.1c4,0,7.1-1.3,9.4-4c2.3-2.6,3.5-6.2,3.7-10.7v-3
			v-40.7c0-4.4,0.4-7.5,1.3-9.3c0.9-1.8,2.3-2.8,4.5-2.8c1.5,0,3.2,0.6,5.2,1.8c2.5,1.5,4.3,2.4,5.3,2.8c1,0.4,2.4,0.6,4.3,0.6
			c4.4,0,8.1-1.5,11.2-4.6c3.1-3,4.7-6.7,4.7-11.1c0-2.2-0.5-4.4-1.4-6.3C1111-233.1,1109.8-234.8,1108.2-236.3z"/>
		<path class="st6" d="M1136.7-240.4c-3.8,0-6.9,1.3-9.3,4c-2.4,2.6-3.6,6.2-3.8,10.7v3v61.3v3c0,4.4,1.2,7.9,3.7,10.6
			c2.4,2.7,5.7,4.1,9.6,4.1c3.8,0,6.9-1.3,9.3-4c2.4-2.6,3.6-6.2,3.8-10.7v-3v-61.3v-3c0-4.4-1.2-7.9-3.7-10.6
			C1143.9-239.1,1140.7-240.4,1136.7-240.4z"/>
		<g>
			<path class="st6" d="M1220.9-239h-47.5c-4,0-7.2,1.1-9.7,3.3c-2.5,2.2-3.8,5.1-3.8,8.8c0,3.6,1.2,6.4,3.7,8.6
				c2.4,2.2,5.7,3.3,9.8,3.5h29L1220.9-239z"/>
			<path class="st6" d="M1013.6-283.5c-3.8,0-6.9,1.3-9.3,4c-2.4,2.6-3.6,6.2-3.8,10.7v3v33.9c-4.1-3.1-8.2-5.4-12.4-6.9
				c-4.2-1.4-8.8-2.2-14-2.2c-6.5,0-12.5,1.3-17.9,3.8c-5.5,2.5-10.2,5.9-14.3,10.3c-4,4.4-7.2,9.5-9.5,15.5
				c-2.3,5.9-3.5,12.4-3.5,19.2c0,7,1.2,13.5,3.5,19.5c2.3,6,5.5,11.2,9.5,15.6c4,4.4,8.9,7.8,14.5,10.2c5.6,2.4,11.7,3.7,18.3,3.7
				c5.6,0,10.4-0.8,14.5-2.3c4.1-1.5,8.3-4.1,12.5-7.8c2.2,6.3,6.4,9.4,12.5,9.4c2.4,0,4.5-0.5,6.3-1.5c1.8-1,3.3-2.4,4.4-4.3
				c0.8-1.3,1.3-2.8,1.6-4.4c0.3-1.6,0.4-4,0.4-7.1v-104.7v-3c0-4.4-1.2-7.9-3.7-10.6C1020.7-282.1,1017.5-283.5,1013.6-283.5z
				 M999.3-183.5c-1.2,2.7-2.8,5.1-4.8,7.2c-2,2.1-4.3,3.7-7,4.9c-2.7,1.2-5.6,1.8-8.6,1.8c-3.2,0-6.1-0.6-8.8-1.8
				c-2.7-1.2-5.1-2.8-7-4.9c-2-2.1-3.6-4.5-4.8-7.2c-1.2-2.7-1.8-5.7-1.8-8.9c0-3.1,0.6-5.9,1.8-8.6c1.2-2.7,2.8-5,4.9-7
				c2-2,4.4-3.6,7.1-4.8c2.7-1.2,5.6-1.8,8.6-1.8c3,0,5.9,0.6,8.6,1.8c2.7,1.2,5.1,2.8,7,4.8c2,2,3.6,4.4,4.8,7.1
				c1.2,2.7,1.8,5.6,1.8,8.7S1000.5-186.3,999.3-183.5z"/>
			<path class="st6" d="M1397-169.4h-27.2l11.9-15.5l24.4-31.9c2.2-3,3.4-5.8,3.4-8.3c0-4.2-1.5-7.6-4.5-10.1
				c-2.6-2.3-6.1-3.5-10.3-3.7l0,0h-1.6h-3.4h-42.6c-4,0-7.2,1.1-9.7,3.3c-2.5,2.2-3.8,5.1-3.8,8.8c0,3.6,1.2,6.4,3.7,8.6
				c2.4,2.2,5.7,3.3,9.8,3.5h24l-9.5,12.3l0,0l-24.7,32.1c-1.2,1.6-2.2,3-3,4.1c-0.8,1.1-1.4,2.1-1.8,2.9c-0.4,0.8-0.7,1.6-0.8,2.3
				c-0.1,0.7-0.2,1.6-0.2,2.5c0,2.2,0.7,4.5,2.1,6.8c1.4,2.3,3.1,4,5.2,5c1.3,0.7,2.6,1.1,3.8,1.3c1,0.2,2.4,0.3,3.9,0.3l0,0h0.7
				h4.3h45.7c4,0,7.2-1.1,9.6-3.4c2.4-2.2,3.7-5.2,3.7-8.7s-1.2-6.4-3.6-8.6C1404.3-168.1,1401.1-169.3,1397-169.4z"/>
			<path class="st6" d="M1547.3-187.2c-1.7-3.3-4.2-5.5-7.5-6.7c-3.4-1.1-6.8-0.8-10.2,0.9c-1.3,0.7-2.4,1.5-3.3,2.4
				c-0.9,1-1.8,2.4-2.7,4.1c-1.5,3-3.1,5.4-4.9,7.2c-1.8,1.9-3.9,3.4-6.3,4.6c-4.9,2.4-9.9,3-15.2,1.6l30.7-37.1
				c2.7-3.4,4.4-6.4,5-8.8c0.6-2.5,0.3-5-1-7.6c-2-3.9-4.9-7.1-8.7-9.6c-3.8-2.5-8.2-4.3-12.9-5.3c-4.8-1-9.8-1.2-15.1-0.5
				c-5.3,0.7-10.3,2.2-15,4.5c-5.9,3-10.9,6.9-14.9,11.8c-4.1,4.9-7.1,10.3-9,16.3c-2,5.9-2.8,12.1-2.5,18.5
				c0.3,6.4,2,12.6,4.9,18.5c3,5.9,6.9,10.9,12,15.1c5,4.1,10.6,7.2,16.6,9.2c6,2,12.3,2.9,18.8,2.6c6.5-0.3,12.7-1.9,18.6-4.9
				c4.3-2.1,8.2-4.9,11.8-8.2c3.6-3.4,6.5-7.1,8.6-11.1c2-3.7,3.2-6.9,3.6-9.7C1549-182.1,1548.6-184.7,1547.3-187.2z M1481.6-186.9
				c-2.1-5.3-2.1-10.6-0.1-15.9c2-5.3,5.6-9.2,10.8-11.8c4.8-2.4,9.2-2.5,12.9-0.3L1481.6-186.9z"/>
			<path class="st6" d="M1223.2-169.4H1193l-18.5,24.2h48.7c4,0,7.2-1.1,9.6-3.4c2.4-2.2,3.7-5.2,3.7-8.7s-1.2-6.4-3.6-8.6
				C1230.6-168.1,1227.3-169.3,1223.2-169.4z"/>
			<path class="st6" d="M1431.5-283.4c-4,0-7.1,1.3-9.5,4c-2.4,2.6-3.6,6.2-3.8,10.7v3v104.3v3c0,4.4,1.2,7.9,3.7,10.6
				c2.4,2.7,5.7,4.1,9.6,4.1c4.2,0,7.5-1.4,9.8-4.2c2.3-2.8,3.4-6.7,3.3-11.7v-1.8V-267v-1.8c0-4.4-1.2-7.9-3.6-10.6
				C1438.6-282.1,1435.5-283.4,1431.5-283.4z"/>
			<path class="st6" d="M1310.1-169.4h-30.2l-18.5,24.2h48.7c4,0,7.2-1.1,9.6-3.4c2.4-2.2,3.7-5.2,3.7-8.7s-1.2-6.4-3.6-8.6
				C1317.4-168.1,1314.2-169.3,1310.1-169.4z"/>
			<path class="st6" d="M1307.8-239h-47.5c-4,0-7.2,1.1-9.7,3.3c-2.5,2.2-3.8,5.1-3.8,8.8c0,3.6,1.2,6.4,3.7,8.6
				c2.4,2.2,5.7,3.3,9.8,3.5h29L1307.8-239z"/>
		</g>
	</g>
	<g>
		<g>
			<path class="st7" d="M1264.9-272.8l-79.1,121.8c-4.5,6.9-13.6,8.8-20.5,4.4c-6.9-4.5-8.8-13.6-4.4-20.5c0.3-0.4,0.6-0.9,0.9-1.3
				l91.4-112.8c2.5-3.1,7-3.6,10.1-1.1C1266.3-280,1266.9-275.9,1264.9-272.8z"/>
			<path class="st7" d="M1352.2-272.8l-79.1,121.8c-4.5,6.9-13.6,8.8-20.5,4.4s-8.8-13.6-4.4-20.5c0.3-0.4,0.6-0.9,0.9-1.3
				l91.4-112.8c2.5-3.1,7-3.6,10.1-1.1C1353.6-280,1354.1-275.9,1352.2-272.8z"/>
			<path class="st7" d="M1163.7-286.4l-15.6,30.9c-2.7,5.4-9.3,7.6-14.8,4.9s-7.6-9.3-4.9-14.8c0.5-1.1,1.3-2.1,2.1-2.9l24.6-24.4
				c2.1-2.1,5.5-2.1,7.5,0C1164.4-290.8,1164.7-288.4,1163.7-286.4z"/>
			<path class="st7" d="M1394.9-279.4l-9.5,17.8c-1.8,3.4-6.1,4.7-9.5,2.9c-3.4-1.8-4.7-6.1-2.9-9.5c0.4-0.7,0.9-1.4,1.5-1.9
				l15.1-13.4c1.4-1.2,3.6-1.1,4.8,0.3C1395.4-282.1,1395.6-280.6,1394.9-279.4z"/>
		</g>
	</g>
	<g>
		<path class="st3" d="M418,465.1l-4.2,7.9c-0.8,1.5-2.7,2.1-4.2,1.3c-1.5-0.8-2.1-2.7-1.3-4.2c0.2-0.3,0.4-0.6,0.7-0.9l6.7-5.9
			c0.6-0.6,1.6-0.5,2.1,0.1C418.2,463.9,418.2,464.6,418,465.1z"/>
		<path class="st3" d="M388.8,467.4c-1.7,0-3.1,0.6-4.1,1.7c-1,1.2-1.6,2.7-1.7,4.7v1.3v14.9c-1.8-1.4-3.6-2.4-5.5-3
			c-1.8-0.6-3.9-1-6.2-1c-2.9,0-5.5,0.6-7.9,1.7c-2.4,1.1-4.5,2.6-6.3,4.5c-1.8,1.9-3.2,4.2-4.2,6.8c-1,2.6-1.5,5.5-1.5,8.5
			c0,3.1,0.5,6,1.5,8.6c1,2.7,2.4,4.9,4.2,6.9c1.8,1.9,3.9,3.4,6.4,4.5c2.5,1.1,5.2,1.6,8.1,1.6c2.4,0,4.6-0.3,6.4-1
			c1.8-0.7,3.6-1.8,5.5-3.4c1,2.8,2.8,4.2,5.5,4.2c1,0,2-0.2,2.8-0.7c0.8-0.4,1.5-1.1,1.9-1.9c0.3-0.6,0.6-1.2,0.7-1.9
			c0.1-0.7,0.2-1.8,0.2-3.2v-46.2v-1.3c0-1.9-0.5-3.5-1.6-4.7C392,468,390.6,467.4,388.8,467.4z M382.5,511.5
			c-0.5,1.2-1.2,2.3-2.1,3.2c-0.9,0.9-1.9,1.6-3.1,2.2c-1.2,0.5-2.5,0.8-3.8,0.8c-1.4,0-2.7-0.3-3.9-0.8c-1.2-0.5-2.2-1.2-3.1-2.2
			c-0.9-0.9-1.6-2-2.1-3.2c-0.5-1.2-0.8-2.5-0.8-3.9c0-1.4,0.3-2.6,0.8-3.8c0.5-1.2,1.2-2.2,2.1-3.1c0.9-0.9,2-1.6,3.1-2.1
			c1.2-0.5,2.5-0.8,3.8-0.8c1.3,0,2.6,0.3,3.8,0.8c1.2,0.5,2.2,1.2,3.1,2.1c0.9,0.9,1.6,1.9,2.1,3.1c0.5,1.2,0.8,2.5,0.8,3.8
			S383.1,510.3,382.5,511.5z"/>
		<path class="st4" d="M385.7,464.5c-1.7,0-3.1,0.6-4.1,1.7c-1,1.2-1.6,2.7-1.7,4.7v1.3v14.9c-1.8-1.4-3.6-2.4-5.5-3
			c-1.8-0.6-3.9-1-6.2-1c-2.9,0-5.5,0.6-7.9,1.7c-2.4,1.1-4.5,2.6-6.3,4.5c-1.8,1.9-3.2,4.2-4.2,6.8c-1,2.6-1.5,5.5-1.5,8.5
			c0,3.1,0.5,6,1.5,8.6c1,2.7,2.4,4.9,4.2,6.9c1.8,1.9,3.9,3.4,6.4,4.5c2.5,1.1,5.2,1.6,8.1,1.6c2.4,0,4.6-0.3,6.4-1
			c1.8-0.7,3.6-1.8,5.5-3.4c1,2.8,2.8,4.2,5.5,4.2c1,0,2-0.2,2.8-0.7c0.8-0.4,1.5-1.1,1.9-1.9c0.3-0.6,0.6-1.2,0.7-1.9
			c0.1-0.7,0.2-1.8,0.2-3.2v-46.2v-1.3c0-1.9-0.5-3.5-1.6-4.7C388.9,465.1,387.5,464.5,385.7,464.5z M379.4,508.5
			c-0.5,1.2-1.2,2.3-2.1,3.2c-0.9,0.9-1.9,1.6-3.1,2.2c-1.2,0.5-2.5,0.8-3.8,0.8c-1.4,0-2.7-0.3-3.9-0.8c-1.2-0.5-2.2-1.2-3.1-2.2
			c-0.9-0.9-1.6-2-2.1-3.2c-0.5-1.2-0.8-2.5-0.8-3.9c0-1.4,0.3-2.6,0.8-3.8c0.5-1.2,1.2-2.2,2.1-3.1c0.9-0.9,2-1.6,3.1-2.1
			c1.2-0.5,2.5-0.8,3.8-0.8c1.3,0,2.6,0.3,3.8,0.8c1.2,0.5,2.2,1.2,3.1,2.1c0.9,0.9,1.6,1.9,2.1,3.1c0.5,1.2,0.8,2.5,0.8,3.8
			S380,507.3,379.4,508.5z"/>
		<path class="st3" d="M428.6,517.7h-11.2l29.6-45.6c0.9-1.3,0.6-3.2-0.7-4.2c-1.4-1.1-3.4-0.9-4.5,0.5L426.7,487h-20.1
			c-1.7,0-3.2,0.5-4.3,1.4c-1.1,1-1.7,2.3-1.7,3.9c0,1.6,0.5,2.8,1.6,3.8c1.1,1,2.5,1.5,4.3,1.5h11.5l-16.6,20.5
			c-0.1,0.2-0.3,0.4-0.4,0.6c-2,3-1.1,7.1,1.9,9c1.8,1.2,3.9,1.3,5.8,0.7h19.7c1.7,0,3.2-0.5,4.2-1.5c1.1-1,1.6-2.3,1.6-3.9
			c0-1.6-0.5-2.8-1.6-3.8C431.8,518.3,430.4,517.8,428.6,517.7z"/>
		<path class="st4" d="M424.4,484.1h-20.9c-1.7,0-3.2,0.5-4.3,1.4c-1.1,1-1.7,2.3-1.7,3.9c0,1.6,0.5,2.8,1.6,3.8
			c1.1,1,2.5,1.5,4.3,1.5h12.8L424.4,484.1z"/>
		<path class="st4" d="M425.5,514.8h-13.3l-8.2,10.7h21.5c1.7,0,3.2-0.5,4.2-1.5c1.1-1,1.6-2.3,1.6-3.9c0-1.6-0.5-2.8-1.6-3.8
			C428.7,515.3,427.3,514.8,425.5,514.8z"/>
		<g>
			<g>
				<path class="st5" d="M443.9,469.2L409,522.9c-2,3-6,3.9-9,1.9c-3-2-3.9-6-1.9-9c0.1-0.2,0.3-0.4,0.4-0.6l40.3-49.8
					c1.1-1.4,3.1-1.6,4.5-0.5C444.5,466,444.7,467.8,443.9,469.2z"/>
			</g>
		</g>
		<path class="st5" d="M415.9,463.6l-4.2,7.9c-0.8,1.5-2.7,2.1-4.2,1.3c-1.5-0.8-2.1-2.7-1.3-4.2c0.2-0.3,0.4-0.6,0.7-0.9l6.7-5.9
			c0.6-0.6,1.6-0.5,2.1,0.1C416.1,462.4,416.2,463.1,415.9,463.6z"/>
	</g>
	<g id="_x35_DyI3k.tif">
		
			<image style="overflow:visible;" width="800" height="600" id="Layer_0_1_" xlink:href="3316605592190BE8.png"  transform="matrix(1 0 0 1 577.8555 -1262.4761)">
		</image>
	</g>
	<g id="xhHMYq.tif">
		
			<image style="overflow:visible;" width="800" height="600" id="Layer_0_2_" xlink:href="3316605592190BE9.png"  transform="matrix(1 0 0 1 1749.3243 -1144.0571)">
		</image>
	</g>
</g>
<g id="Layer_4">
	<g class="st8">
		<path class="st4" d="M1018.1,108.3l-1.5,83.7c0,1.4-1.2,2.5-2.5,2.5c-1.3,0-2.4-1.1-2.5-2.5l-1.5-83.7c0-2.2,1.7-4,3.9-4.1
			c2.2,0,4,1.7,4.1,3.9C1018.1,108.2,1018.1,108.3,1018.1,108.3z"/>
	</g>
	<g class="st8">
		<path class="st4" d="M1059.8,216.7l1.7-54.5c0-1.3,1.1-2.3,2.4-2.3c1.2,0,2.2,1,2.3,2.3l1.7,54.5c0.1,2.2-1.7,4.1-3.9,4.1
			c-2.2,0.1-4.1-1.7-4.1-3.9C1059.8,216.9,1059.8,216.8,1059.8,216.7z"/>
	</g>
	<line class="st9" x1="1435.8" y1="112.5" x2="1435.8" y2="211.5"/>
	<g>
	</g>
	<g>
	</g>
	<g>
	</g>
	<g>
	</g>
	<g>
	</g>
	<g>
	</g>
	<g>
	</g>
	<g>
	</g>
	<g>
	</g>
	<g>
	</g>
	<g>
	</g>
	<g>
	</g>
	<g>
	</g>
	<g>
	</g>
	<g>
	</g>
</g>
</svg>
