<?xml version="1.0" encoding="utf-8"?>
<!-- Generator: Adobe Illustrator 20.1.0, SVG Export Plug-In . SVG Version: 6.00 Build 0)  -->
<!DOCTYPE svg PUBLIC "-//W3C//DTD SVG 1.1//EN" "http://www.w3.org/Graphics/SVG/1.1/DTD/svg11.dtd">
<svg version="1.1" xmlns="http://www.w3.org/2000/svg" xmlns:xlink="http://www.w3.org/1999/xlink" x="0px" y="0px" width="32px"
	 height="32px" viewBox="0 0 32 32" style="enable-background:new 0 0 32 32;" xml:space="preserve">
<style type="text/css">
	.st0{fill:#23C9A9;}
	.st1{opacity:0.12;fill:#FFFFFF;}
	.st2{opacity:0.1;}
	.st3{fill:#FFFFFF;}
	.st4{fill:#B7F9EC;}
	.st5{fill:#495054;}
	.st6{fill:#70797C;}
	.st7{opacity:0.2;}
	.st8{opacity:0.2;fill:none;stroke:#FFFFFF;stroke-width:6;stroke-linecap:round;stroke-linejoin:round;}
</style>
<g id="Layer_2">
	<rect x="-381.9" y="-873.4" class="st0" width="795.9" height="357.5"/>
	<rect x="-381.9" y="-479.3" class="st0" width="795.9" height="357.5"/>
	<circle class="st0" cx="16" cy="16" r="15.8"/>
</g>
<g id="Layer_3">
	<path class="st1" d="M40.9-821l-41.2,61c-1.5,2.3-4.7,2.9-6.9,1.3c-2.3-1.5-2.9-4.7-1.3-6.9c0.1-0.1,0.1-0.2,0.2-0.3l45.3-58
		c0.8-1.1,2.3-1.2,3.4-0.4C41.4-823.5,41.7-822.1,40.9-821z"/>
	<path class="st1" d="M4.1-561.8l-41.2,61c-1.5,2.3-4.7,2.9-6.9,1.3c-2.3-1.5-2.9-4.7-1.3-6.9c0.1-0.1,0.1-0.2,0.2-0.3l45.3-58
		c0.8-1.1,2.3-1.2,3.4-0.4C4.6-564.3,4.8-562.9,4.1-561.8z"/>
	<path class="st1" d="M362.4-796.4l-41.2,61c-1.5,2.3-4.7,2.9-6.9,1.3c-2.3-1.5-2.9-4.7-1.3-6.9c0.1-0.1,0.1-0.2,0.2-0.3l45.3-58
		c0.8-1.1,2.3-1.2,3.4-0.4C362.9-798.9,363.1-797.4,362.4-796.4z"/>
	<path class="st1" d="M152.1-859.6l-51,74.5c-1.6,2.3-4.7,2.9-7,1.3c-2.3-1.6-2.9-4.7-1.3-7c0.1-0.1,0.1-0.2,0.2-0.2l55.1-71.5
		c0.8-1.1,2.3-1.3,3.4-0.4C152.6-862.1,152.8-860.7,152.1-859.6z"/>
	<path class="st1" d="M414.7-787.5l-51,74.5c-1.6,2.3-4.7,2.9-7,1.3c-2.3-1.6-2.9-4.7-1.3-7c0.1-0.1,0.1-0.2,0.2-0.2l55.1-71.5
		c0.8-1.1,2.3-1.3,3.4-0.4C415.2-790,415.4-788.6,414.7-787.5z"/>
	<path class="st1" d="M-225.7-916.1l-51,74.5c-1.6,2.3-4.7,2.9-7,1.3c-2.3-1.6-2.9-4.7-1.3-7c0.1-0.1,0.1-0.2,0.2-0.2l55.1-71.5
		c0.8-1.1,2.3-1.3,3.4-0.4C-225.2-918.6-225-917.1-225.7-916.1z"/>
	<path class="st1" d="M-128.3-809.9l-51,74.5c-1.6,2.3-4.7,2.9-7,1.3c-2.3-1.6-2.9-4.7-1.3-7c0.1-0.1,0.1-0.2,0.2-0.2l55.1-71.5
		c0.8-1.1,2.3-1.3,3.4-0.4C-127.8-812.4-127.6-810.9-128.3-809.9z"/>
	<path class="st1" d="M257.1-638.6l-51,74.5c-1.6,2.3-4.7,2.9-7,1.3c-2.3-1.6-2.9-4.7-1.3-7c0.1-0.1,0.1-0.2,0.2-0.2l55.1-71.5
		c0.8-1.1,2.3-1.3,3.4-0.4C257.6-641.1,257.8-639.7,257.1-638.6z"/>
	<path class="st1" d="M-267.6-906.3l-51,74.5c-1.6,2.3-4.7,2.9-7,1.3c-2.3-1.6-2.9-4.7-1.3-7c0.1-0.1,0.1-0.2,0.2-0.2l55.1-71.5
		c0.8-1.1,2.3-1.3,3.4-0.4C-267.1-908.8-266.9-907.3-267.6-906.3z"/>
	<path class="st1" d="M-68.4-851.5l-15.3,25.4c-1.4,2.4-4.5,3.1-6.9,1.7c-2.4-1.4-3.1-4.5-1.7-6.9c0.1-0.2,0.3-0.5,0.5-0.7
		l19.5-22.4c0.9-1,2.4-1.1,3.4-0.2C-68-853.8-67.8-852.5-68.4-851.5z"/>
	<path class="st1" d="M265.9-835.3l-15.3,25.4c-1.4,2.4-4.5,3.1-6.9,1.7c-2.4-1.4-3.1-4.5-1.7-6.9c0.1-0.2,0.3-0.5,0.5-0.7
		l19.5-22.4c0.9-1,2.4-1.1,3.4-0.2C266.3-837.6,266.5-836.3,265.9-835.3z"/>
	<path class="st1" d="M-309.7-614.3l-15.3,25.4c-1.4,2.4-4.5,3.1-6.9,1.7c-2.4-1.4-3.1-4.5-1.7-6.9c0.1-0.2,0.3-0.5,0.5-0.7
		l19.5-22.4c0.9-1,2.4-1.1,3.4-0.2C-309.2-616.6-309.1-615.3-309.7-614.3z"/>
	<path class="st1" d="M-265.8-778.8l-15.3,25.4c-1.4,2.4-4.5,3.1-6.9,1.7c-2.4-1.4-3.1-4.5-1.7-6.9c0.1-0.2,0.3-0.5,0.5-0.7
		l19.5-22.4c0.9-1,2.4-1.1,3.4-0.2C-265.4-781.1-265.2-779.8-265.8-778.8z"/>
	<path class="st1" d="M358.1-575.1l-26.4,40.7c-1.5,2.3-4.6,3-6.9,1.5c-2.3-1.5-3-4.6-1.5-6.9c0.1-0.1,0.2-0.3,0.3-0.4l30.6-37.7
		c0.8-1,2.4-1.2,3.4-0.4C358.5-577.5,358.7-576.2,358.1-575.1z"/>
	<path class="st1" d="M-119.7-629.4l-26.4,40.7c-1.5,2.3-4.6,3-6.9,1.5c-2.3-1.5-3-4.6-1.5-6.9c0.1-0.1,0.2-0.3,0.3-0.4l30.6-37.7
		c0.8-1,2.4-1.2,3.4-0.4C-119.3-631.8-119.1-630.4-119.7-629.4z"/>
</g>
<g id="Layer_1">
	<g>
		<g class="st2">
			<path d="M-111.1-708.8c-1.5-1.5-3.3-2.6-5.4-3.5c-2.1-0.9-4.3-1.3-6.6-1.3c-7.3,0-14.1,2.8-20.4,8.3c-2.6-5.2-6.7-7.7-12.1-7.7
				c-4.9,0-8.7,2.3-11.3,6.9c-0.4,0.7-0.7,1.3-1,2c-0.3,0.7-0.4,1.4-0.5,2.3c-0.1,0.9-0.1,1.9-0.2,3.2c-0.1,1.3-0.1,2.9-0.1,4.9
				v59.7v3c0,4.4,1.2,7.9,3.7,10.6c2.4,2.7,5.7,4.1,9.6,4.1c4,0,7.1-1.3,9.4-4c2.3-2.6,3.5-6.2,3.7-10.7v-3v-40.7
				c0-4.4,0.4-7.5,1.3-9.3c0.9-1.8,2.3-2.8,4.5-2.8c1.5,0,3.2,0.6,5.2,1.8c2.5,1.5,4.3,2.4,5.3,2.8c1,0.4,2.4,0.6,4.3,0.6
				c4.4,0,8.1-1.5,11.2-4.6c3.1-3,4.7-6.7,4.7-11.1c0-2.2-0.5-4.4-1.4-6.3C-108.3-705.7-109.5-707.4-111.1-708.8z"/>
			<path d="M-82.6-713c-3.8,0-6.9,1.3-9.3,4c-2.4,2.6-3.6,6.2-3.8,10.7v3v61.3v3c0,4.4,1.2,7.9,3.7,10.6c2.4,2.7,5.7,4.1,9.6,4.1
				c3.8,0,6.9-1.3,9.3-4c2.4-2.6,3.6-6.2,3.8-10.7v-3v-61.3v-3c0-4.4-1.2-7.9-3.7-10.6C-75.4-711.6-78.6-713-82.6-713z"/>
			<path d="M-205.8-756.1c-3.8,0-6.9,1.3-9.3,4c-2.4,2.6-3.6,6.2-3.8,10.7v3v33.9c-4.1-3.1-8.2-5.4-12.4-6.9
				c-4.2-1.4-8.8-2.2-14-2.2c-6.5,0-12.5,1.3-17.9,3.8c-5.5,2.5-10.2,5.9-14.3,10.3c-4,4.4-7.2,9.5-9.5,15.5
				c-2.3,5.9-3.5,12.4-3.5,19.2c0,7,1.2,13.5,3.5,19.5c2.3,6,5.5,11.2,9.5,15.6c4,4.4,8.9,7.8,14.5,10.2c5.6,2.4,11.7,3.7,18.3,3.7
				c5.6,0,10.4-0.8,14.5-2.3c4.1-1.5,8.3-4.1,12.5-7.8c2.2,6.3,6.4,9.4,12.5,9.4c2.4,0,4.5-0.5,6.3-1.5c1.8-1,3.3-2.4,4.4-4.3
				c0.8-1.3,1.3-2.8,1.6-4.4c0.3-1.6,0.4-4,0.4-7.1v-104.7v-3c0-4.4-1.2-7.9-3.7-10.6C-198.6-754.7-201.8-756.1-205.8-756.1z
				 M-220-656.1c-1.2,2.7-2.8,5.1-4.8,7.2c-2,2.1-4.3,3.7-7,4.9c-2.7,1.2-5.6,1.8-8.6,1.8c-3.2,0-6.1-0.6-8.8-1.8
				c-2.7-1.2-5.1-2.8-7-4.9c-2-2.1-3.6-4.5-4.8-7.2c-1.2-2.7-1.8-5.7-1.8-8.9c0-3.1,0.6-5.9,1.8-8.6c1.2-2.7,2.8-5,4.9-7
				c2-2,4.4-3.6,7.1-4.8c2.7-1.2,5.6-1.8,8.6-1.8c3,0,5.9,0.6,8.6,1.8c2.7,1.2,5.1,2.8,7,4.8c2,2,3.6,4.4,4.8,7.1
				c1.2,2.7,1.8,5.6,1.8,8.7S-218.8-658.8-220-656.1z"/>
			<path d="M90.8-642H65.7l67.2-103.4c2-3,1.4-7.2-1.5-9.5c-3.1-2.5-7.6-2-10.1,1.1L87-711.6H41c-4,0-7.2,1.1-9.7,3.3
				c-2.5,2.2-3.8,5.1-3.8,8.8c0,3.6,1.2,6.4,3.7,8.6c2.4,2.2,5.7,3.3,9.8,3.5h26.4L29.8-641c-0.3,0.4-0.6,0.8-0.9,1.3
				c-4.5,6.9-2.5,16,4.4,20.5c4.1,2.6,8.9,3,13.1,1.5h44.4c4,0,7.2-1.1,9.6-3.4c2.4-2.2,3.7-5.2,3.7-8.7s-1.2-6.4-3.6-8.6
				C98.1-640.7,94.9-641.9,90.8-642z"/>
			<path d="M328-659.8c-1.7-3.3-4.2-5.5-7.5-6.7c-3.4-1.1-6.8-0.8-10.2,0.9c-1.3,0.7-2.4,1.5-3.3,2.4c-0.9,1-1.8,2.4-2.7,4.1
				c-1.5,3-3.1,5.4-4.9,7.2c-1.8,1.9-3.9,3.4-6.3,4.6c-4.9,2.4-9.9,3-15.2,1.6l30.7-37.1c2.7-3.4,4.4-6.4,5-8.8c0.6-2.5,0.3-5-1-7.6
				c-2-3.9-4.9-7.1-8.7-9.6c-3.8-2.5-8.2-4.3-12.9-5.3c-4.8-1-9.8-1.2-15.1-0.5c-5.3,0.7-10.3,2.2-15,4.5c-5.9,3-10.9,6.9-14.9,11.8
				c-4.1,4.9-7.1,10.3-9,16.3c-2,5.9-2.8,12.1-2.5,18.5c0.3,6.4,2,12.6,4.9,18.5c3,5.9,6.9,10.9,12,15.1c5,4.1,10.6,7.2,16.6,9.2
				c6,2,12.3,2.9,18.8,2.6c6.5-0.3,12.7-1.9,18.6-4.9c4.3-2.1,8.2-4.9,11.8-8.2c3.6-3.4,6.5-7.1,8.6-11.1c2-3.7,3.2-6.9,3.6-9.7
				C329.7-654.7,329.3-657.3,328-659.8z M262.3-659.5c-2.1-5.3-2.1-10.6-0.1-15.9c2-5.3,5.6-9.2,10.8-11.8c4.8-2.4,9.2-2.5,12.9-0.3
				L262.3-659.5z"/>
			<path d="M212.2-756c-4,0-7.1,1.3-9.5,4c-2.4,2.6-3.6,6.2-3.8,10.7v3v104.3v3c0,4.4,1.2,7.9,3.7,10.6c2.4,2.7,5.7,4.1,9.6,4.1
				c4.2,0,7.5-1.4,9.8-4.2c2.3-2.8,3.4-6.7,3.3-11.7v-1.8v-105.5v-1.8c0-4.4-1.2-7.9-3.6-10.6C219.3-754.6,216.2-756,212.2-756z"/>
			<path d="M3.9-642h-25.5l67.2-103.4c2-3,1.4-7.2-1.5-9.5c-3.1-2.5-7.6-2-10.1,1.1l-34.2,42.2h-45.7c-4,0-7.2,1.1-9.7,3.3
				c-2.5,2.2-3.8,5.1-3.8,8.8c0,3.6,1.2,6.4,3.7,8.6c2.4,2.2,5.7,3.3,9.8,3.5h26.1L-57.4-641c-0.3,0.4-0.6,0.8-0.9,1.3
				c-4.5,6.9-2.5,16,4.4,20.5c4.1,2.6,8.9,3,13.1,1.5H3.9c4,0,7.2-1.1,9.6-3.4c2.4-2.2,3.7-5.2,3.7-8.7s-1.2-6.4-3.6-8.6
				C11.3-640.7,8-641.9,3.9-642z"/>
			<path d="M177.6-642h-27.2l11.9-15.5l24.4-31.9c2.2-3,3.4-5.8,3.4-8.3c0-4.2-1.5-7.6-4.5-10.1c-2.6-2.3-6.1-3.5-10.3-3.7l0,0h-1.6
				h-3.4h-42.6c-4,0-7.2,1.1-9.7,3.3c-2.5,2.2-3.8,5.1-3.8,8.8c0,3.6,1.2,6.4,3.7,8.6c2.4,2.2,5.7,3.3,9.8,3.5h24l-9.5,12.3l0,0
				L117.8-643c-1.2,1.6-2.2,3-3,4.1c-0.8,1.1-1.4,2.1-1.8,2.9c-0.4,0.8-0.7,1.6-0.8,2.3c-0.1,0.7-0.2,1.6-0.2,2.5
				c0,2.2,0.7,4.5,2.1,6.8c1.4,2.3,3.1,4,5.2,5c1.3,0.7,2.6,1.1,3.8,1.3c1,0.2,2.4,0.3,3.9,0.3l0,0h0.7h4.3h45.7
				c4,0,7.2-1.1,9.6-3.4c2.4-2.2,3.7-5.2,3.7-8.7s-1.2-6.4-3.6-8.6C185-640.7,181.7-641.9,177.6-642z"/>
			<path d="M-56.6-765.1c-2.1-2.1-5.4-2.1-7.5,0l-24.6,24.4c-0.8,0.8-1.5,1.8-2.1,2.9c-2.7,5.4-0.5,12,4.9,14.8
				c5.4,2.7,12,0.5,14.8-4.9l15.6-30.9C-54.6-760.9-54.9-763.4-56.6-765.1z"/>
			<path d="M154.7-733.2c3.4,1.8,7.7,0.5,9.5-2.9l9.5-17.8c0.6-1.2,0.5-2.8-0.5-3.9c-1.2-1.4-3.4-1.5-4.8-0.3l-15.1,13.4
				c-0.6,0.5-1.1,1.2-1.5,1.9C149.9-739.3,151.2-735,154.7-733.2z"/>
		</g>
		<g>
			<g>
				<path class="st3" d="M-118.1-715.6c-1.5-1.5-3.3-2.6-5.4-3.5c-2.1-0.9-4.3-1.3-6.6-1.3c-7.3,0-14.1,2.8-20.4,8.3
					c-2.6-5.2-6.7-7.7-12.1-7.7c-4.9,0-8.7,2.3-11.3,6.9c-0.4,0.7-0.7,1.3-1,2c-0.3,0.7-0.4,1.4-0.5,2.3c-0.1,0.9-0.1,1.9-0.2,3.2
					c-0.1,1.3-0.1,2.9-0.1,4.9v59.7v3c0,4.4,1.2,7.9,3.7,10.6c2.4,2.7,5.7,4.1,9.6,4.1c4,0,7.1-1.3,9.4-4c2.3-2.6,3.5-6.2,3.7-10.7
					v-3v-40.7c0-4.4,0.4-7.5,1.3-9.3c0.9-1.8,2.3-2.8,4.5-2.8c1.5,0,3.2,0.6,5.2,1.8c2.5,1.5,4.3,2.4,5.3,2.8c1,0.4,2.4,0.6,4.3,0.6
					c4.4,0,8.1-1.5,11.2-4.6c3.1-3,4.7-6.7,4.7-11.1c0-2.2-0.5-4.4-1.4-6.3C-115.3-712.4-116.6-714.1-118.1-715.6z"/>
				<path class="st3" d="M-89.6-719.8c-3.8,0-6.9,1.3-9.3,4c-2.4,2.6-3.6,6.2-3.8,10.7v3v61.3v3c0,4.4,1.2,7.9,3.7,10.6
					c2.4,2.7,5.7,4.1,9.6,4.1c3.8,0,6.9-1.3,9.3-4c2.4-2.6,3.6-6.2,3.8-10.7v-3v-61.3v-3c0-4.4-1.2-7.9-3.7-10.6
					C-82.4-718.4-85.6-719.8-89.6-719.8z"/>
				<path class="st3" d="M-5.4-718.4h-47.5c-4,0-7.2,1.1-9.7,3.3c-2.5,2.2-3.8,5.1-3.8,8.8c0,3.6,1.2,6.4,3.7,8.6
					c2.4,2.2,5.7,3.3,9.8,3.5h29L-5.4-718.4z"/>
				<path class="st3" d="M-212.8-762.8c-3.8,0-6.9,1.3-9.3,4c-2.4,2.6-3.6,6.2-3.8,10.7v3v33.9c-4.1-3.1-8.2-5.4-12.4-6.9
					c-4.2-1.4-8.8-2.2-14-2.2c-6.5,0-12.5,1.3-17.9,3.8c-5.5,2.5-10.2,5.9-14.3,10.3c-4,4.4-7.2,9.5-9.5,15.5
					c-2.3,5.9-3.5,12.4-3.5,19.2c0,7,1.2,13.5,3.5,19.5c2.3,6,5.5,11.2,9.5,15.6c4,4.4,8.9,7.8,14.5,10.2c5.6,2.4,11.7,3.7,18.3,3.7
					c5.6,0,10.4-0.8,14.5-2.3c4.1-1.5,8.3-4.1,12.5-7.8c2.2,6.3,6.4,9.4,12.5,9.4c2.4,0,4.5-0.5,6.3-1.5c1.8-1,3.3-2.4,4.4-4.3
					c0.8-1.3,1.3-2.8,1.6-4.4c0.3-1.6,0.4-4,0.4-7.1v-104.7v-3c0-4.4-1.2-7.9-3.7-10.6C-205.6-761.5-208.8-762.8-212.8-762.8z
					 M-227.1-662.9c-1.2,2.7-2.8,5.1-4.8,7.2c-2,2.1-4.3,3.7-7,4.9c-2.7,1.2-5.6,1.8-8.6,1.8c-3.2,0-6.1-0.6-8.8-1.8
					c-2.7-1.2-5.1-2.8-7-4.9c-2-2.1-3.6-4.5-4.8-7.2c-1.2-2.7-1.8-5.7-1.8-8.9c0-3.1,0.6-5.9,1.8-8.6c1.2-2.7,2.8-5,4.9-7
					c2-2,4.4-3.6,7.1-4.8c2.7-1.2,5.6-1.8,8.6-1.8c3,0,5.9,0.6,8.6,1.8c2.7,1.2,5.1,2.8,7,4.8c2,2,3.6,4.4,4.8,7.1
					c1.2,2.7,1.8,5.6,1.8,8.7S-225.9-665.6-227.1-662.9z"/>
				<path class="st3" d="M170.6-648.8h-27.2l11.9-15.5l24.4-31.9c2.2-3,3.4-5.8,3.4-8.3c0-4.2-1.5-7.6-4.5-10.1
					c-2.6-2.3-6.1-3.5-10.3-3.7l0,0h-1.6h-3.4h-42.6c-4,0-7.2,1.1-9.7,3.3c-2.5,2.2-3.8,5.1-3.8,8.8c0,3.6,1.2,6.4,3.7,8.6
					c2.4,2.2,5.7,3.3,9.8,3.5h24l-9.5,12.3l0,0l-24.7,32.1c-1.2,1.6-2.2,3-3,4.1c-0.8,1.1-1.4,2.1-1.8,2.9c-0.4,0.8-0.7,1.6-0.8,2.3
					c-0.1,0.7-0.2,1.6-0.2,2.5c0,2.2,0.7,4.5,2.1,6.8c1.4,2.3,3.1,4,5.2,5c1.3,0.7,2.6,1.1,3.8,1.3c1,0.2,2.4,0.3,3.9,0.3l0,0h0.7
					h4.3h45.7c4,0,7.2-1.1,9.6-3.4c2.4-2.2,3.7-5.2,3.7-8.7s-1.2-6.4-3.6-8.6C178-647.5,174.7-648.6,170.6-648.8z"/>
				<path class="st3" d="M321-666.5c-1.7-3.3-4.2-5.5-7.5-6.7c-3.4-1.1-6.8-0.8-10.2,0.9c-1.3,0.7-2.4,1.5-3.3,2.4
					c-0.9,1-1.8,2.4-2.7,4.1c-1.5,3-3.1,5.4-4.9,7.2c-1.8,1.9-3.9,3.4-6.3,4.6c-4.9,2.4-9.9,3-15.2,1.6l30.7-37.1
					c2.7-3.4,4.4-6.4,5-8.8c0.6-2.5,0.3-5-1-7.6c-2-3.9-4.9-7.1-8.7-9.6c-3.8-2.5-8.2-4.3-12.9-5.3c-4.8-1-9.8-1.2-15.1-0.5
					c-5.3,0.7-10.3,2.2-15,4.5c-5.9,3-10.9,6.9-14.9,11.8c-4.1,4.9-7.1,10.3-9,16.3c-2,5.9-2.8,12.1-2.5,18.5
					c0.3,6.4,2,12.6,4.9,18.5c3,5.9,6.9,10.9,12,15.1c5,4.1,10.6,7.2,16.6,9.2c6,2,12.3,2.9,18.8,2.6c6.5-0.3,12.7-1.9,18.6-4.9
					c4.3-2.1,8.2-4.9,11.8-8.2c3.6-3.4,6.5-7.1,8.6-11.1c2-3.7,3.2-6.9,3.6-9.7C322.7-661.4,322.3-664.1,321-666.5z M255.3-666.3
					c-2.1-5.3-2.1-10.6-0.1-15.9c2-5.3,5.6-9.2,10.8-11.8c4.8-2.4,9.2-2.5,12.9-0.3L255.3-666.3z"/>
				<path class="st3" d="M-3.1-648.8h-30.2l-18.5,24.2h48.7c4,0,7.2-1.1,9.6-3.4c2.4-2.2,3.7-5.2,3.7-8.7s-1.2-6.4-3.6-8.6
					C4.2-647.5,1-648.6-3.1-648.8z"/>
				<path class="st3" d="M205.2-762.8c-4,0-7.1,1.3-9.5,4c-2.4,2.6-3.6,6.2-3.8,10.7v3v104.3v3c0,4.4,1.2,7.9,3.7,10.6
					c2.4,2.7,5.7,4.1,9.6,4.1c4.2,0,7.5-1.4,9.8-4.2c2.3-2.8,3.4-6.7,3.3-11.7v-1.8v-105.5v-1.8c0-4.4-1.2-7.9-3.6-10.6
					C212.3-761.4,209.1-762.8,205.2-762.8z"/>
				<path class="st3" d="M83.8-648.8H53.6L35-624.6h48.7c4,0,7.2-1.1,9.6-3.4c2.4-2.2,3.7-5.2,3.7-8.7s-1.2-6.4-3.6-8.6
					C91.1-647.5,87.9-648.6,83.8-648.8z"/>
				<path class="st3" d="M81.5-718.4H34c-4,0-7.2,1.1-9.7,3.3c-2.5,2.2-3.8,5.1-3.8,8.8c0,3.6,1.2,6.4,3.7,8.6
					c2.4,2.2,5.7,3.3,9.8,3.5h29L81.5-718.4z"/>
			</g>
		</g>
		<g>
			<g>
				<path class="st4" d="M38.6-752.2l-79.1,121.8c-4.5,6.9-13.6,8.8-20.5,4.4c-6.9-4.5-8.8-13.6-4.4-20.5c0.3-0.4,0.6-0.9,0.9-1.3
					L27-760.6c2.5-3.1,7-3.6,10.1-1.1C40-759.3,40.6-755.2,38.6-752.2z"/>
				<path class="st4" d="M125.9-752.2L46.7-630.4c-4.5,6.9-13.6,8.8-20.5,4.4c-6.9-4.5-8.8-13.6-4.4-20.5c0.3-0.4,0.6-0.9,0.9-1.3
					l91.4-112.8c2.5-3.1,7-3.6,10.1-1.1C127.2-759.3,127.8-755.2,125.9-752.2z"/>
				<path class="st4" d="M-62.7-765.7l-15.6,30.9c-2.7,5.4-9.3,7.6-14.8,4.9c-5.4-2.7-7.6-9.3-4.9-14.8c0.5-1.1,1.3-2.1,2.1-2.9
					l24.6-24.4c2.1-2.1,5.5-2.1,7.5,0C-62-770.2-61.7-767.7-62.7-765.7z"/>
				<path class="st4" d="M168.6-758.7l-9.5,17.8c-1.8,3.4-6.1,4.7-9.5,2.9c-3.4-1.8-4.7-6.1-2.9-9.5c0.4-0.7,0.9-1.4,1.5-1.9
					l15.1-13.4c1.4-1.2,3.6-1.1,4.8,0.3C169.1-761.5,169.2-759.9,168.6-758.7z"/>
			</g>
		</g>
	</g>
	<g>
		<g class="st2">
			<path d="M-111.1-314.8c-1.5-1.5-3.3-2.6-5.4-3.5c-2.1-0.9-4.3-1.3-6.6-1.3c-7.3,0-14.1,2.8-20.4,8.3c-2.6-5.2-6.7-7.7-12.1-7.7
				c-4.9,0-8.7,2.3-11.3,6.9c-0.4,0.7-0.7,1.3-1,2c-0.3,0.7-0.4,1.4-0.5,2.3c-0.1,0.9-0.1,1.9-0.2,3.2c-0.1,1.3-0.1,2.9-0.1,4.9
				v59.7v3c0,4.4,1.2,7.9,3.7,10.6c2.4,2.7,5.7,4.1,9.6,4.1c4,0,7.1-1.3,9.4-4c2.3-2.6,3.5-6.2,3.7-10.7v-3v-40.7
				c0-4.4,0.4-7.5,1.3-9.3c0.9-1.8,2.3-2.8,4.5-2.8c1.5,0,3.2,0.6,5.2,1.8c2.5,1.5,4.3,2.4,5.3,2.8c1,0.4,2.4,0.6,4.3,0.6
				c4.4,0,8.1-1.5,11.2-4.6c3.1-3,4.7-6.7,4.7-11.1c0-2.2-0.5-4.4-1.4-6.3C-108.3-311.6-109.5-313.3-111.1-314.8z"/>
			<path d="M-82.6-318.9c-3.8,0-6.9,1.3-9.3,4c-2.4,2.6-3.6,6.2-3.8,10.7v3v61.3v3c0,4.4,1.2,7.9,3.7,10.6c2.4,2.7,5.7,4.1,9.6,4.1
				c3.8,0,6.9-1.3,9.3-4c2.4-2.6,3.6-6.2,3.8-10.7v-3v-61.3v-3c0-4.4-1.2-7.9-3.7-10.6C-75.4-317.6-78.6-318.9-82.6-318.9z"/>
			<path d="M-205.8-362c-3.8,0-6.9,1.3-9.3,4c-2.4,2.6-3.6,6.2-3.8,10.7v3v33.9c-4.1-3.1-8.2-5.4-12.4-6.9c-4.2-1.4-8.8-2.2-14-2.2
				c-6.5,0-12.5,1.3-17.9,3.8c-5.5,2.5-10.2,5.9-14.3,10.3c-4,4.4-7.2,9.5-9.5,15.5c-2.3,5.9-3.5,12.4-3.5,19.2
				c0,7,1.2,13.5,3.5,19.5c2.3,6,5.5,11.2,9.5,15.6c4,4.4,8.9,7.8,14.5,10.2c5.6,2.4,11.7,3.7,18.3,3.7c5.6,0,10.4-0.8,14.5-2.3
				c4.1-1.5,8.3-4.1,12.5-7.8c2.2,6.3,6.4,9.4,12.5,9.4c2.4,0,4.5-0.5,6.3-1.5c1.8-1,3.3-2.4,4.4-4.3c0.8-1.3,1.3-2.8,1.6-4.4
				c0.3-1.6,0.4-4,0.4-7.1v-104.7v-3c0-4.4-1.2-7.9-3.7-10.6C-198.6-360.7-201.8-362-205.8-362z M-220-262c-1.2,2.7-2.8,5.1-4.8,7.2
				c-2,2.1-4.3,3.7-7,4.9c-2.7,1.2-5.6,1.8-8.6,1.8c-3.2,0-6.1-0.6-8.8-1.8c-2.7-1.2-5.1-2.8-7-4.9c-2-2.1-3.6-4.5-4.8-7.2
				c-1.2-2.7-1.8-5.7-1.8-8.9c0-3.1,0.6-5.9,1.8-8.6c1.2-2.7,2.8-5,4.9-7c2-2,4.4-3.6,7.1-4.8c2.7-1.2,5.6-1.8,8.6-1.8
				c3,0,5.9,0.6,8.6,1.8c2.7,1.2,5.1,2.8,7,4.8c2,2,3.6,4.4,4.8,7.1c1.2,2.7,1.8,5.6,1.8,8.7S-218.8-264.8-220-262z"/>
			<path d="M90.8-247.9H65.7l67.2-103.4c2-3,1.4-7.2-1.5-9.5c-3.1-2.5-7.6-2-10.1,1.1L87-317.5H41c-4,0-7.2,1.1-9.7,3.3
				c-2.5,2.2-3.8,5.1-3.8,8.8c0,3.6,1.2,6.4,3.7,8.6c2.4,2.2,5.7,3.3,9.8,3.5h26.4L29.8-247c-0.3,0.4-0.6,0.8-0.9,1.3
				c-4.5,6.9-2.5,16,4.4,20.5c4.1,2.6,8.9,3,13.1,1.5h44.4c4,0,7.2-1.1,9.6-3.4c2.4-2.2,3.7-5.2,3.7-8.7s-1.2-6.4-3.6-8.6
				C98.1-246.7,94.9-247.8,90.8-247.9z"/>
			<path d="M328-265.7c-1.7-3.3-4.2-5.5-7.5-6.7c-3.4-1.1-6.8-0.8-10.2,0.9c-1.3,0.7-2.4,1.5-3.3,2.4c-0.9,1-1.8,2.4-2.7,4.1
				c-1.5,3-3.1,5.4-4.9,7.2c-1.8,1.9-3.9,3.4-6.3,4.6c-4.9,2.4-9.9,3-15.2,1.6l30.7-37.1c2.7-3.4,4.4-6.4,5-8.8c0.6-2.5,0.3-5-1-7.6
				c-2-3.9-4.9-7.1-8.7-9.6c-3.8-2.5-8.2-4.3-12.9-5.3c-4.8-1-9.8-1.2-15.1-0.5c-5.3,0.7-10.3,2.2-15,4.5c-5.9,3-10.9,6.9-14.9,11.8
				c-4.1,4.9-7.1,10.3-9,16.3c-2,5.9-2.8,12.1-2.5,18.5c0.3,6.4,2,12.6,4.9,18.5c3,5.9,6.9,10.9,12,15.1c5,4.1,10.6,7.2,16.6,9.2
				c6,2,12.3,2.9,18.8,2.6c6.5-0.3,12.7-1.9,18.6-4.9c4.3-2.1,8.2-4.9,11.8-8.2c3.6-3.4,6.5-7.1,8.6-11.1c2-3.7,3.2-6.9,3.6-9.7
				C329.7-260.6,329.3-263.2,328-265.7z M262.3-265.5c-2.1-5.3-2.1-10.6-0.1-15.9c2-5.3,5.6-9.2,10.8-11.8c4.8-2.4,9.2-2.5,12.9-0.3
				L262.3-265.5z"/>
			<path d="M212.2-361.9c-4,0-7.1,1.3-9.5,4c-2.4,2.6-3.6,6.2-3.8,10.7v3V-240v3c0,4.4,1.2,7.9,3.7,10.6c2.4,2.7,5.7,4.1,9.6,4.1
				c4.2,0,7.5-1.4,9.8-4.2c2.3-2.8,3.4-6.7,3.3-11.7v-1.8v-105.5v-1.8c0-4.4-1.2-7.9-3.6-10.6C219.3-360.6,216.2-361.9,212.2-361.9z
				"/>
			<path d="M3.9-247.9h-25.5l67.2-103.4c2-3,1.4-7.2-1.5-9.5c-3.1-2.5-7.6-2-10.1,1.1l-34.2,42.2h-45.7c-4,0-7.2,1.1-9.7,3.3
				c-2.5,2.2-3.8,5.1-3.8,8.8c0,3.6,1.2,6.4,3.7,8.6c2.4,2.2,5.7,3.3,9.8,3.5h26.1L-57.4-247c-0.3,0.4-0.6,0.8-0.9,1.3
				c-4.5,6.9-2.5,16,4.4,20.5c4.1,2.6,8.9,3,13.1,1.5H3.9c4,0,7.2-1.1,9.6-3.4c2.4-2.2,3.7-5.2,3.7-8.7s-1.2-6.4-3.6-8.6
				C11.3-246.7,8-247.8,3.9-247.9z"/>
			<path d="M177.6-247.9h-27.2l11.9-15.5l24.4-31.9c2.2-3,3.4-5.8,3.4-8.3c0-4.2-1.5-7.6-4.5-10.1c-2.6-2.3-6.1-3.5-10.3-3.7l0,0
				h-1.6h-3.4h-42.6c-4,0-7.2,1.1-9.7,3.3c-2.5,2.2-3.8,5.1-3.8,8.8c0,3.6,1.2,6.4,3.7,8.6c2.4,2.2,5.7,3.3,9.8,3.5h24l-9.5,12.3
				l0,0l-24.7,32.1c-1.2,1.6-2.2,3-3,4.1c-0.8,1.1-1.4,2.1-1.8,2.9c-0.4,0.8-0.7,1.6-0.8,2.3c-0.1,0.7-0.2,1.6-0.2,2.5
				c0,2.2,0.7,4.5,2.1,6.8c1.4,2.3,3.1,4,5.2,5c1.3,0.7,2.6,1.1,3.8,1.3c1,0.2,2.4,0.3,3.9,0.3l0,0h0.7h4.3h45.7
				c4,0,7.2-1.1,9.6-3.4c2.4-2.2,3.7-5.2,3.7-8.7s-1.2-6.4-3.6-8.6C185-246.7,181.7-247.8,177.6-247.9z"/>
			<path d="M-56.6-371c-2.1-2.1-5.4-2.1-7.5,0l-24.6,24.4c-0.8,0.8-1.5,1.8-2.1,2.9c-2.7,5.4-0.5,12,4.9,14.8
				c5.4,2.7,12,0.5,14.8-4.9l15.6-30.9C-54.6-366.9-54.9-369.4-56.6-371z"/>
			<path d="M154.7-339.2c3.4,1.8,7.7,0.5,9.5-2.9l9.5-17.8c0.6-1.2,0.5-2.8-0.5-3.9c-1.2-1.4-3.4-1.5-4.8-0.3l-15.1,13.4
				c-0.6,0.5-1.1,1.2-1.5,1.9C149.9-345.2,151.2-341,154.7-339.2z"/>
		</g>
		<g>
			<g>
				<path class="st3" d="M-118.1-321.5c-1.5-1.5-3.3-2.6-5.4-3.5c-2.1-0.9-4.3-1.3-6.6-1.3c-7.3,0-14.1,2.8-20.4,8.3
					c-2.6-5.2-6.7-7.7-12.1-7.7c-4.9,0-8.7,2.3-11.3,6.9c-0.4,0.7-0.7,1.3-1,2c-0.3,0.7-0.4,1.4-0.5,2.3c-0.1,0.9-0.1,1.9-0.2,3.2
					c-0.1,1.3-0.1,2.9-0.1,4.9v59.7v3c0,4.4,1.2,7.9,3.7,10.6c2.4,2.7,5.7,4.1,9.6,4.1c4,0,7.1-1.3,9.4-4c2.3-2.6,3.5-6.2,3.7-10.7
					v-3v-40.7c0-4.4,0.4-7.5,1.3-9.3c0.9-1.8,2.3-2.8,4.5-2.8c1.5,0,3.2,0.6,5.2,1.8c2.5,1.5,4.3,2.4,5.3,2.8c1,0.4,2.4,0.6,4.3,0.6
					c4.4,0,8.1-1.5,11.2-4.6c3.1-3,4.7-6.7,4.7-11.1c0-2.2-0.5-4.4-1.4-6.3C-115.3-318.4-116.6-320.1-118.1-321.5z"/>
				<path class="st3" d="M-89.6-325.7c-3.8,0-6.9,1.3-9.3,4c-2.4,2.6-3.6,6.2-3.8,10.7v3v61.3v3c0,4.4,1.2,7.9,3.7,10.6
					c2.4,2.7,5.7,4.1,9.6,4.1c3.8,0,6.9-1.3,9.3-4c2.4-2.6,3.6-6.2,3.8-10.7v-3v-61.3v-3c0-4.4-1.2-7.9-3.7-10.6
					C-82.4-324.3-85.6-325.7-89.6-325.7z"/>
				<path class="st3" d="M-5.4-324.3h-47.5c-4,0-7.2,1.1-9.7,3.3c-2.5,2.2-3.8,5.1-3.8,8.8c0,3.6,1.2,6.4,3.7,8.6
					c2.4,2.2,5.7,3.3,9.8,3.5h29L-5.4-324.3z"/>
				<path class="st3" d="M-212.8-368.8c-3.8,0-6.9,1.3-9.3,4c-2.4,2.6-3.6,6.2-3.8,10.7v3v33.9c-4.1-3.1-8.2-5.4-12.4-6.9
					c-4.2-1.4-8.8-2.2-14-2.2c-6.5,0-12.5,1.3-17.9,3.8c-5.5,2.5-10.2,5.9-14.3,10.3c-4,4.4-7.2,9.5-9.5,15.5
					c-2.3,5.9-3.5,12.4-3.5,19.2c0,7,1.2,13.5,3.5,19.5c2.3,6,5.5,11.2,9.5,15.6c4,4.4,8.9,7.8,14.5,10.2c5.6,2.4,11.7,3.7,18.3,3.7
					c5.6,0,10.4-0.8,14.5-2.3c4.1-1.5,8.3-4.1,12.5-7.8c2.2,6.3,6.4,9.4,12.5,9.4c2.4,0,4.5-0.5,6.3-1.5c1.8-1,3.3-2.4,4.4-4.3
					c0.8-1.3,1.3-2.8,1.6-4.4c0.3-1.6,0.4-4,0.4-7.1v-104.7v-3c0-4.4-1.2-7.9-3.7-10.6C-205.6-367.4-208.8-368.8-212.8-368.8z
					 M-227.1-268.8c-1.2,2.7-2.8,5.1-4.8,7.2c-2,2.1-4.3,3.7-7,4.9c-2.7,1.2-5.6,1.8-8.6,1.8c-3.2,0-6.1-0.6-8.8-1.8
					c-2.7-1.2-5.1-2.8-7-4.9c-2-2.1-3.6-4.5-4.8-7.2c-1.2-2.7-1.8-5.7-1.8-8.9c0-3.1,0.6-5.9,1.8-8.6c1.2-2.7,2.8-5,4.9-7
					c2-2,4.4-3.6,7.1-4.8c2.7-1.2,5.6-1.8,8.6-1.8c3,0,5.9,0.6,8.6,1.8c2.7,1.2,5.1,2.8,7,4.8c2,2,3.6,4.4,4.8,7.1
					c1.2,2.7,1.8,5.6,1.8,8.7S-225.9-271.5-227.1-268.8z"/>
				<path class="st3" d="M170.6-254.7h-27.2l11.9-15.5l24.4-31.9c2.2-3,3.4-5.8,3.4-8.3c0-4.2-1.5-7.6-4.5-10.1
					c-2.6-2.3-6.1-3.5-10.3-3.7l0,0h-1.6h-3.4h-42.6c-4,0-7.2,1.1-9.7,3.3c-2.5,2.2-3.8,5.1-3.8,8.8c0,3.6,1.2,6.4,3.7,8.6
					c2.4,2.2,5.7,3.3,9.8,3.5h24l-9.5,12.3l0,0l-24.7,32.1c-1.2,1.6-2.2,3-3,4.1c-0.8,1.1-1.4,2.1-1.8,2.9c-0.4,0.8-0.7,1.6-0.8,2.3
					c-0.1,0.7-0.2,1.6-0.2,2.5c0,2.2,0.7,4.5,2.1,6.8c1.4,2.3,3.1,4,5.2,5c1.3,0.7,2.6,1.1,3.8,1.3c1,0.2,2.4,0.3,3.9,0.3l0,0h0.7
					h4.3h45.7c4,0,7.2-1.1,9.6-3.4c2.4-2.2,3.7-5.2,3.7-8.7s-1.2-6.4-3.6-8.6C178-253.4,174.7-254.6,170.6-254.7z"/>
				<path class="st3" d="M321-272.5c-1.7-3.3-4.2-5.5-7.5-6.7c-3.4-1.1-6.8-0.8-10.2,0.9c-1.3,0.7-2.4,1.5-3.3,2.4
					c-0.9,1-1.8,2.4-2.7,4.1c-1.5,3-3.1,5.4-4.9,7.2c-1.8,1.9-3.9,3.4-6.3,4.6c-4.9,2.4-9.9,3-15.2,1.6l30.7-37.1
					c2.7-3.4,4.4-6.4,5-8.8c0.6-2.5,0.3-5-1-7.6c-2-3.9-4.9-7.1-8.7-9.6c-3.8-2.5-8.2-4.3-12.9-5.3c-4.8-1-9.8-1.2-15.1-0.5
					c-5.3,0.7-10.3,2.2-15,4.5c-5.9,3-10.9,6.9-14.9,11.8c-4.1,4.9-7.1,10.3-9,16.3c-2,5.9-2.8,12.1-2.5,18.5
					c0.3,6.4,2,12.6,4.9,18.5c3,5.9,6.9,10.9,12,15.1c5,4.1,10.6,7.2,16.6,9.2c6,2,12.3,2.9,18.8,2.6c6.5-0.3,12.7-1.9,18.6-4.9
					c4.3-2.1,8.2-4.9,11.8-8.2c3.6-3.4,6.5-7.1,8.6-11.1c2-3.7,3.2-6.9,3.6-9.7C322.7-267.4,322.3-270,321-272.5z M255.3-272.2
					c-2.1-5.3-2.1-10.6-0.1-15.9c2-5.3,5.6-9.2,10.8-11.8c4.8-2.4,9.2-2.5,12.9-0.3L255.3-272.2z"/>
				<path class="st3" d="M-3.1-254.7h-30.2l-18.5,24.2h48.7c4,0,7.2-1.1,9.6-3.4c2.4-2.2,3.7-5.2,3.7-8.7s-1.2-6.4-3.6-8.6
					C4.2-253.4,1-254.6-3.1-254.7z"/>
				<path class="st3" d="M205.2-368.7c-4,0-7.1,1.3-9.5,4c-2.4,2.6-3.6,6.2-3.8,10.7v3v104.3v3c0,4.4,1.2,7.9,3.7,10.6
					c2.4,2.7,5.7,4.1,9.6,4.1c4.2,0,7.5-1.4,9.8-4.2c2.3-2.8,3.4-6.7,3.3-11.7v-1.8v-105.5v-1.8c0-4.4-1.2-7.9-3.6-10.6
					C212.3-367.3,209.1-368.7,205.2-368.7z"/>
				<path class="st3" d="M83.8-254.7H53.6L35-230.5h48.7c4,0,7.2-1.1,9.6-3.4c2.4-2.2,3.7-5.2,3.7-8.7s-1.2-6.4-3.6-8.6
					C91.1-253.4,87.9-254.6,83.8-254.7z"/>
				<path class="st3" d="M81.5-324.3H34c-4,0-7.2,1.1-9.7,3.3c-2.5,2.2-3.8,5.1-3.8,8.8c0,3.6,1.2,6.4,3.7,8.6
					c2.4,2.2,5.7,3.3,9.8,3.5h29L81.5-324.3z"/>
			</g>
		</g>
		<g>
			<g>
				<path class="st4" d="M38.6-358.1l-79.1,121.8c-4.5,6.9-13.6,8.8-20.5,4.4s-8.8-13.6-4.4-20.5c0.3-0.4,0.6-0.9,0.9-1.3L27-366.6
					c2.5-3.1,7-3.6,10.1-1.1C40-365.3,40.6-361.2,38.6-358.1z"/>
				<path class="st4" d="M125.9-358.1L46.7-236.3c-4.5,6.9-13.6,8.8-20.5,4.4c-6.9-4.5-8.8-13.6-4.4-20.5c0.3-0.4,0.6-0.9,0.9-1.3
					l91.4-112.8c2.5-3.1,7-3.6,10.1-1.1C127.2-365.3,127.8-361.2,125.9-358.1z"/>
				<path class="st4" d="M-62.7-371.7l-15.6,30.9c-2.7,5.4-9.3,7.6-14.8,4.9c-5.4-2.7-7.6-9.3-4.9-14.8c0.5-1.1,1.3-2.1,2.1-2.9
					l24.6-24.4c2.1-2.1,5.5-2.1,7.5,0C-62-376.1-61.7-373.6-62.7-371.7z"/>
				<path class="st4" d="M168.6-364.7l-9.5,17.8c-1.8,3.4-6.1,4.7-9.5,2.9c-3.4-1.8-4.7-6.1-2.9-9.5c0.4-0.7,0.9-1.4,1.5-1.9
					l15.1-13.4c1.4-1.2,3.6-1.1,4.8,0.3C169.1-367.4,169.2-365.9,168.6-364.7z"/>
			</g>
		</g>
	</g>
	<g>
		<path class="st5" d="M726.3-715.6c-1.5-1.5-3.3-2.6-5.4-3.5c-2.1-0.9-4.3-1.3-6.6-1.3c-7.3,0-14.1,2.8-20.4,8.3
			c-2.6-5.2-6.7-7.7-12.1-7.7c-4.9,0-8.7,2.3-11.3,6.9c-0.4,0.7-0.7,1.3-1,2c-0.3,0.7-0.4,1.4-0.5,2.3c-0.1,0.9-0.1,1.9-0.2,3.2
			c-0.1,1.3-0.1,2.9-0.1,4.9v59.7v3c0,4.4,1.2,7.9,3.7,10.6c2.4,2.7,5.7,4.1,9.6,4.1c4,0,7.1-1.3,9.4-4c2.3-2.6,3.5-6.2,3.7-10.7v-3
			v-40.7c0-4.4,0.4-7.5,1.3-9.3c0.9-1.8,2.3-2.8,4.5-2.8c1.5,0,3.2,0.6,5.2,1.8c2.5,1.5,4.3,2.4,5.3,2.8c1,0.4,2.4,0.6,4.3,0.6
			c4.4,0,8.1-1.5,11.2-4.6c3.1-3,4.7-6.7,4.7-11.1c0-2.2-0.5-4.4-1.4-6.3C729.1-712.4,727.8-714.1,726.3-715.6z"/>
		<path class="st5" d="M754.8-719.8c-3.8,0-6.9,1.3-9.3,4c-2.4,2.6-3.6,6.2-3.8,10.7v3v61.3v3c0,4.4,1.2,7.9,3.7,10.6
			c2.4,2.7,5.7,4.1,9.6,4.1c3.8,0,6.9-1.3,9.3-4c2.4-2.6,3.6-6.2,3.8-10.7v-3v-61.3v-3c0-4.4-1.2-7.9-3.7-10.6
			C762-718.4,758.8-719.8,754.8-719.8z"/>
		<g>
			<path class="st5" d="M839-718.4h-47.5c-4,0-7.2,1.1-9.7,3.3c-2.5,2.2-3.8,5.1-3.8,8.8c0,3.6,1.2,6.4,3.7,8.6
				c2.4,2.2,5.7,3.3,9.8,3.5h29L839-718.4z"/>
			<path class="st5" d="M631.6-762.8c-3.8,0-6.9,1.3-9.3,4c-2.4,2.6-3.6,6.2-3.8,10.7v3v33.9c-4.1-3.1-8.2-5.4-12.4-6.9
				c-4.2-1.4-8.8-2.2-14-2.2c-6.5,0-12.5,1.3-17.9,3.8c-5.5,2.5-10.2,5.9-14.3,10.3c-4,4.4-7.2,9.5-9.5,15.5
				c-2.3,5.9-3.5,12.4-3.5,19.2c0,7,1.2,13.5,3.5,19.5c2.3,6,5.5,11.2,9.5,15.6c4,4.4,8.9,7.8,14.5,10.2c5.6,2.4,11.7,3.7,18.3,3.7
				c5.6,0,10.4-0.8,14.5-2.3c4.1-1.5,8.3-4.1,12.5-7.8c2.2,6.3,6.4,9.4,12.5,9.4c2.4,0,4.5-0.5,6.3-1.5c1.8-1,3.3-2.4,4.4-4.3
				c0.8-1.3,1.3-2.8,1.6-4.4c0.3-1.6,0.4-4,0.4-7.1v-104.7v-3c0-4.4-1.2-7.9-3.7-10.6C638.8-761.5,635.6-762.8,631.6-762.8z
				 M617.3-662.9c-1.2,2.7-2.8,5.1-4.8,7.2c-2,2.1-4.3,3.7-7,4.9c-2.7,1.2-5.6,1.8-8.6,1.8c-3.2,0-6.1-0.6-8.8-1.8
				c-2.7-1.2-5.1-2.8-7-4.9c-2-2.1-3.6-4.5-4.8-7.2c-1.2-2.7-1.8-5.7-1.8-8.9c0-3.1,0.6-5.9,1.8-8.6c1.2-2.7,2.8-5,4.9-7
				c2-2,4.4-3.6,7.1-4.8c2.7-1.2,5.6-1.8,8.6-1.8c3,0,5.9,0.6,8.6,1.8c2.7,1.2,5.1,2.8,7,4.8c2,2,3.6,4.4,4.8,7.1
				c1.2,2.7,1.8,5.6,1.8,8.7S618.5-665.6,617.3-662.9z"/>
			<path class="st5" d="M1015-648.8h-27.2l11.9-15.5l24.4-31.9c2.2-3,3.4-5.8,3.4-8.3c0-4.2-1.5-7.6-4.5-10.1
				c-2.6-2.3-6.1-3.5-10.3-3.7l0,0h-1.6h-3.4h-42.6c-4,0-7.2,1.1-9.7,3.3c-2.5,2.2-3.8,5.1-3.8,8.8c0,3.6,1.2,6.4,3.7,8.6
				c2.4,2.2,5.7,3.3,9.8,3.5h24l-9.5,12.3l0,0l-24.7,32.1c-1.2,1.6-2.2,3-3,4.1c-0.8,1.1-1.4,2.1-1.8,2.9c-0.4,0.8-0.7,1.6-0.8,2.3
				c-0.1,0.7-0.2,1.6-0.2,2.5c0,2.2,0.7,4.5,2.1,6.8c1.4,2.3,3.1,4,5.2,5c1.3,0.7,2.6,1.1,3.8,1.3c1,0.2,2.4,0.3,3.9,0.3l0,0h0.7
				h4.3h45.7c4,0,7.2-1.1,9.6-3.4c2.4-2.2,3.7-5.2,3.7-8.7s-1.2-6.4-3.6-8.6C1022.4-647.5,1019.1-648.6,1015-648.8z"/>
			<path class="st5" d="M1165.4-666.5c-1.7-3.3-4.2-5.5-7.5-6.7c-3.4-1.1-6.8-0.8-10.2,0.9c-1.3,0.7-2.4,1.5-3.3,2.4
				c-0.9,1-1.8,2.4-2.7,4.1c-1.5,3-3.1,5.4-4.9,7.2c-1.8,1.9-3.9,3.4-6.3,4.6c-4.9,2.4-9.9,3-15.2,1.6l30.7-37.1
				c2.7-3.4,4.4-6.4,5-8.8c0.6-2.5,0.3-5-1-7.6c-2-3.9-4.9-7.1-8.7-9.6c-3.8-2.5-8.2-4.3-12.9-5.3c-4.8-1-9.8-1.2-15.1-0.5
				c-5.3,0.7-10.3,2.2-15,4.5c-5.9,3-10.9,6.9-14.9,11.8c-4.1,4.9-7.1,10.3-9,16.3c-2,5.9-2.8,12.1-2.5,18.5
				c0.3,6.4,2,12.6,4.9,18.5c3,5.9,6.9,10.9,12,15.1c5,4.1,10.6,7.2,16.6,9.2c6,2,12.3,2.9,18.8,2.6c6.5-0.3,12.7-1.9,18.6-4.9
				c4.3-2.1,8.2-4.9,11.8-8.2c3.6-3.4,6.5-7.1,8.6-11.1c2-3.7,3.2-6.9,3.6-9.7C1167.1-661.4,1166.7-664.1,1165.4-666.5z
				 M1099.7-666.3c-2.1-5.3-2.1-10.6-0.1-15.9c2-5.3,5.6-9.2,10.8-11.8c4.8-2.4,9.2-2.5,12.9-0.3L1099.7-666.3z"/>
			<path class="st5" d="M841.3-648.8h-30.2l-18.5,24.2h48.7c4,0,7.2-1.1,9.6-3.4c2.4-2.2,3.7-5.2,3.7-8.7s-1.2-6.4-3.6-8.6
				C848.6-647.5,845.4-648.6,841.3-648.8z"/>
			<path class="st5" d="M1049.6-762.8c-4,0-7.1,1.3-9.5,4c-2.4,2.6-3.6,6.2-3.8,10.7v3v104.3v3c0,4.4,1.2,7.9,3.7,10.6
				c2.4,2.7,5.7,4.1,9.6,4.1c4.2,0,7.5-1.4,9.8-4.2c2.3-2.8,3.4-6.7,3.3-11.7v-1.8v-105.5v-1.8c0-4.4-1.2-7.9-3.6-10.6
				C1056.7-761.4,1053.5-762.8,1049.6-762.8z"/>
			<path class="st5" d="M928.2-648.8H898l-18.5,24.2h48.7c4,0,7.2-1.1,9.6-3.4c2.4-2.2,3.7-5.2,3.7-8.7s-1.2-6.4-3.6-8.6
				C935.5-647.5,932.3-648.6,928.2-648.8z"/>
			<path class="st5" d="M925.9-718.4h-47.5c-4,0-7.2,1.1-9.7,3.3c-2.5,2.2-3.8,5.1-3.8,8.8c0,3.6,1.2,6.4,3.7,8.6
				c2.4,2.2,5.7,3.3,9.8,3.5h29L925.9-718.4z"/>
		</g>
	</g>
	<g>
		<g>
			<path class="st6" d="M883-752.2l-79.1,121.8c-4.5,6.9-13.6,8.8-20.5,4.4c-6.9-4.5-8.8-13.6-4.4-20.5c0.3-0.4,0.6-0.9,0.9-1.3
				l91.4-112.8c2.5-3.1,7-3.6,10.1-1.1C884.4-759.3,885-755.2,883-752.2z"/>
			<path class="st6" d="M970.3-752.2l-79.1,121.8c-4.5,6.9-13.6,8.8-20.5,4.4c-6.9-4.5-8.8-13.6-4.4-20.5c0.3-0.4,0.6-0.9,0.9-1.3
				l91.4-112.8c2.5-3.1,7-3.6,10.1-1.1C971.6-759.3,972.2-755.2,970.3-752.2z"/>
			<path class="st6" d="M781.8-765.7l-15.6,30.9c-2.7,5.4-9.3,7.6-14.8,4.9c-5.4-2.7-7.6-9.3-4.9-14.8c0.5-1.1,1.3-2.1,2.1-2.9
				l24.6-24.4c2.1-2.1,5.5-2.1,7.5,0C782.4-770.2,782.8-767.7,781.8-765.7z"/>
			<path class="st6" d="M1013-758.7l-9.5,17.8c-1.8,3.4-6.1,4.7-9.5,2.9c-3.4-1.8-4.7-6.1-2.9-9.5c0.4-0.7,0.9-1.4,1.5-1.9
				l15.1-13.4c1.4-1.2,3.6-1.1,4.8,0.3C1013.5-761.5,1013.6-759.9,1013-758.7z"/>
		</g>
	</g>
	<g>
		<path class="st2" d="M21.1,8.3l-1.1,2c-0.2,0.4-0.7,0.5-1.1,0.3c-0.4-0.2-0.5-0.7-0.3-1.1c0-0.1,0.1-0.2,0.2-0.2l1.7-1.5
			c0.2-0.1,0.4-0.1,0.5,0C21.2,8,21.2,8.2,21.1,8.3z"/>
		<path class="st2" d="M13.7,8.9c-0.4,0-0.8,0.1-1,0.4c-0.3,0.3-0.4,0.7-0.4,1.2v0.3v3.8c-0.5-0.4-0.9-0.6-1.4-0.8
			c-0.5-0.2-1-0.2-1.6-0.2c-0.7,0-1.4,0.1-2,0.4c-0.6,0.3-1.2,0.7-1.6,1.2c-0.5,0.5-0.8,1.1-1.1,1.7c-0.3,0.7-0.4,1.4-0.4,2.2
			c0,0.8,0.1,1.5,0.4,2.2c0.3,0.7,0.6,1.3,1.1,1.7c0.5,0.5,1,0.9,1.6,1.1c0.6,0.3,1.3,0.4,2.1,0.4c0.6,0,1.2-0.1,1.6-0.3
			c0.5-0.2,0.9-0.5,1.4-0.9c0.3,0.7,0.7,1.1,1.4,1.1c0.3,0,0.5-0.1,0.7-0.2c0.2-0.1,0.4-0.3,0.5-0.5c0.1-0.1,0.1-0.3,0.2-0.5
			c0-0.2,0-0.4,0-0.8V10.9v-0.3c0-0.5-0.1-0.9-0.4-1.2C14.5,9.1,14.1,8.9,13.7,8.9z M12.1,20.1c-0.1,0.3-0.3,0.6-0.5,0.8
			c-0.2,0.2-0.5,0.4-0.8,0.6c-0.3,0.1-0.6,0.2-1,0.2c-0.4,0-0.7-0.1-1-0.2c-0.3-0.1-0.6-0.3-0.8-0.6c-0.2-0.2-0.4-0.5-0.5-0.8
			c-0.1-0.3-0.2-0.6-0.2-1c0-0.3,0.1-0.7,0.2-1c0.1-0.3,0.3-0.6,0.5-0.8c0.2-0.2,0.5-0.4,0.8-0.5c0.3-0.1,0.6-0.2,1-0.2
			c0.3,0,0.7,0.1,1,0.2c0.3,0.1,0.6,0.3,0.8,0.5c0.2,0.2,0.4,0.5,0.5,0.8c0.1,0.3,0.2,0.6,0.2,1C12.3,19.5,12.2,19.8,12.1,20.1z"/>
		<path class="st3" d="M12.9,8.1c-0.4,0-0.8,0.1-1,0.4c-0.3,0.3-0.4,0.7-0.4,1.2v0.3v3.8c-0.5-0.4-0.9-0.6-1.4-0.8
			c-0.5-0.2-1-0.2-1.6-0.2c-0.7,0-1.4,0.1-2,0.4c-0.6,0.3-1.2,0.7-1.6,1.2C4.4,15,4,15.6,3.8,16.2c-0.3,0.7-0.4,1.4-0.4,2.2
			c0,0.8,0.1,1.5,0.4,2.2c0.3,0.7,0.6,1.3,1.1,1.7c0.5,0.5,1,0.9,1.6,1.1c0.6,0.3,1.3,0.4,2.1,0.4c0.6,0,1.2-0.1,1.6-0.3
			c0.5-0.2,0.9-0.5,1.4-0.9c0.3,0.7,0.7,1.1,1.4,1.1c0.3,0,0.5-0.1,0.7-0.2c0.2-0.1,0.4-0.3,0.5-0.5c0.1-0.1,0.1-0.3,0.2-0.5
			c0-0.2,0-0.4,0-0.8V10.1V9.8c0-0.5-0.1-0.9-0.4-1.2C13.7,8.3,13.3,8.1,12.9,8.1z M11.3,19.4c-0.1,0.3-0.3,0.6-0.5,0.8
			c-0.2,0.2-0.5,0.4-0.8,0.6c-0.3,0.1-0.6,0.2-1,0.2c-0.4,0-0.7-0.1-1-0.2c-0.3-0.1-0.6-0.3-0.8-0.6c-0.2-0.2-0.4-0.5-0.5-0.8
			c-0.1-0.3-0.2-0.6-0.2-1c0-0.3,0.1-0.7,0.2-1c0.1-0.3,0.3-0.6,0.5-0.8c0.2-0.2,0.5-0.4,0.8-0.5c0.3-0.1,0.6-0.2,1-0.2
			c0.3,0,0.7,0.1,1,0.2c0.3,0.1,0.6,0.3,0.8,0.5c0.2,0.2,0.4,0.5,0.5,0.8c0.1,0.3,0.2,0.6,0.2,1C11.5,18.7,11.4,19.1,11.3,19.4z"/>
		<path class="st2" d="M23.8,21.7h-2.9l7.5-11.6c0.2-0.3,0.2-0.8-0.2-1.1c-0.3-0.3-0.9-0.2-1.1,0.1l-3.8,4.7h-5.1
			c-0.4,0-0.8,0.1-1.1,0.4c-0.3,0.2-0.4,0.6-0.4,1c0,0.4,0.1,0.7,0.4,1c0.3,0.2,0.6,0.4,1.1,0.4h2.9l-4.2,5.2c0,0-0.1,0.1-0.1,0.1
			c-0.5,0.8-0.3,1.8,0.5,2.3c0.5,0.3,1,0.3,1.5,0.2h5c0.4,0,0.8-0.1,1.1-0.4c0.3-0.3,0.4-0.6,0.4-1s-0.1-0.7-0.4-1
			C24.6,21.8,24.3,21.7,23.8,21.7z"/>
		<path class="st3" d="M22.7,13.1h-5.3c-0.4,0-0.8,0.1-1.1,0.4c-0.3,0.2-0.4,0.6-0.4,1c0,0.4,0.1,0.7,0.4,1c0.3,0.2,0.6,0.4,1.1,0.4
			h3.3L22.7,13.1z"/>
		<path class="st3" d="M23,20.9h-3.4l-2.1,2.7H23c0.4,0,0.8-0.1,1.1-0.4c0.3-0.3,0.4-0.6,0.4-1s-0.1-0.7-0.4-1
			C23.8,21.1,23.5,21,23,20.9z"/>
		<g>
			<g>
				<path class="st4" d="M27.7,9.3L18.8,23c-0.5,0.8-1.5,1-2.3,0.5c-0.8-0.5-1-1.5-0.5-2.3c0,0,0.1-0.1,0.1-0.1L26.4,8.4
					C26.7,8,27.2,8,27.5,8.3C27.8,8.5,27.9,9,27.7,9.3z"/>
			</g>
		</g>
		<path class="st4" d="M20.6,7.9l-1.1,2c-0.2,0.4-0.7,0.5-1.1,0.3c-0.4-0.2-0.5-0.7-0.3-1.1c0-0.1,0.1-0.2,0.2-0.2L20,7.5
			c0.2-0.1,0.4-0.1,0.5,0C20.6,7.6,20.7,7.8,20.6,7.9z"/>
	</g>
	<g id="_x35_DyI3k.tif">
		
			<image style="overflow:visible;" width="800" height="600" id="Layer_0_1_" xlink:href="D4D93411EE8ADE5E.png"  transform="matrix(1 0 0 1 195.9275 -1741.8145)">
		</image>
	</g>
	<g id="xhHMYq.tif">
		
			<image style="overflow:visible;" width="800" height="600" id="Layer_0_2_" xlink:href="D4D93411EE8ADE62.png"  transform="matrix(1 0 0 1 1367.3962 -1623.3955)">
		</image>
	</g>
</g>
<g id="Layer_4">
	<g class="st7">
		<path class="st3" d="M636.2-371l-1.5,83.7c0,1.4-1.2,2.5-2.5,2.5c-1.3,0-2.4-1.1-2.5-2.5l-1.5-83.7c0-2.2,1.7-4,3.9-4.1
			c2.2,0,4,1.7,4.1,3.9C636.2-371.1,636.2-371.1,636.2-371z"/>
	</g>
	<g class="st7">
		<path class="st3" d="M677.9-262.6l1.7-54.5c0-1.3,1.1-2.3,2.4-2.3c1.2,0,2.2,1,2.3,2.3l1.7,54.5c0.1,2.2-1.7,4.1-3.9,4.1
			c-2.2,0.1-4.1-1.7-4.1-3.9C677.9-262.5,677.9-262.5,677.9-262.6z"/>
	</g>
	<line class="st8" x1="1053.8" y1="-366.9" x2="1053.8" y2="-267.8"/>
	<g>
	</g>
	<g>
	</g>
	<g>
	</g>
	<g>
	</g>
	<g>
	</g>
	<g>
	</g>
	<g>
	</g>
	<g>
	</g>
	<g>
	</g>
	<g>
	</g>
	<g>
	</g>
	<g>
	</g>
	<g>
	</g>
	<g>
	</g>
	<g>
	</g>
</g>
</svg>
