<?xml version="1.0" encoding="utf-8"?>
<!-- Generator: Adobe Illustrator 21.1.0, SVG Export Plug-In . SVG Version: 6.00 Build 0)  -->
<svg version="1.1" xmlns="http://www.w3.org/2000/svg" xmlns:xlink="http://www.w3.org/1999/xlink" x="0px" y="0px"
	 viewBox="0 0 967 434.4" style="enable-background:new 0 0 967 434.4;" xml:space="preserve">
<style type="text/css">
	.st0{opacity:0.1;}
	.st1{fill:#FFFFFF;}
	.st2{fill:#B7F9EC;}
	.st3{opacity:0.12;fill:#FFFFFF;enable-background:new    ;}
</style>
<g id="Layer_2">
</g>
<g id="Layer_1">
	<path class="st0" d="M393.7,200.6c-1.9-1.8-4-3.2-6.5-4.2c-2.5-1-5.2-1.6-8.1-1.6c-8.8,0-17.1,3.4-24.8,10.1
		c-3.2-6.3-8.1-9.4-14.7-9.4c-6,0-10.5,2.8-13.7,8.4c-0.5,0.8-0.9,1.6-1.2,2.4c-0.3,0.8-0.5,1.7-0.6,2.8c-0.1,1-0.2,2.3-0.2,3.9
		c-0.1,1.5-0.1,3.5-0.1,5.9v72.6v3.6c0,5.3,1.5,9.6,4.5,12.9c3,3.3,6.9,4.9,11.7,4.9c4.8,0,8.6-1.6,11.5-4.8c2.8-3.2,4.3-7.6,4.5-13
		v-3.6v-49.4c0-5.3,0.5-9.1,1.6-11.3c1-2.2,2.9-3.4,5.4-3.4c1.8,0,3.9,0.7,6.3,2.2c3.1,1.8,5.2,2.9,6.4,3.4c1.2,0.5,2.9,0.7,5.2,0.7
		c5.3,0,9.8-1.8,13.6-5.5c3.8-3.7,5.7-8.2,5.7-13.5c0-2.7-0.6-5.3-1.7-7.7C397,204.5,395.5,202.4,393.7,200.6z"/>
	<path class="st0" d="M286.7,142.5c-4.7,0-8.4,1.6-11.3,4.8c-2.9,3.2-4.4,7.6-4.6,13v3.6v41.2c-5-3.8-10-6.6-15.1-8.4
		c-5.1-1.8-10.7-2.6-17-2.6c-7.9,0-15.2,1.5-21.8,4.6c-6.7,3.1-12.5,7.2-17.4,12.5c-4.9,5.3-8.8,11.6-11.6,18.8
		c-2.8,7.2-4.2,15-4.2,23.4c0,8.5,1.4,16.4,4.2,23.8c2.8,7.3,6.7,13.6,11.6,18.9c4.9,5.3,10.8,9.4,17.6,12.4
		c6.8,3,14.3,4.5,22.3,4.5c6.8,0,12.6-0.9,17.6-2.8c5-1.8,10-5,15.2-9.5c2.7,7.7,7.8,11.5,15.2,11.5c2.9,0,5.5-0.6,7.7-1.8
		c2.2-1.2,4-2.9,5.3-5.2c1-1.6,1.6-3.4,1.9-5.3c0.3-1.9,0.5-4.8,0.5-8.7V163.9v-3.6c0-5.3-1.5-9.6-4.5-12.9
		C295.4,144.1,291.5,142.5,286.7,142.5z M269.4,264c-1.4,3.3-3.4,6.2-5.8,8.8c-2.4,2.5-5.3,4.5-8.6,6c-3.3,1.5-6.8,2.2-10.5,2.2
		c-3.9,0-7.4-0.7-10.7-2.2c-3.3-1.5-6.1-3.4-8.6-6c-2.4-2.5-4.3-5.4-5.8-8.8c-1.4-3.3-2.2-6.9-2.2-10.8c0-3.7,0.7-7.2,2.2-10.5
		c1.4-3.2,3.4-6.1,5.9-8.5c2.5-2.4,5.4-4.4,8.7-5.8c3.3-1.5,6.8-2.2,10.5-2.2c3.7,0,7.2,0.7,10.5,2.2c3.3,1.5,6.1,3.4,8.6,5.8
		c2.4,2.4,4.3,5.3,5.8,8.6c1.4,3.3,2.2,6.9,2.2,10.6C271.5,257.2,270.8,260.7,269.4,264z"/>
	<path class="st0" d="M811.8,261.4c-2-4-5.1-6.7-9.2-8.1c-4.1-1.4-8.2-1-12.4,1.1c-1.6,0.8-2.9,1.8-4,3c-1.1,1.2-2.2,2.9-3.3,5
		c-1.8,3.6-3.8,6.5-6,8.8c-2.2,2.3-4.7,4.1-7.6,5.6c-5.9,2.9-12,3.6-18.4,1.9l37.3-45.1c3.3-4.2,5.3-7.7,6.1-10.7
		c0.8-3,0.3-6.1-1.2-9.2c-2.4-4.7-5.9-8.6-10.6-11.7c-4.7-3.1-9.9-5.2-15.7-6.4c-5.8-1.2-12-1.4-18.4-0.6
		c-6.4,0.8-12.5,2.6-18.3,5.5c-7.2,3.6-13.2,8.4-18.2,14.3c-4.9,6-8.6,12.6-11,19.8c-2.4,7.2-3.4,14.7-3,22.5
		c0.4,7.8,2.4,15.3,6,22.5c3.6,7.2,8.4,13.3,14.6,18.3c6.1,5,12.8,8.8,20.2,11.2c7.3,2.4,15,3.5,22.9,3.1c7.9-0.4,15.5-2.3,22.6-5.9
		c5.2-2.6,10-5.9,14.4-10c4.4-4.1,7.9-8.6,10.5-13.5c2.4-4.5,3.9-8.4,4.4-11.8C813.8,267.6,813.3,264.4,811.8,261.4z M731.8,261.7
		c-2.5-6.5-2.6-12.9-0.1-19.4c2.4-6.4,6.8-11.2,13.2-14.4c5.9-2.9,11.1-3.1,15.7-0.3L731.8,261.7z"/>
	<path class="st0" d="M662.5,143.2c-4.8,0-8.7,1.6-11.6,4.8c-2.9,3.2-4.4,7.6-4.6,13v3.6v126.8v3.6c0,5.3,1.5,9.6,4.5,12.9
		c3,3.3,6.9,4.9,11.7,4.9c5.1,0,9.1-1.7,11.9-5.1c2.8-3.4,4.1-8.1,4-14.2v-2.2V163.2v-2.2c0-5.3-1.4-9.6-4.3-12.9
		C671.2,144.9,667.3,143.2,662.5,143.2z"/>
	<path class="st0" d="M495.8,283.5h-31l81.7-125.8c2.4-3.7,1.7-8.7-1.8-11.5c-3.7-3-9.2-2.5-12.3,1.3l-41.6,51.4h-55.5
		c-4.8,0-8.8,1.3-11.8,4c-3,2.6-4.6,6.2-4.6,10.7c0,4.3,1.5,7.8,4.5,10.5c3,2.6,7,4.1,11.9,4.2H467l-45.7,56.4
		c-0.4,0.5-0.8,1-1.1,1.5c-5.4,8.3-3,19.5,5.3,24.9c4.9,3.2,10.8,3.7,16,1.8h54.4c4.8,0,8.7-1.4,11.7-4.1c3-2.7,4.5-6.3,4.5-10.6
		s-1.4-7.8-4.3-10.5C504.8,285,500.8,283.6,495.8,283.5z"/>
	<path class="st0" d="M611,283.6h-33l14.4-18.8l29.7-38.8c2.7-3.7,4.1-7.1,4.1-10.1c0-5.2-1.8-9.3-5.4-12.3
		c-3.2-2.7-7.4-4.2-12.5-4.5l0-0.1h-1.9h-4.2h-51.8c-4.8,0-8.8,1.3-11.8,4c-3,2.6-4.6,6.2-4.6,10.7c0,4.3,1.5,7.8,4.5,10.5
		c3,2.6,7,4.1,11.9,4.2h29.2l-11.5,15l0,0l-30,39c-1.4,1.9-2.7,3.6-3.6,4.9c-1,1.4-1.7,2.5-2.2,3.5c-0.5,1-0.8,1.9-1,2.8
		c-0.1,0.9-0.2,1.9-0.2,3c0,2.7,0.8,5.5,2.5,8.3c1.7,2.8,3.8,4.8,6.4,6.1c1.6,0.8,3.1,1.3,4.6,1.6c1.3,0.2,2.9,0.3,4.7,0.4l0,0h0.8
		h5.2H611c4.8,0,8.7-1.4,11.7-4.1c3-2.7,4.5-6.3,4.5-10.6s-1.4-7.8-4.3-10.5C619.9,285.1,616,283.7,611,283.6z"/>
	<path class="st0" d="M455.9,131.5c-2.5-2.5-6.6-2.6-9.2,0l-29.9,29.6c-1,1-1.9,2.2-2.5,3.5c-3.3,6.6-0.7,14.6,5.9,17.9
		c6.6,3.3,14.6,0.7,17.9-5.9l19-37.6C458.3,136.5,457.9,133.5,455.9,131.5z"/>
	<path class="st0" d="M585.6,172.6c4.2,2.2,9.3,0.6,11.5-3.5l11.5-21.7c0.8-1.5,0.6-3.4-0.6-4.7c-1.5-1.7-4.1-1.9-5.8-0.3
		l-18.3,16.3c-0.7,0.6-1.4,1.5-1.9,2.4C579.8,165.3,581.4,170.4,585.6,172.6z"/>
	<path class="st1" d="M385.1,192.4c-1.9-1.8-4-3.2-6.5-4.2c-2.5-1-5.2-1.6-8.1-1.6c-8.8,0-17.1,3.4-24.8,10.1
		c-3.2-6.3-8.1-9.4-14.7-9.4c-6,0-10.5,2.8-13.7,8.4c-0.5,0.8-0.9,1.6-1.2,2.4c-0.3,0.8-0.5,1.7-0.6,2.8c-0.1,1-0.2,2.3-0.2,3.9
		c-0.1,1.5-0.1,3.5-0.1,5.9v72.6v3.6c0,5.3,1.5,9.6,4.5,12.9c3,3.3,6.9,4.9,11.7,4.9c4.8,0,8.6-1.6,11.5-4.8c2.8-3.2,4.3-7.6,4.5-13
		v-3.6v-49.4c0-5.3,0.5-9.1,1.6-11.3c1-2.2,2.9-3.4,5.4-3.4c1.8,0,3.9,0.7,6.3,2.2c3.1,1.8,5.2,2.9,6.4,3.4c1.2,0.5,2.9,0.7,5.2,0.7
		c5.3,0,9.8-1.8,13.6-5.5c3.8-3.7,5.7-8.2,5.7-13.5c0-2.7-0.6-5.3-1.7-7.7C388.5,196.3,387,194.2,385.1,192.4z"/>
	<path class="st1" d="M484.5,190.6h-57.7c-4.8,0-8.8,1.3-11.8,4c-3,2.6-4.6,6.2-4.6,10.7c0,4.3,1.5,7.8,4.5,10.5
		c3,2.6,7,4.1,11.9,4.2H462L484.5,190.6z"/>
	<path class="st1" d="M278.2,134.2c-4.7,0-8.4,1.6-11.3,4.8c-2.9,3.2-4.4,7.6-4.6,13v3.6v41.2c-5-3.8-10-6.6-15.1-8.4
		c-5.1-1.8-10.7-2.6-17-2.6c-7.9,0-15.2,1.5-21.8,4.6c-6.7,3.1-12.5,7.2-17.4,12.5c-4.9,5.3-8.8,11.6-11.6,18.8
		c-2.8,7.2-4.2,15-4.2,23.4c0,8.5,1.4,16.4,4.2,23.8c2.8,7.3,6.7,13.6,11.6,18.9c4.9,5.3,10.8,9.4,17.6,12.4
		c6.8,3,14.3,4.5,22.3,4.5c6.8,0,12.6-0.9,17.6-2.8c5-1.8,10-5,15.2-9.5c2.7,7.7,7.8,11.5,15.2,11.5c2.9,0,5.5-0.6,7.7-1.8
		c2.2-1.2,4-2.9,5.3-5.2c1-1.6,1.6-3.4,1.9-5.3c0.3-1.9,0.5-4.8,0.5-8.7V155.7v-3.6c0-5.3-1.5-9.6-4.5-12.9
		C286.9,135.9,283,134.2,278.2,134.2z M260.8,255.8c-1.4,3.3-3.4,6.2-5.8,8.8c-2.4,2.5-5.3,4.5-8.6,6c-3.3,1.5-6.8,2.2-10.5,2.2
		c-3.9,0-7.4-0.7-10.7-2.2c-3.3-1.5-6.1-3.4-8.6-6c-2.4-2.5-4.3-5.4-5.8-8.8c-1.4-3.3-2.2-6.9-2.2-10.8c0-3.7,0.7-7.2,2.2-10.5
		c1.4-3.2,3.4-6.1,5.9-8.5c2.5-2.4,5.4-4.4,8.7-5.8c3.3-1.5,6.8-2.2,10.5-2.2c3.7,0,7.2,0.7,10.5,2.2c3.3,1.5,6.1,3.4,8.6,5.8
		c2.4,2.4,4.3,5.3,5.8,8.6c1.4,3.3,2.2,6.9,2.2,10.6S262.3,252.5,260.8,255.8z"/>
	<path class="st1" d="M602.4,275.3h-33l14.4-18.8l29.7-38.8c2.7-3.7,4.1-7.1,4.1-10.1c0-5.2-1.8-9.3-5.4-12.3
		c-3.2-2.7-7.4-4.2-12.5-4.5l0-0.1h-1.9h-4.2h-51.8c-4.8,0-8.8,1.3-11.8,4c-3,2.6-4.6,6.2-4.6,10.7c0,4.3,1.5,7.8,4.5,10.5
		c3,2.6,7,4.1,11.9,4.2h29.2l-11.5,15l0,0l-30,39c-1.4,1.9-2.7,3.6-3.6,4.9c-1,1.4-1.7,2.5-2.2,3.5c-0.5,1-0.8,1.9-1,2.8
		c-0.1,0.9-0.2,1.9-0.2,3c0,2.7,0.8,5.5,2.5,8.3c1.7,2.8,3.8,4.8,6.4,6.1c1.6,0.8,3.1,1.3,4.6,1.6c1.3,0.2,2.9,0.3,4.7,0.4l0,0h0.8
		h5.2h55.5c4.8,0,8.7-1.4,11.7-4.1c3-2.7,4.5-6.3,4.5-10.6c0-4.3-1.4-7.8-4.3-10.5C611.4,276.9,607.4,275.5,602.4,275.3z"/>
	<path class="st1" d="M803.2,253.2c-2-4-5.1-6.7-9.2-8.1c-4.1-1.4-8.2-1-12.4,1.1c-1.6,0.8-2.9,1.8-4,3c-1.1,1.2-2.2,2.9-3.3,5
		c-1.8,3.6-3.8,6.5-6,8.8c-2.2,2.3-4.7,4.1-7.6,5.6c-5.9,2.9-12,3.6-18.4,1.9l37.3-45.1c3.3-4.2,5.3-7.7,6.1-10.7
		c0.8-3,0.3-6.1-1.2-9.2c-2.4-4.7-5.9-8.6-10.6-11.7c-4.7-3.1-9.9-5.2-15.7-6.4c-5.8-1.2-12-1.4-18.4-0.6
		c-6.4,0.8-12.5,2.6-18.3,5.5c-7.2,3.6-13.2,8.4-18.2,14.3c-4.9,6-8.6,12.6-11,19.8c-2.4,7.2-3.4,14.7-3,22.5
		c0.4,7.8,2.4,15.3,6,22.5c3.6,7.2,8.4,13.3,14.6,18.3c6.1,5,12.8,8.8,20.2,11.2c7.3,2.4,15,3.5,22.9,3.1c7.9-0.4,15.5-2.3,22.6-5.9
		c5.2-2.6,10-5.9,14.4-10c4.4-4.1,7.9-8.6,10.5-13.5c2.4-4.5,3.9-8.4,4.4-11.8C805.2,259.4,804.7,256.2,803.2,253.2z M723.3,253.5
		c-2.5-6.5-2.6-12.9-0.1-19.4c2.4-6.4,6.8-11.2,13.2-14.4c5.9-2.9,11.1-3.1,15.7-0.3L723.3,253.5z"/>
	<path class="st1" d="M487.3,275.2h-36.7l-22.5,29.4h59.2c4.8,0,8.7-1.4,11.7-4.1c3-2.7,4.5-6.3,4.5-10.6c0-4.3-1.4-7.8-4.3-10.5
		C496.2,276.8,492.3,275.4,487.3,275.2z"/>
	<path class="st1" d="M653.9,135c-4.8,0-8.7,1.6-11.6,4.8c-2.9,3.2-4.4,7.6-4.6,13v3.6v126.8v3.6c0,5.3,1.5,9.6,4.5,12.9
		c3,3.3,6.9,4.9,11.7,4.9c5.1,0,9.1-1.7,11.9-5.1c2.8-3.4,4.1-8.1,4-14.2v-2.2V155v-2.2c0-5.3-1.4-9.6-4.3-12.9
		C662.6,136.6,658.8,135,653.9,135z"/>
	<path class="st2" d="M538,149.5l-96.2,148.1c-5.4,8.3-16.6,10.7-24.9,5.3s-10.7-16.6-5.3-24.9c0.3-0.5,0.7-1,1.1-1.5l111.2-137.2
		c3-3.7,8.5-4.3,12.3-1.3C539.7,140.8,540.4,145.8,538,149.5z"/>
	<path class="st2" d="M448.6,130.7l-19,37.6c-3.3,6.6-11.4,9.2-17.9,5.9c-6.6-3.3-9.2-11.4-5.9-17.9c0.7-1.3,1.5-2.5,2.5-3.5
		l29.9-29.6c2.5-2.5,6.6-2.5,9.2,0C449.4,125.3,449.8,128.3,448.6,130.7z"/>
	<path class="st2" d="M602.5,141.6l-11.5,21.7c-2.2,4.2-7.4,5.7-11.5,3.5c-4.2-2.2-5.7-7.4-3.5-11.5c0.5-0.9,1.1-1.7,1.9-2.4
		l18.3-16.3c1.7-1.5,4.3-1.4,5.8,0.3C603.1,138.3,603.3,140.1,602.5,141.6z"/>
	<g id="Layer_3">
		<path class="st3" d="M484,105.4l-41.2,61c-1.5,2.3-4.7,2.9-6.9,1.3c-2.3-1.5-2.9-4.7-1.3-6.9c0.1-0.1,0.1-0.2,0.2-0.3l45.3-58
			c0.8-1.1,2.3-1.2,3.4-0.4C484.5,102.9,484.7,104.4,484,105.4z">
			<animateTransform
				 attributeName="transform"
				 dur="0.4s"
				 type="translate"
				 values="100 -150; 0 0"
				 repeatCount="indefinite"
				 begin="0"/>
		</path>
		<path class="st3" d="M447.2,364.6l-41.2,61c-1.5,2.3-4.7,2.9-6.9,1.3c-2.3-1.5-2.9-4.7-1.3-6.9c0.1-0.1,0.1-0.2,0.2-0.3l45.3-58
			c0.8-1.1,2.3-1.2,3.4-0.4C447.7,362.1,447.9,363.6,447.2,364.6z">
			<animateTransform
				 attributeName="transform"
				 dur="0.4s"
				 type="translate"
				 values="100 -150; 0 0"
				 repeatCount="indefinite"
				 begin="0.2"/>
		</path>
		<path class="st3" d="M805.4,130.1l-41.2,61c-1.5,2.3-4.7,2.9-6.9,1.3c-2.3-1.5-2.9-4.7-1.3-6.9c0.1-0.1,0.1-0.2,0.2-0.3l45.3-58
			c0.8-1.1,2.3-1.2,3.4-0.4C805.9,127.6,806.1,129,805.4,130.1z">
			<animateTransform
				 attributeName="transform"
				 dur="0.4s"
				 type="translate"
				 values="100 -150; 0 0"
				 repeatCount="indefinite"
				 begin="0.2"/>
		</path>
		<path class="st3" d="M595.1,66.8l-51,74.5c-1.6,2.3-4.7,2.9-7,1.3s-2.9-4.7-1.3-7c0.1-0.1,0.1-0.2,0.2-0.2l55.1-71.5
			c0.8-1.1,2.3-1.3,3.4-0.4C595.6,64.3,595.9,65.7,595.1,66.8z">
			<animateTransform
				 attributeName="transform"
				 dur="0.4s"
				 type="translate"
				 values="100 -150; 0 0"
				 repeatCount="indefinite"
				 begin="0.6"/>
		</path>
		<path class="st3" d="M857.7,138.9l-51,74.5c-1.6,2.3-4.7,2.9-7,1.3c-2.3-1.6-2.9-4.7-1.3-7c0.1-0.1,0.1-0.2,0.2-0.2l55.1-71.5
			c0.8-1.1,2.3-1.3,3.4-0.4C858.2,136.4,858.5,137.9,857.7,138.9z">
			<animateTransform
				 attributeName="transform"
				 dur="0.4s"
				 type="translate"
				 values="100 -150; 0 0"
				 repeatCount="indefinite"
				 begin="0"/>
		</path>
		<path class="st3" d="M217.3,10.4l-51,74.5c-1.6,2.3-4.7,2.9-7,1.3s-2.9-4.7-1.3-7c0.1-0.1,0.1-0.2,0.2-0.2l55.1-71.5
			c0.8-1.1,2.3-1.3,3.4-0.4C217.8,7.9,218,9.3,217.3,10.4z">
			<animateTransform
				 attributeName="transform"
				 dur="0.4s"
				 type="translate"
				 values="100 -150; 0 0"
				 repeatCount="indefinite"
				 begin="0.2"/>
		</path>
		<path class="st3" d="M314.7,116.6l-51,74.5c-1.6,2.3-4.7,2.9-7,1.3c-2.3-1.6-2.9-4.7-1.3-7c0.1-0.1,0.1-0.2,0.2-0.2l55.1-71.5
			c0.8-1.1,2.3-1.3,3.4-0.4C315.2,114.1,315.4,115.5,314.7,116.6z">
			<animateTransform
				 attributeName="transform"
				 dur="0.4s"
				 type="translate"
				 values="100 -150; 0 0"
				 repeatCount="indefinite"
				 begin="0.4"/>
		</path>
		<path class="st3" d="M700.1,287.8l-51,74.5c-1.6,2.3-4.7,2.9-7,1.3s-2.9-4.7-1.3-7c0.1-0.1,0.1-0.2,0.2-0.2l55.1-71.5
			c0.8-1.1,2.3-1.3,3.4-0.4C700.6,285.3,700.8,286.8,700.1,287.8z">
			<animateTransform
				 attributeName="transform"
				 dur="0.4s"
				 type="translate"
				 values="100 -150; 0 0"
				 repeatCount="indefinite"
				 begin="0.6"/>
		</path>
		<path class="st3" d="M374.6,74.9l-15.3,25.4c-1.4,2.4-4.5,3.1-6.9,1.7s-3.1-4.5-1.7-6.9c0.1-0.2,0.3-0.5,0.5-0.7L370.7,72
			c0.9-1,2.4-1.1,3.4-0.2C375,72.6,375.2,73.9,374.6,74.9z">
			<animateTransform
				 attributeName="transform"
				 dur="0.4s"
				 type="translate"
				 values="100 -150; 0 0"
				 repeatCount="indefinite"
				 begin="0"/>
		</path>
		<path class="st3" d="M708.9,91.1l-15.3,25.4c-1.4,2.4-4.5,3.1-6.9,1.7s-3.1-4.5-1.7-6.9c0.1-0.2,0.3-0.5,0.5-0.7L705,88.2
			c0.9-1,2.4-1.1,3.4-0.2C709.3,88.8,709.5,90.1,708.9,91.1z">
			<animateTransform
				 attributeName="transform"
				 dur="0.4s"
				 type="translate"
				 values="100 -150; 0 0"
				 repeatCount="indefinite"
				 begin="0.2"/>
		</path>
		<path class="st3" d="M133.4,312.2l-15.3,25.4c-1.4,2.4-4.5,3.1-6.9,1.7c-2.4-1.4-3.1-4.5-1.7-6.9c0.1-0.2,0.3-0.5,0.5-0.7
			l19.5-22.4c0.9-1,2.4-1.1,3.4-0.2C133.8,309.9,134,311.2,133.4,312.2z">
			<animateTransform
				 attributeName="transform"
				 dur="0.4s"
				 type="translate"
				 values="100 -150; 0 0"
				 repeatCount="indefinite"
				 begin="0.4"/>
		</path>
		<path class="st3" d="M177.2,147.7l-15.3,25.4c-1.4,2.4-4.5,3.1-6.9,1.7c-2.4-1.4-3.1-4.5-1.7-6.9c0.1-0.2,0.3-0.5,0.5-0.7
			l19.5-22.4c0.9-1,2.4-1.1,3.4-0.2C177.6,145.4,177.8,146.7,177.2,147.7z">
			<animateTransform
				 attributeName="transform"
				 dur="0.4s"
				 type="translate"
				 values="100 -150; 0 0"
				 repeatCount="indefinite"
				 begin="0.6"/>
		</path>
		<path class="st3" d="M801.1,351.3L774.7,392c-1.5,2.3-4.6,3-6.9,1.5c-2.3-1.5-3-4.6-1.5-6.9c0.1-0.1,0.2-0.3,0.3-0.4l30.6-37.7
			c0.8-1,2.4-1.2,3.4-0.4C801.5,348.9,801.7,350.3,801.1,351.3z">
			<animateTransform
				 attributeName="transform"
				 dur="0.4s"
				 type="translate"
				 values="100 -150; 0 0"
				 repeatCount="indefinite"
				 begin="0"/>
		</path>
		<path class="st3" d="M323.3,297l-26.4,40.7c-1.5,2.3-4.6,3-6.9,1.5s-3-4.6-1.5-6.9c0.1-0.1,0.2-0.3,0.3-0.4l30.6-37.7
			c0.8-1,2.4-1.2,3.4-0.4C323.8,294.6,324,296,323.3,297z">
			<animateTransform
				 attributeName="transform"
				 dur="0.4s"
				 type="translate"
				 values="100 -150; 0 0"
				 repeatCount="indefinite"
				 begin="0.2"/>
		</path>
	</g>
</g>
</svg>
